<?xml version="1.0" standalone="no"?>
<!DOCTYPE svg PUBLIC "-//W3C//DTD SVG 20010904//EN"
 "http://www.w3.org/TR/2001/REC-SVG-20010904/DTD/svg10.dtd">
<svg version="1.0" xmlns="http://www.w3.org/2000/svg"
 width="704.000000pt" height="704.000000pt" viewBox="0 0 704.000000 704.000000"
 preserveAspectRatio="xMidYMid meet">
<metadata>
Created by potrace 1.14, written by Peter Selinger 2001-2017
</metadata>
<g transform="translate(0.000000,704.000000) scale(0.100000,-0.100000)"
fill="#000000" stroke="none">
<path d="M3927 6994 c-1 -1 -20 -5 -42 -7 -134 -16 -314 -141 -391 -273 l-27
-46 -28 45 c-50 81 -152 169 -243 211 -116 54 -287 68 -401 34 -60 -19 -145
-57 -163 -75 -7 -7 -16 -13 -20 -13 -14 -1 -98 -86 -135 -136 -48 -66 -82
-145 -97 -222 -12 -58 -14 -61 -34 -50 -11 6 -23 14 -26 17 -12 15 -81 46
-148 67 -57 18 -95 23 -175 22 -56 0 -106 -3 -112 -6 -5 -4 -14 -7 -20 -9 -5
-1 -20 -4 -31 -7 -33 -7 -124 -48 -124 -55 0 -3 -12 -12 -27 -19 -100 -45
-222 -226 -248 -367 -13 -69 -12 -198 2 -245 17 -59 17 -62 -7 -55 -44 14 -79
18 -161 17 -145 -1 -283 -57 -400 -163 -42 -39 -120 -153 -134 -199 -1 -3 -5
-12 -8 -20 -34 -78 -40 -248 -13 -346 19 -66 70 -174 98 -204 10 -10 18 -23
18 -27 0 -5 -28 -14 -62 -20 -128 -25 -256 -106 -344 -218 -27 -34 -65 -98
-69 -115 -1 -3 -7 -17 -13 -33 -7 -15 -14 -39 -17 -52 -3 -14 -8 -37 -11 -52
-10 -49 -11 -147 -1 -188 5 -22 11 -51 13 -64 8 -40 45 -123 77 -169 36 -53
121 -142 136 -142 6 0 11 -4 11 -8 0 -5 12 -15 27 -22 55 -28 56 -31 11 -60
-155 -99 -261 -282 -270 -465 -1 -34 13 -152 22 -183 16 -51 70 -162 95 -192
104 -126 241 -207 384 -226 29 -4 49 -10 44 -13 -4 -3 -20 -24 -35 -46 -194
-290 -83 -698 229 -846 123 -58 278 -74 398 -43 61 17 58 17 49 2 -5 -7 -9
-19 -10 -28 -1 -8 -4 -28 -8 -45 -20 -89 0 -233 47 -335 59 -130 190 -255 307
-295 3 -1 17 -7 31 -13 32 -13 108 -27 164 -31 6 -1 10 -151 10 -431 l0 -429
33 -34 c18 -19 48 -39 67 -44 30 -10 36 -8 72 23 58 51 68 51 118 5 37 -34 48
-39 67 -32 52 21 75 36 93 60 19 25 20 45 20 403 0 208 3 378 6 378 3 0 15
-12 25 -27 44 -64 153 -161 215 -191 87 -42 104 -48 169 -58 107 -17 180 -11
299 25 98 30 233 140 299 245 l29 45 31 -47 c154 -239 451 -324 729 -210 29
12 53 25 53 30 0 4 5 8 12 8 6 0 37 23 69 50 32 28 59 50 61 50 2 0 3 -145 2
-322 0 -178 3 -336 7 -351 8 -28 42 -62 84 -82 22 -11 65 -8 65 4 0 5 18 20
39 35 43 30 58 28 96 -14 34 -37 49 -41 91 -21 22 11 50 31 64 46 l25 26 0
444 c0 244 4 447 8 451 4 4 37 9 75 10 77 3 86 4 167 33 68 24 146 73 202 128
89 88 135 174 170 318 11 45 3 202 -11 243 l-16 44 43 -8 c110 -19 265 -8 337
23 8 3 17 7 20 8 25 7 100 49 100 56 0 5 6 9 14 9 7 0 44 33 82 73 67 70 106
134 142 236 21 60 23 246 3 316 -17 60 -66 162 -91 190 -20 22 -28 38 -20 43
5 3 59 17 105 27 11 3 54 21 95 42 142 71 256 215 300 377 15 53 18 189 6 246
-33 161 -140 316 -269 390 l-49 28 56 37 c63 42 135 117 173 183 32 54 75 170
68 182 -3 5 -2 11 3 14 14 8 12 166 -3 226 -35 149 -116 272 -233 352 -51 35
-159 86 -193 90 -13 2 -28 6 -34 9 -5 3 -22 5 -37 4 -35 -2 -35 4 0 57 16 24
36 63 46 88 10 25 22 53 27 62 30 58 30 238 0 336 -74 243 -288 409 -540 416
-70 3 -92 0 -180 -20 -22 -4 -32 -4 -28 3 19 31 28 181 15 253 -5 25 -10 55
-13 68 -2 12 -20 57 -40 98 -78 161 -261 298 -430 320 -26 3 -139 7 -145 4 -3
-1 -14 -3 -25 -5 -11 -1 -31 -5 -45 -8 -14 -3 -36 -8 -49 -11 -39 -9 -143 -62
-176 -90 -37 -32 -45 -33 -45 -1 0 32 -1 35 -12 65 -5 14 -11 32 -13 40 -13
61 -83 171 -151 236 -73 71 -199 136 -289 149 -50 8 -173 14 -178 9z"/>
</g>
</svg>
