<?xml version="1.0" encoding="UTF-8"?>
<svg width="440px" height="111px" viewBox="0 0 440 111" version="1.1" xmlns="http://www.w3.org/2000/svg" xmlns:xlink="http://www.w3.org/1999/xlink">
    <title>Untitled 3</title>
    <defs>
        <polygon id="path-1" points="0 0 9.33333333 0 9.33333333 21.1666667 0 21.1666667"></polygon>
        <polygon id="path-3" points="0 0 9.33333333 0 9.33333333 21.1666667 0 21.1666667"></polygon>
        <polygon id="path-5" points="0 0 103 0 103 103.5 0 103.5"></polygon>
    </defs>
    <g id="Page-1" stroke="none" stroke-width="1" fill="none" fill-rule="evenodd">
        <g id="Baby-Sleep-Consultant-Moon-Logo-Design" transform="translate(0.151041, 0.166667)">
            <g id="Clipped" transform="translate(26.182292, 88.833333)">
                <mask id="mask-2" fill="white">
                    <use xlink:href="#path-1"></use>
                </mask>
                <g id="Path"></g>
                <path d="M8.510416,5.67708267 L8.510416,19.4791667 C8.510416,20.1093747 8.130208,20.6770827 7.55208267,20.9218747 C6.97395867,21.1614587 6.307292,21.0364587 5.85416667,20.5937493 C5.567708,20.2916667 5.16666667,20.119792 4.744792,20.119792 C4.32291733,20.119792 3.92708267,20.2916667 3.635416,20.5937493 C3.182292,21.0364587 2.51562533,21.1614587 1.9375,20.9218747 C1.35937467,20.6770827 0.979166667,20.1093747 0.979166667,19.4791667 L0.979166667,3.53645867 C3.33333333,3.557292 5.60937467,2.67708267 7.34374933,1.07812533 C7.33854133,2.6875 7.739584,4.26562533 8.510416,5.67708267 Z" id="Path" fill="#A56A43" fill-rule="nonzero" mask="url(#mask-2)"></path>
            </g>
            <g id="Clipped" transform="translate(67.515625, 88.833333)">
                <mask id="mask-4" fill="white">
                    <use xlink:href="#path-3"></use>
                </mask>
                <g id="Path"></g>
                <path d="M8.619792,2.59374933 L8.619792,19.4791667 C8.614584,20.1093747 8.23437467,20.6770827 7.65625067,20.9218747 C7.07812533,21.1614587 6.41145867,21.0364587 5.96354133,20.5937493 C5.67187467,20.2916667 5.27083333,20.119792 4.84895867,20.119792 C4.432292,20.119792 4.03125067,20.2916667 3.739584,20.5937493 C3.29166667,21.0364587 2.625,21.1614587 2.04166667,20.9218747 C1.46354133,20.6770827 1.08854133,20.1093747 1.08333333,19.4791667 L1.08333333,4.72916667 C1.85416667,3.32291733 2.255208,1.739584 2.25,0.135416 C3.989584,1.73437467 6.260416,2.614584 8.619792,2.59374933 Z" id="Path" fill="#A56A43" fill-rule="nonzero" mask="url(#mask-4)"></path>
            </g>
            <g id="Clipped">
                <mask id="mask-6" fill="white">
                    <use xlink:href="#path-5"></use>
                </mask>
                <g id="Path"></g>
                <path d="M102.505209,57.1041667 C102.067708,61.5937493 98.5364587,65.1510413 94.067708,65.5937493 C97.3958333,68.619792 98.177084,73.5625 95.9479173,77.4739587 C93.7239587,81.3906253 89.057292,83.182292 84.796876,81.7656253 C86.6406253,85.880208 85.3593747,90.7343747 81.7291667,93.3906253 C78.114584,96.0468747 73.1354173,95.7812507 69.8229173,92.75 C69.8125,94.3593747 69.3906253,95.942708 68.5989587,97.3437493 C66.8958333,100.546875 63.5156253,102.489584 59.9062507,102.338541 C56.2916667,102.1875 53.0833333,99.9791667 51.6458333,96.6458333 C49.9114587,100.864584 45.427084,103.239584 40.9791667,102.286459 C36.5312507,101.333333 33.3958333,97.3333333 33.5260413,92.7708333 C30.2135427,95.7968747 25.239584,96.067708 21.619792,93.4114587 C17.989584,90.75 16.7083333,85.9010413 18.552084,81.7812507 C14.2916667,83.2031253 9.625,81.4062507 7.40104133,77.489584 C5.171876,73.5781253 5.95312533,68.635416 9.28645867,65.614584 C4.671876,65.3385413 0.942708,61.75 0.473958667,57.135416 C0.00520933333,52.5208333 2.942708,48.25 7.40104133,47.0468747 C3.32812533,44.9270827 1.364584,40.1614587 2.76562533,35.7760413 C4.16145867,31.385416 8.50520933,28.6458333 13.052084,29.2916667 C10.3958333,25.625 10.6666667,20.5885413 13.692708,17.2239587 C16.671876,13.864584 21.5937507,13.0729173 25.4635427,15.3333333 C24.5208333,10.9270827 26.807292,6.46354133 30.927084,4.67187467 C34.994792,2.85937467 39.7708333,4.15104133 42.3802093,7.77083333 C43.192708,3.27083333 47.0937507,0 51.6458333,0 C56.2031253,0 60.1041667,3.27083333 60.9166667,7.77083333 C63.5208333,4.15104133 68.296876,2.85937467 72.364584,4.67187467 C76.489584,6.46354133 78.7760413,10.9270827 77.8281253,15.3333333 C81.7031253,13.0729173 86.625,13.864584 89.5989587,17.2239587 C92.5989587,20.5937493 92.8489587,25.5989587 90.2031253,29.255208 C94.75,28.6093747 99.0937507,31.3489587 100.494792,35.7343747 C101.890625,40.125 99.932292,44.885416 95.8541667,47.010416 C100.208333,48.3229173 103.005209,52.5729173 102.505209,57.1041667 Z" id="Path" fill="#F9EAB0" fill-rule="nonzero" mask="url(#mask-6)"></path>
            </g>
            <path d="M77.619792,42.6614587 C75.9114587,41.380208 73.9114587,40.5468747 71.802084,40.239584 L71.802084,40.067708 C71.1041667,37.942708 70.0208333,35.9687493 68.5989587,34.244792 C68.5989587,34.244792 62.9479173,38.0260413 51.6458333,38.0260413 C40.3437507,38.0260413 34.692708,34.244792 34.692708,34.244792 C34.692708,34.244792 34.692708,17.2239587 51.6458333,17.2239587 C68.5989587,17.2239587 81.7864587,32.3541667 85.552084,39.9166667 C87.942708,44.739584 82.7239587,44.192708 77.619792,42.6614587 Z" id="Path" fill="#3B97D3" fill-rule="nonzero"></path>
            <path d="M66.7135427,40.7864587 C65.677084,40.7864587 64.8333333,39.942708 64.8333333,38.8958333 L64.8333333,34.244792 C64.119792,32.5625 63.0156253,31.0781253 61.6093747,29.9166667 C60.875,29.1718747 60.875,27.9687493 61.6093747,27.2291667 C62.3489587,26.489584 63.546876,26.489584 64.2864587,27.2291667 C68.2812507,31.255208 68.5989587,33.619792 68.5989587,34.244792 L68.5989587,38.8958333 C68.5989587,39.942708 67.7552093,40.7864587 66.7135427,40.7864587 Z" id="Path" fill="#2980BA" fill-rule="nonzero"></path>
            <path d="M70.4843747,62.6093747 C70.4843747,72.0625 61.0625,77.7343747 51.6458333,77.7343747 C42.2291667,77.7343747 32.8125,72.0625 32.8125,62.6093747 C32.7916667,59.1666667 33.2083333,55.7343747 34.052084,52.3958333 C34.7291667,49.364584 36.0989587,46.5364587 38.067708,44.135416 C42.5260413,45.125 47.0833333,45.614584 51.6458333,45.5885413 C56.2135427,45.614584 60.7708333,45.125 65.2291667,44.135416 C67.192708,46.5364587 68.567708,49.364584 69.239584,52.3958333 C70.0833333,55.7343747 70.5,59.1666667 70.4843747,62.6093747 Z" id="Path" fill="#CBB292" fill-rule="nonzero"></path>
            <path d="M70.6510413,42.5260413 C68.8854173,43.1875 67.0729173,43.7239587 65.2291667,44.135416 C60.7708333,45.125 56.2135427,45.614584 51.6458333,45.5885413 C47.0833333,45.614584 42.5260413,45.125 38.067708,44.135416 C36.2239587,43.7239587 34.4114587,43.1875 32.6406253,42.5260413 C31.7239587,42.182292 31.2239587,41.1875 31.494792,40.239584 L31.494792,40.067708 C32.1875,37.942708 33.2760413,35.9687493 34.692708,34.244792 C34.692708,34.244792 40.3437507,38.0260413 51.6458333,38.0260413 C62.9479173,38.0260413 68.5989587,34.244792 68.5989587,34.244792 C70,35.9739587 71.067708,37.9479173 71.744792,40.067708 L71.744792,40.239584 C72.0208333,41.1718747 71.546876,42.1614587 70.6510413,42.5260413 Z" id="Path" fill="#F0C419" fill-rule="nonzero"></path>
            <path d="M38.067708,44.135416 C36.0989587,46.5364587 34.7291667,49.364584 34.052084,52.3958333 C28.9114587,54.630208 23.3958333,53.2656253 23.3958333,47.4791667 C23.3958333,42.5625 28.1562507,40.8437493 31.494792,40.239584 C31.2239587,41.1875 31.7239587,42.182292 32.6406253,42.5260413 C34.4114587,43.1875 36.2239587,43.7239587 38.067708,44.135416 Z" id="Path" fill="#FB7B76" fill-rule="nonzero"></path>
            <path d="M79.9010413,47.4791667 C79.9010413,53.2656253 74.3802093,54.630208 69.239584,52.3958333 C68.567708,49.364584 67.192708,46.5364587 65.2291667,44.135416 C67.0729173,43.7239587 68.8854173,43.1875 70.6510413,42.5260413 C71.5729173,42.182292 72.0729173,41.1875 71.802084,40.239584 C73.9114587,40.5468747 75.9114587,41.380208 77.619792,42.6614587 C79.0937507,43.817708 79.9375,45.6041667 79.9010413,47.4791667 Z" id="Path" fill="#FB7B76" fill-rule="nonzero"></path>
            <path d="M43.9635427,57.7656253 C42.4114587,57.7812507 40.8802093,57.4270827 39.5,56.7291667 C38.6510413,56.2187493 38.3437507,55.135416 38.7864587,54.255208 C39.2343747,53.369792 40.2812507,52.9791667 41.192708,53.3593747 C43.057292,54.1718747 45.171876,54.1718747 47.0312507,53.3593747 C47.942708,52.9791667 48.994792,53.369792 49.4375,54.255208 C49.8802093,55.135416 49.5729173,56.2187493 48.7291667,56.7291667 C47.2343747,57.4166667 45.6041667,57.7708333 43.9635427,57.7656253 Z" id="Path" fill="#5F5346" fill-rule="nonzero"></path>
            <path d="M59.0312507,57.7656253 C57.4791667,57.7812507 55.9531253,57.4270827 54.567708,56.7291667 C53.7187507,56.2187493 53.4114587,55.135416 53.8593747,54.255208 C54.302084,53.369792 55.3489587,52.9791667 56.2604173,53.3593747 C58.125,54.1718747 60.239584,54.1718747 62.0989587,53.3593747 C62.7031253,52.994792 63.4635427,53 64.0625,53.375 C64.6666667,53.75 65.0052093,54.4270827 64.9479173,55.135416 C64.8906253,55.8385413 64.4479173,56.4531253 63.796876,56.7291667 C62.302084,57.4166667 60.677084,57.7708333 59.0312507,57.7656253 Z" id="Path" fill="#5F5346" fill-rule="nonzero"></path>
            <path d="M57.0885427,61.755208 C56.619792,60.8281253 55.494792,60.4583333 54.567708,60.9270827 L51.6458333,62.380208 L48.7291667,60.9270827 C47.817708,60.5468747 46.7656253,60.932292 46.3229173,61.817708 C45.875,62.7031253 46.1875,63.7812507 47.0312507,64.2916667 L49.7656253,65.6718747 L49.7656253,66.3906253 C49.7656253,67.432292 50.6093747,68.2812507 51.6458333,68.2812507 C52.6875,68.2812507 53.5312507,67.432292 53.5312507,66.3906253 L53.5312507,65.6718747 L56.2604173,64.2916667 C57.1875,63.817708 57.557292,62.6875 57.0885427,61.755208 Z" id="Path" fill="#5F5346" fill-rule="nonzero"></path>
            <g id="Group" transform="translate(116.539785, 8.629152)" fill="#FFFFFF" fill-rule="nonzero">
                <g id="Shape">
                    <path d="M20.380208,17.7343747 L20.380208,9.85937467 C20.380208,3.73437467 16.5,0 10.1875,0 C3.880208,0 8.8817842e-16,3.73437467 8.8817842e-16,9.85937467 L8.8817842e-16,17.7343747 C8.8817842e-16,23.744792 3.880208,27.5156253 10.1875,27.5156253 C16.5,27.5156253 20.380208,23.744792 20.380208,17.7343747 Z M3.20833333,17.7343747 L3.20833333,9.85937467 C3.20833333,5.48958267 5.74479067,2.95312533 10.1875,2.95312533 C14.630208,2.95312533 17.135416,5.48958267 17.135416,9.85937467 L17.135416,17.7343747 C17.135416,21.9531253 14.630208,24.4895827 10.1875,24.4895827 C5.74479067,24.4895827 3.20833333,21.9531253 3.20833333,17.7343747 Z"></path>
                </g>
            </g>
            <g id="Group" transform="translate(141.884651, 9.040611)" fill="#FFFFFF" fill-rule="nonzero">
                <g id="Path">
                    <path d="M16.385416,2.505208 L16.385416,0.411457333 C16.385416,0.151041333 16.203124,0 15.9374987,0 L0.447916,0 C0.151041333,0 0,0.151041333 0,0.411457333 L0,26.2812493 C0,26.5416667 0.151041333,26.692708 0.447916,26.692708 L2.760416,26.692708 C3.020832,26.692708 3.17187467,26.5416667 3.17187467,26.2812493 L3.17187467,15.2343747 L14.520832,15.2343747 C14.7812493,15.2343747 14.9322907,15.0833333 14.9322907,14.822916 L14.9322907,12.7291667 C14.9322907,12.4687493 14.7812493,12.322916 14.520832,12.322916 L3.17187467,12.322916 L3.17187467,2.91145733 L15.9374987,2.91145733 C16.203124,2.91145733 16.385416,2.76562533 16.385416,2.505208 Z"></path>
                </g>
            </g>
            <g id="Group" transform="translate(162.004469, 9.040611)" fill="#FFFFFF" fill-rule="nonzero">
                <g id="Path">
                    <path d="M16.385416,2.505208 L16.385416,0.411457333 C16.385416,0.151041333 16.203124,0 15.9374987,0 L0.447916,0 C0.151041333,0 0,0.151041333 0,0.411457333 L0,26.2812493 C0,26.5416667 0.151041333,26.692708 0.447916,26.692708 L2.760416,26.692708 C3.020832,26.692708 3.17187467,26.5416667 3.17187467,26.2812493 L3.17187467,15.2343747 L14.520832,15.2343747 C14.7812493,15.2343747 14.9322907,15.0833333 14.9322907,14.822916 L14.9322907,12.7291667 C14.9322907,12.4687493 14.7812493,12.322916 14.520832,12.322916 L3.17187467,12.322916 L3.17187467,2.91145733 L15.9374987,2.91145733 C16.203124,2.91145733 16.385416,2.76562533 16.385416,2.505208 Z"></path>
                </g>
            </g>
            <g id="Group" transform="translate(186.901471, 9.040611)" fill="#FFFFFF" fill-rule="nonzero">
                <g id="Path">
                    <path d="M19.5989573,0 L0.411457333,0 C0.151041333,0 0,0.151041333 0,0.411457333 L0,2.505208 C0,2.76562533 0.151041333,2.91145733 0.411457333,2.91145733 L8.40104133,2.91145733 L8.40104133,26.2812493 C8.40104133,26.5416667 8.58854133,26.692708 8.84895733,26.692708 L11.1614573,26.692708 C11.4218747,26.692708 11.6093747,26.5416667 11.6093747,26.2812493 L11.6093747,2.91145733 L19.5989573,2.91145733 C19.8593747,2.91145733 20.0468747,2.76562533 20.0468747,2.505208 L20.0468747,0.411457333 C20.0468747,0.151041333 19.8593747,0 19.5989573,0 Z"></path>
                </g>
            </g>
            <g id="Group" transform="translate(209.038659, 8.629152)" fill="#FFFFFF" fill-rule="nonzero">
                <g transform="translate(-0.000000, 0.000000)" id="Shape">
                    <path d="M20.380208,17.7343747 L20.380208,9.85937467 C20.380208,3.73437467 16.5,0 10.1875,0 C3.880208,0 8.8817842e-16,3.73437467 8.8817842e-16,9.85937467 L8.8817842e-16,17.7343747 C8.8817842e-16,23.744792 3.880208,27.5156253 10.1875,27.5156253 C16.5,27.5156253 20.380208,23.744792 20.380208,17.7343747 Z M3.20833333,17.7343747 L3.20833333,9.85937467 C3.20833333,5.48958267 5.74479067,2.95312533 10.1875,2.95312533 C14.630208,2.95312533 17.135416,5.48958267 17.135416,9.85937467 L17.135416,17.7343747 C17.135416,21.9531253 14.630208,24.4895827 10.1875,24.4895827 C5.74479067,24.4895827 3.20833333,21.9531253 3.20833333,17.7343747 Z"></path>
                </g>
            </g>
            <g id="Group" transform="translate(240.476205, 8.629152)" fill="#FFFFFF" fill-rule="nonzero">
                <g id="Path">
                    <path d="M19.2886682,19.8645827 C19.2886682,14.5625 14.8876269,12.994792 9.91887753,11.875 C6.00221086,10.9791667 3.38762686,9.96875067 3.38762686,7.130208 C3.38762686,4.40624933 5.88762686,2.95312533 9.43450286,2.95312533 C12.0126269,3.02604133 14.3980442,3.8125 16.6792935,5.380208 C16.9032522,5.52604133 17.1272109,5.52604133 17.2730442,5.302084 L18.5074189,3.54687467 C18.6584602,3.36458267 18.6584602,3.14062533 18.3928362,2.98958267 C15.5595029,0.9375 13.0178362,0 9.69491886,0 C4.58033486,0 0.179293531,2.130208 0.179293531,7.057292 C0.179293531,12.0208333 4.58033486,13.927084 9.10116953,14.932292 C13.3563775,15.869792 16.0803349,16.8385413 16.0803349,19.9375 C16.0803349,23.072916 13.0178362,24.4895827 9.62200153,24.4895827 C6.81991886,24.4531253 4.50741886,23.447916 1.93450286,21.505208 C1.74700153,21.3541667 1.5230442,21.3906253 1.37200153,21.6145827 L0.101169531,23.369792 C-0.0446651359,23.5937507 -0.0446651359,23.7812493 0.179293531,23.9687507 C3.12721086,26.3593747 5.81471086,27.5156253 9.51262686,27.5156253 C14.7730442,27.5156253 19.2886682,25.197916 19.2886682,19.8645827 Z"></path>
                </g>
            </g>
            <g id="Group" transform="translate(263.909951, 9.040611)" fill="#FFFFFF" fill-rule="nonzero">
                <g id="Path">
                    <path d="M15.640624,0.411457333 L15.640624,11.6875 L3.17187467,11.6875 L3.17187467,0.411457333 C3.17187467,0.151041333 3.020832,0 2.760416,0 L0.447916,0 C0.151041333,0 0,0.151041333 0,0.411457333 L0,26.2812493 C0,26.5416667 0.151041333,26.692708 0.447916,26.692708 L2.760416,26.692708 C3.020832,26.692708 3.17187467,26.5416667 3.17187467,26.2812493 L3.17187467,14.5989587 L15.640624,14.5989587 L15.640624,26.2812493 C15.640624,26.5416667 15.7916667,26.692708 16.0885413,26.692708 L18.4010413,26.692708 C18.6666667,26.692708 18.8124987,26.5416667 18.8124987,26.2812493 L18.8124987,0.411457333 C18.8124987,0.151041333 18.6666667,0 18.4010413,0 L16.0885413,0 C15.7916667,0 15.640624,0.151041333 15.640624,0.411457333 Z"></path>
                </g>
            </g>
            <g id="Group" transform="translate(288.621147, 9.040611)" fill="#FFFFFF" fill-rule="nonzero">
                <g id="Path">
                    <path d="M3.20833333,23.7812493 L3.20833333,14.5989587 L14.6718747,14.5989587 C14.9322907,14.5989587 15.0833333,14.447916 15.0833333,14.1510413 L15.0833333,12.0989587 C15.0833333,11.7968747 14.9322907,11.6510413 14.6718747,11.6510413 L3.20833333,11.6510413 L3.20833333,2.91145733 L15.5312493,2.91145733 C15.7916667,2.91145733 15.9374987,2.76562533 15.9374987,2.505208 L15.9374987,0.411457333 C15.9374987,0.151041333 15.7916667,0 15.5312493,0 L0.447916,0 C0.151041333,0 0,0.151041333 0,0.411457333 L0,26.2812493 C0,26.5416667 0.151041333,26.692708 0.447916,26.692708 L16.0520827,26.692708 C16.3124987,26.692708 16.4635413,26.5416667 16.4635413,26.2812493 L16.4635413,24.192708 C16.4635413,23.932292 16.3124987,23.7812493 16.0520827,23.7812493 L3.20833333,23.7812493 Z"></path>
                </g>
            </g>
            <g id="Group" transform="translate(309.487539, 9.040611)" fill="#FFFFFF" fill-rule="nonzero">
                <g transform="translate(-0.000000, 0.000000)" id="Path">
                    <path d="M3.20833333,23.7812493 L3.20833333,14.5989587 L14.6718747,14.5989587 C14.9322907,14.5989587 15.0833333,14.447916 15.0833333,14.1510413 L15.0833333,12.0989587 C15.0833333,11.7968747 14.9322907,11.6510413 14.6718747,11.6510413 L3.20833333,11.6510413 L3.20833333,2.91145733 L15.5312493,2.91145733 C15.7916667,2.91145733 15.9374987,2.76562533 15.9374987,2.505208 L15.9374987,0.411457333 C15.9374987,0.151041333 15.7916667,0 15.5312493,0 L0.447916,0 C0.151041333,0 0,0.151041333 0,0.411457333 L0,26.2812493 C0,26.5416667 0.151041333,26.692708 0.447916,26.692708 L16.0520827,26.692708 C16.3124987,26.692708 16.4635413,26.5416667 16.4635413,26.2812493 L16.4635413,24.192708 C16.4635413,23.932292 16.3124987,23.7812493 16.0520827,23.7812493 L3.20833333,23.7812493 Z"></path>
                </g>
            </g>
            <g id="Group" transform="translate(330.353932, 9.040611)" fill="#FFFFFF" fill-rule="nonzero">
                <g id="Shape">
                    <path d="M9.40624933,0 L0.411457333,0 C0.151041333,0 0,0.151041333 0,0.411457333 L0,26.2812493 C0,26.5416667 0.151041333,26.692708 0.411457333,26.692708 L2.760416,26.692708 C3.020832,26.692708 3.17187467,26.5416667 3.17187467,26.2812493 L3.17187467,17.510416 L9.40624933,17.510416 C15.265624,17.510416 18.6666667,14.260416 18.6666667,8.73437467 C18.6666667,3.28645733 15.3072907,0 9.40624933,0 Z M9.072916,14.5625 L3.17187467,14.5625 L3.17187467,2.953124 L9.072916,2.953124 C13.3645827,2.953124 15.453124,4.89062533 15.453124,8.73437467 C15.453124,12.6197907 13.3645827,14.5625 9.072916,14.5625 Z"></path>
                </g>
            </g>
            <g id="Group" transform="translate(115.912574, 45.629149)" fill="#FFFFFF" fill-rule="nonzero">
                <g id="Path">
                    <path d="M19.2886682,19.8645827 C19.2886682,14.5625 14.8876269,12.994792 9.91887753,11.875 C6.00221086,10.9791667 3.38762686,9.96875067 3.38762686,7.130208 C3.38762686,4.40624933 5.88762686,2.95312533 9.43450286,2.95312533 C12.0126269,3.02604133 14.3980442,3.8125 16.6792935,5.380208 C16.9032522,5.52604133 17.1272109,5.52604133 17.2730442,5.302084 L18.5074189,3.54687467 C18.6584602,3.36458267 18.6584602,3.14062533 18.3928362,2.98958267 C15.5595029,0.9375 13.0178362,0 9.69491886,0 C4.58033486,0 0.179293531,2.130208 0.179293531,7.057292 C0.179293531,12.0208333 4.58033486,13.927084 9.10116953,14.932292 C13.3563775,15.869792 16.0803349,16.8385413 16.0803349,19.9375 C16.0803349,23.072916 13.0178362,24.4895827 9.62200153,24.4895827 C6.81991886,24.4531253 4.50741886,23.447916 1.93450286,21.505208 C1.74700153,21.3541667 1.5230442,21.3906253 1.37200153,21.6145827 L0.101169531,23.369792 C-0.0446651359,23.5937507 -0.0446651359,23.7812493 0.179293531,23.9687507 C3.12721086,26.3593747 5.81471086,27.5156253 9.51262686,27.5156253 C14.7730442,27.5156253 19.2886682,25.197916 19.2886682,19.8645827 Z"></path>
                </g>
            </g>
            <g id="Group" transform="translate(139.346321, 46.040608)" fill="#FFFFFF" fill-rule="nonzero">
                <g id="Path">
                    <path d="M0.447916,26.692708 L14.9322907,26.692708 C15.192708,26.692708 15.3437493,26.5416667 15.3437493,26.2812493 L15.3437493,24.192708 C15.3437493,23.932292 15.192708,23.7812493 14.9322907,23.7812493 L3.20833333,23.7812493 L3.20833333,0.411457333 C3.20833333,0.151041333 3.06249867,0 2.79687467,0 L0.447916,0 C0.151041333,0 0,0.151041333 0,0.411457333 L0,26.2812493 C0,26.5416667 0.151041333,26.692708 0.447916,26.692708 Z"></path>
                </g>
            </g>
            <g id="Group" transform="translate(157.711715, 46.040608)" fill="#FFFFFF" fill-rule="nonzero">
                <g id="Path">
                    <path d="M3.20833333,23.7812493 L3.20833333,14.5989587 L14.6718747,14.5989587 C14.9322907,14.5989587 15.0833333,14.447916 15.0833333,14.1510413 L15.0833333,12.0989587 C15.0833333,11.7968747 14.9322907,11.6510413 14.6718747,11.6510413 L3.20833333,11.6510413 L3.20833333,2.91145733 L15.5312493,2.91145733 C15.7916667,2.91145733 15.9374987,2.76562533 15.9374987,2.505208 L15.9374987,0.411457333 C15.9374987,0.151041333 15.7916667,0 15.5312493,0 L0.447916,0 C0.151041333,0 0,0.151041333 0,0.411457333 L0,26.2812493 C0,26.5416667 0.151041333,26.692708 0.447916,26.692708 L16.0520827,26.692708 C16.3124987,26.692708 16.4635413,26.5416667 16.4635413,26.2812493 L16.4635413,24.192708 C16.4635413,23.932292 16.3124987,23.7812493 16.0520827,23.7812493 L3.20833333,23.7812493 Z"></path>
                </g>
            </g>
            <g id="Group" transform="translate(178.578100, 46.040608)" fill="#FFFFFF" fill-rule="nonzero">
                <g id="Path">
                    <path d="M3.20833333,23.7812493 L3.20833333,14.5989587 L14.6718747,14.5989587 C14.9322907,14.5989587 15.0833333,14.447916 15.0833333,14.1510413 L15.0833333,12.0989587 C15.0833333,11.7968747 14.9322907,11.6510413 14.6718747,11.6510413 L3.20833333,11.6510413 L3.20833333,2.91145733 L15.5312493,2.91145733 C15.7916667,2.91145733 15.9374987,2.76562533 15.9374987,2.505208 L15.9374987,0.411457333 C15.9374987,0.151041333 15.7916667,0 15.5312493,0 L0.447916,0 C0.151041333,0 0,0.151041333 0,0.411457333 L0,26.2812493 C0,26.5416667 0.151041333,26.692708 0.447916,26.692708 L16.0520827,26.692708 C16.3124987,26.692708 16.4635413,26.5416667 16.4635413,26.2812493 L16.4635413,24.192708 C16.4635413,23.932292 16.3124987,23.7812493 16.0520827,23.7812493 L3.20833333,23.7812493 Z"></path>
                </g>
            </g>
            <g id="Group" transform="translate(199.444484, 46.040608)" fill="#FFFFFF" fill-rule="nonzero">
                <g id="Shape">
                    <path d="M9.40624933,0 L0.411457333,0 C0.151041333,0 0,0.151041333 0,0.411457333 L0,26.2812493 C0,26.5416667 0.151041333,26.692708 0.411457333,26.692708 L2.760416,26.692708 C3.020832,26.692708 3.17187467,26.5416667 3.17187467,26.2812493 L3.17187467,17.510416 L9.40624933,17.510416 C15.265624,17.510416 18.6666667,14.260416 18.6666667,8.73437467 C18.6666667,3.28645733 15.3072907,0 9.40624933,0 Z M9.072916,14.5625 L3.17187467,14.5625 L3.17187467,2.953124 L9.072916,2.953124 C13.3645827,2.953124 15.453124,4.89062533 15.453124,8.73437467 C15.453124,12.6197907 13.3645827,14.5625 9.072916,14.5625 Z"></path>
                </g>
            </g>
            <g id="Group" transform="translate(228.784319, 45.629149)" fill="#FFFFFF" fill-rule="nonzero">
                <g id="Path">
                    <path d="M18.2916667,24.677084 C18.552084,24.4895827 18.552084,24.302084 18.4010427,24.0416667 L17.171876,22.3281253 C17.0208347,22.0625 16.796876,22.0260413 16.609376,22.2135413 C14.6302093,23.744792 12.1666667,24.5260413 9.744792,24.5260413 C5.52604267,24.5260413 3.171876,22.0625 3.171876,18.255208 L3.171876,9.26041733 C3.171876,5.45312533 5.484376,2.98958267 9.70312533,2.98958267 C11.8333333,2.98958267 14.109376,3.66145867 15.9375013,5.005208 C16.2031253,5.15624933 16.427084,5.15624933 16.5729173,4.932292 L17.7708347,3.177084 C17.9166667,2.95312533 17.9166667,2.76562533 17.6927093,2.61458267 C15.3802093,0.901041333 12.5416667,0 9.744792,0 C4.364584,0 0,3.09895867 0,9.26041733 L0,18.2968747 C0,24.4166667 4.32812533,27.5156253 9.81770933,27.5156253 C12.802084,27.5156253 15.9010427,26.6562493 18.2916667,24.677084 Z"></path>
                </g>
            </g>
            <g id="Group" transform="translate(249.912884, 45.629149)" fill="#FFFFFF" fill-rule="nonzero">
                <g id="Shape">
                    <path d="M20.380208,17.7343747 L20.380208,9.85937467 C20.380208,3.73437467 16.5,0 10.1875,0 C3.880208,0 8.8817842e-16,3.73437467 8.8817842e-16,9.85937467 L8.8817842e-16,17.7343747 C8.8817842e-16,23.744792 3.880208,27.5156253 10.1875,27.5156253 C16.5,27.5156253 20.380208,23.744792 20.380208,17.7343747 Z M3.20833333,17.7343747 L3.20833333,9.85937467 C3.20833333,5.48958267 5.74479067,2.95312533 10.1875,2.95312533 C14.630208,2.95312533 17.135416,5.48958267 17.135416,9.85937467 L17.135416,17.7343747 C17.135416,21.9531253 14.630208,24.4895827 10.1875,24.4895827 C5.74479067,24.4895827 3.20833333,21.9531253 3.20833333,17.7343747 Z"></path>
                </g>
            </g>
            <g id="Group" transform="translate(275.257741, 46.040608)" fill="#FFFFFF" fill-rule="nonzero">
                <g id="Path">
                    <path d="M0.447916,26.692708 L2.72395733,26.692708 C2.98437467,26.692708 3.17187467,26.5416667 3.17187467,26.2812493 L3.17187467,14.9687493 C3.17187467,12.0208333 3.06249867,8.17708267 2.947916,5.22916667 L3.020832,5.192708 C3.95833333,6.98437467 5.18749867,9.10937467 6.270832,10.8645827 L16.0885413,26.432292 C16.203124,26.6197913 16.385416,26.692708 16.6093747,26.692708 L19.2239573,26.692708 C19.4843747,26.692708 19.635416,26.5416667 19.635416,26.2812493 L19.635416,0.411457333 C19.635416,0.151041333 19.4843747,0 19.2239573,0 L16.9114573,0 C16.6510413,0 16.5,0.151041333 16.5,0.411457333 L16.5,11.7239587 C16.5,14.8593747 16.572916,18.7395827 16.7239573,21.8385413 L16.6093747,21.875 C15.6770827,20.125 14.4843747,18.1458333 13.4739573,16.4270827 L3.58333333,0.302082667 C3.46874933,0.114582667 3.24479067,0 3.06249867,0 L0.447916,0 C0.151041333,0 0,0.151041333 0,0.411457333 L0,26.2812493 C0,26.5416667 0.151041333,26.692708 0.447916,26.692708 Z"></path>
                </g>
            </g>
            <g id="Group" transform="translate(299.230646, 45.629149)" fill="#FFFFFF" fill-rule="nonzero">
                <g transform="translate(-0.000000, 0.000000)" id="Path">
                    <path d="M19.2886682,19.8645827 C19.2886682,14.5625 14.8876269,12.994792 9.91887753,11.875 C6.00221086,10.9791667 3.38762686,9.96875067 3.38762686,7.130208 C3.38762686,4.40624933 5.88762686,2.95312533 9.43450286,2.95312533 C12.0126269,3.02604133 14.3980442,3.8125 16.6792935,5.380208 C16.9032522,5.52604133 17.1272109,5.52604133 17.2730442,5.302084 L18.5074189,3.54687467 C18.6584602,3.36458267 18.6584602,3.14062533 18.3928362,2.98958267 C15.5595029,0.9375 13.0178362,0 9.69491886,0 C4.58033486,0 0.179293531,2.130208 0.179293531,7.057292 C0.179293531,12.0208333 4.58033486,13.927084 9.10116953,14.932292 C13.3563775,15.869792 16.0803349,16.8385413 16.0803349,19.9375 C16.0803349,23.072916 13.0178362,24.4895827 9.62200153,24.4895827 C6.81991886,24.4531253 4.50741886,23.447916 1.93450286,21.505208 C1.74700153,21.3541667 1.5230442,21.3906253 1.37200153,21.6145827 L0.101169531,23.369792 C-0.0446651359,23.5937507 -0.0446651359,23.7812493 0.179293531,23.9687507 C3.12721086,26.3593747 5.81471086,27.5156253 9.51262686,27.5156253 C14.7730442,27.5156253 19.2886682,25.197916 19.2886682,19.8645827 Z"></path>
                </g>
            </g>
            <g id="Group" transform="translate(322.440427, 46.040608)" fill="#FFFFFF" fill-rule="nonzero">
                <g id="Path">
                    <path d="M19.5989587,17.5833333 L19.5989587,0.411457333 C19.5989587,0.151041333 19.4114573,0 19.1510413,0 L16.760416,0 C16.5,0 16.3489587,0.151041333 16.3489587,0.411457333 L16.3489587,17.3593747 C16.3489587,21.578124 13.9583333,24.1562493 9.78124933,24.1562493 C5.59895867,24.1562493 3.24479067,21.578124 3.24479067,17.3593747 L3.24479067,0.411457333 C3.24479067,0.151041333 3.09895867,0 2.83854133,0 L0.447916,0 C0.1875,0 5.92118946e-16,0.151041333 5.92118946e-16,0.411457333 L5.92118946e-16,17.5833333 C5.92118946e-16,23.260416 3.807292,27.1041667 9.78124933,27.1041667 C15.7916667,27.1041667 19.5989587,23.260416 19.5989587,17.5833333 Z"></path>
                </g>
            </g>
            <g id="Group" transform="translate(347.711533, 46.040608)" fill="#FFFFFF" fill-rule="nonzero">
                <g id="Path">
                    <path d="M0.447916,26.692708 L14.9322907,26.692708 C15.192708,26.692708 15.3437493,26.5416667 15.3437493,26.2812493 L15.3437493,24.192708 C15.3437493,23.932292 15.192708,23.7812493 14.9322907,23.7812493 L3.20833333,23.7812493 L3.20833333,0.411457333 C3.20833333,0.151041333 3.06249867,0 2.79687467,0 L0.447916,0 C0.151041333,0 0,0.151041333 0,0.411457333 L0,26.2812493 C0,26.5416667 0.151041333,26.692708 0.447916,26.692708 Z"></path>
                </g>
            </g>
            <g id="Group" transform="translate(363.201920, 46.040608)" fill="#FFFFFF" fill-rule="nonzero">
                <g id="Path">
                    <path d="M19.5989573,0 L0.411457333,0 C0.151041333,0 0,0.151041333 0,0.411457333 L0,2.505208 C0,2.76562533 0.151041333,2.91145733 0.411457333,2.91145733 L8.40104133,2.91145733 L8.40104133,26.2812493 C8.40104133,26.5416667 8.58854133,26.692708 8.84895733,26.692708 L11.1614573,26.692708 C11.4218747,26.692708 11.6093747,26.5416667 11.6093747,26.2812493 L11.6093747,2.91145733 L19.5989573,2.91145733 C19.8593747,2.91145733 20.0468747,2.76562533 20.0468747,2.505208 L20.0468747,0.411457333 C20.0468747,0.151041333 19.8593747,0 19.5989573,0 Z"></path>
                </g>
            </g>
            <g id="Group" transform="translate(386.271408, 46.040608)" fill="#FFFFFF" fill-rule="nonzero">
                <g transform="translate(-0.000000, 0.000000)" id="Path">
                    <path d="M3.17187467,26.2812493 L3.17187467,0.411457333 C3.17187467,0.151041333 3.020832,0 2.760416,0 L0.447916,0 C0.151041333,0 0,0.151041333 0,0.411457333 L0,26.2812493 C0,26.5416667 0.151041333,26.692708 0.447916,26.692708 L2.760416,26.692708 C3.020832,26.692708 3.17187467,26.5416667 3.17187467,26.2812493 Z"></path>
                </g>
            </g>
            <g id="Group" transform="translate(395.342055, 46.040608)" fill="#FFFFFF" fill-rule="nonzero">
                <g id="Path">
                    <path d="M0.447916,26.692708 L2.72395733,26.692708 C2.98437467,26.692708 3.17187467,26.5416667 3.17187467,26.2812493 L3.17187467,14.9687493 C3.17187467,12.0208333 3.06249867,8.17708267 2.947916,5.22916667 L3.020832,5.192708 C3.95833333,6.98437467 5.18749867,9.10937467 6.270832,10.8645827 L16.0885413,26.432292 C16.203124,26.6197913 16.385416,26.692708 16.6093747,26.692708 L19.2239573,26.692708 C19.4843747,26.692708 19.635416,26.5416667 19.635416,26.2812493 L19.635416,0.411457333 C19.635416,0.151041333 19.4843747,0 19.2239573,0 L16.9114573,0 C16.6510413,0 16.5,0.151041333 16.5,0.411457333 L16.5,11.7239587 C16.5,14.8593747 16.572916,18.7395827 16.7239573,21.8385413 L16.6093747,21.875 C15.6770827,20.125 14.4843747,18.1458333 13.4739573,16.4270827 L3.58333333,0.302082667 C3.46874933,0.114582667 3.24479067,0 3.06249867,0 L0.447916,0 C0.151041333,0 0,0.151041333 0,0.411457333 L0,26.2812493 C0,26.5416667 0.151041333,26.692708 0.447916,26.692708 Z"></path>
                </g>
            </g>
            <g id="Group" transform="translate(419.978628, 45.629149)" fill="#FFFFFF" fill-rule="nonzero">
                <g id="Path">
                    <path d="M19.296876,23.744792 C19.4114587,23.630208 19.4479173,23.4843747 19.4479173,23.2604173 L19.4479173,12.9583333 C19.4479173,12.692708 19.296876,12.5468747 19.0364587,12.5468747 L10.1927093,12.5468747 C9.927084,12.5468747 9.78125067,12.692708 9.78125067,12.9583333 L9.78125067,15.0468747 C9.78125067,15.307292 9.927084,15.4583333 10.1927093,15.4583333 L16.3125013,15.4583333 L16.3125013,22.4010413 C14.8177093,23.6718747 12.5781253,24.4895827 10.0052093,24.4895827 C6.01041733,24.4895827 3.171876,22.3281253 3.171876,18.255208 L3.171876,9.29687467 C3.171876,5.22916667 5.78645867,2.98958267 9.744792,2.98958267 C12.3177093,2.98958267 14.7812507,3.73437467 16.875,5.11458267 C17.0989587,5.22916667 17.2812507,5.22916667 17.432292,5.005208 L18.7031253,3.25 C18.8489587,3.0625 18.8489587,2.802084 18.5885427,2.65104133 C16.0885427,0.9375 12.8802093,0 9.744792,0 C4.364584,0 0,3.09895867 0,9.22395867 L0,18.255208 C0,24.380208 4.51562533,27.5156253 10.0052093,27.5156253 C13.8854173,27.5156253 17.0989587,26.0208333 19.296876,23.744792 Z"></path>
                </g>
            </g>
            <g id="Group" transform="translate(114.362701, 84.024988)" fill="#E2EDF9" fill-rule="nonzero">
                <g id="Shape">
                    <path d="M10.2239587,11.4479173 C9.81770933,12.5312507 9.17187467,13.2239587 8.44791733,13.5833333 C8.69270933,12.864584 8.83333333,12.0989587 8.83333333,11.307292 C8.83333333,8.83333333 7.53645867,7.53645867 5.78645867,7.53645867 C4.057292,7.53645867 2.83333333,8.85937467 2.83333333,10.8281253 C2.83333333,13.010416 4.177084,14.5208333 5.83333333,15 C5.47395867,15.3593747 5.02083333,15.6041667 4.53645867,15.6041667 C3.33854133,15.6041667 2.08854133,14.307292 2.08854133,10.3437493 C2.08854133,8.97916667 2.20833333,7.72916667 2.427084,6.60416667 C2.69270933,6.625 2.932292,6.625 3.21875067,6.625 C6.57812533,6.625 8.76041733,4.53645867 8.76041733,2.47395867 C8.76041733,1.10416667 7.682292,0 6.09895867,0 C3.9375,0 2.1875,1.80208267 1.25,4.875 C1.057292,4.80208267 0.890625333,4.755208 0.723958667,4.755208 C0.291666667,4.755208 3.33066907e-16,5.08854133 3.33066907e-16,5.44791733 C3.33066907e-16,5.739584 0.192709333,6.05208267 0.651042667,6.21874933 C0.723958667,6.239584 0.817709333,6.26562533 0.890625333,6.3125 C0.651042667,7.5625 0.505208,9 0.505208,10.5625 C0.505208,15.2656253 2.32812533,17.0885416 4.44270933,17.0885416 C5.76041733,17.0885416 6.91666667,16.3229173 7.682292,15.1458333 C9.17187467,14.9531253 10.6354173,13.9218747 11.380208,11.9531253 C11.427084,11.8333333 11.4479173,11.739584 11.4479173,11.6406253 C11.4479173,11.255208 11.1406253,10.994792 10.8281253,10.994792 C10.5885413,10.994792 10.3489587,11.135416 10.2239587,11.4479173 Z M6.052084,1.489584 C6.744792,1.489584 7.20312533,1.94791733 7.20312533,2.59374933 C7.20312533,3.77083333 5.78645867,5.1875 3.38541733,5.1875 C3.17187467,5.1875 2.97916667,5.1875 2.78645867,5.16145867 C3.505208,2.90625067 4.682292,1.489584 6.052084,1.489584 Z M4.32291733,10.8958333 C4.32291733,9.77083333 4.994792,9.02604133 5.739584,9.02604133 C6.552084,9.02604133 7.25,9.69791733 7.25,11.1614587 C7.25,12 7.03645867,13.010416 6.65104267,13.8281253 C5.35416667,13.5364587 4.32291733,12.385416 4.32291733,10.8958333 Z"></path>
                </g>
            </g>
            <g id="Group" transform="translate(124.156499, 91.108321)" fill="#E2EDF9" fill-rule="nonzero">
                <g id="Shape">
                    <path d="M10.2708333,4.364584 C9.69791733,5.880208 8.614584,7.89583333 7.53645867,8.92708267 C7.53645867,8.82812533 7.5625,8.760416 7.5625,8.6875 C7.75520933,6.619792 7.921876,3.692708 8.114584,1.15104133 C8.16145867,0.552082667 7.75520933,0.260416 7.34375067,0.260416 C6.95833333,0.260416 6.552084,0.526041333 6.52604133,1.03125067 C6.47916667,1.942708 6.40625067,2.94791733 6.33854267,4.005208 C5.927084,7.07812533 4.177084,8.494792 2.95312533,8.494792 C2.13541733,8.494792 1.72916667,8.0625 1.72916667,7.17187467 C1.72916667,5.78125067 2.302084,3.40625067 2.302084,1.65625067 C2.302084,0.765625333 1.60937467,0 0.770833333,0 C0.3125,0 3.70074342e-16,0.286458667 3.70074342e-16,0.692708 C3.70074342e-16,1.317708 0.697917333,1.244792 0.697917333,2.135416 C0.697917333,3.3125 0.145833333,5.42187467 0.145833333,7.27083333 C0.145833333,8.90104133 1.25,9.98437493 2.83333333,9.98437493 C3.864584,9.98437493 5.04166667,9.33333333 6,7.89583333 C6,8.182292 5.97916667,8.42187467 5.95312533,8.6875 C5.927084,9.119792 5.88020933,9.5 5.85416667,9.88541667 C3.28645867,11.182292 1.77604133,12.239584 1.77604133,13.9687493 C1.77604133,15.0729173 2.66666667,15.9583333 4.057292,15.9583333 C5.97916667,15.9583333 7.03125067,14.0885413 7.32291733,11.3281253 C7.34375067,11.182292 7.34375067,11.0364587 7.369792,10.869792 C9.26562533,9.432292 10.5625,7.22395867 11.427084,4.869792 C11.4739587,4.75 11.494792,4.65625067 11.494792,4.557292 C11.494792,4.15104133 11.182292,3.885416 10.875,3.885416 C10.6562507,3.885416 10.4166667,4.03125067 10.2708333,4.364584 Z M4.057292,14.4687493 C3.625,14.4687493 3.33854267,14.2083333 3.33854267,13.7968747 C3.33854267,13.0520827 4.177084,12.3333333 5.66666667,11.5416667 C5.40104133,13.6041667 4.96875067,14.4687493 4.057292,14.4687493 Z"></path>
                </g>
            </g>
            <g id="Group" transform="translate(139.879581, 84.144780)" fill="#E2EDF9" fill-rule="nonzero">
                <g id="Shape">
                    <path d="M12.307292,11.3281253 C11.1354173,14.260416 10.317708,15.505208 9.380208,15.505208 C8.10937467,15.505208 6.26041733,14.5 4.60416667,14.5 C4.244792,14.5 3.619792,14.5208333 3.04687467,14.6666667 C4.557292,12.817708 5.01562533,10.7083333 5.51562533,6 C5.51562533,5.95312533 5.51562533,5.90624933 5.54166667,5.85937467 L5.82812533,5.85937467 C8.302084,5.85937467 10.197916,4.25 10.197916,2.20833333 C10.197916,0.911458667 9.23958267,0 7.89583333,0 C6.04687467,0 4.75,1.369792 4.15104133,3.98437467 C3.21354133,3.53124933 2.494792,2.6875 2.22916667,1.53645867 C2.10937467,1.010416 1.822916,0.843749333 1.48437467,0.843749333 C1.07812533,0.843749333 0.739582667,1.15624933 0.739582667,1.635416 C0.739582667,3.17187467 2.0625,4.77604133 3.88541733,5.47395733 C3.85937467,5.619792 3.85937467,5.73958267 3.83854133,5.85937467 C3.28645867,11.260416 2.63541733,13.1770827 0.380208,15.2187493 C0.140625333,15.4322907 0,15.7239573 0,16.010416 C0,16.4635413 0.380208,16.8281247 0.859374667,16.8281247 C0.979166667,16.8281247 1.17187467,16.7760413 1.41145867,16.6822907 C2.58854133,16.2031253 3.35937467,16.0572907 4.36458267,16.0572907 C5.73437467,16.0572907 8.08333333,17.0156247 9.28645867,17.0156247 C11.1093747,17.0156247 12.1666667,15.3125 13.4635413,11.8333333 C13.5104173,11.7135413 13.5312493,11.5937493 13.5312493,11.4739573 C13.5312493,11.067708 13.244792,10.8281253 12.932292,10.8281253 C12.692708,10.8281253 12.4531253,10.9687493 12.307292,11.3281253 Z M7.70312533,1.53645867 C8.20312533,1.53645867 8.54166667,1.875 8.54166667,2.380208 C8.54166667,3.48437467 7.34375067,4.34374933 5.807292,4.34374933 L5.755208,4.34374933 C6.14062533,2.47395733 6.79166667,1.53645867 7.70312533,1.53645867 Z"></path>
                </g>
            </g>
            <g id="Group" transform="translate(152.094955, 88.368737)" fill="#E2EDF9" fill-rule="nonzero">
                <g id="Shape">
                    <path d="M1.72395733,1.875 C2.255208,1.875 2.66145733,1.46354267 2.66145733,0.937501333 C2.66145733,0.411458667 2.255208,0 1.72395733,0 C1.197916,0 0.791666667,0.411458667 0.791666667,0.937501333 C0.791666667,1.46354267 1.197916,1.875 1.72395733,1.875 Z M2.46874933,12.7916673 C3.93229067,12.7916673 5.18229067,11.2604173 6.52604133,7.609376 C6.572916,7.489584 6.59895733,7.369792 6.59895733,7.27604267 C6.59895733,6.864584 6.31249867,6.57812533 6,6.57812533 C5.760416,6.57812533 5.515624,6.744792 5.375,7.104168 C4.197916,10.0104173 3.453124,11.307292 2.66145733,11.307292 C2.08854133,11.307292 1.58333333,10.802084 1.58333333,9.09895867 C1.58333333,8.06770933 1.703124,6.79166667 2.10937467,4.104168 C2.20833333,3.484376 1.79687467,3.119792 1.390624,3.119792 C1.005208,3.119792 0.619790667,3.38541733 0.5,4.03645867 C0.260416,5.38020933 0,7.70833333 0,8.95312533 C0,11.7604173 1.078124,12.7916673 2.46874933,12.7916673 Z"></path>
                </g>
            </g>
            <g id="Group" transform="translate(157.275979, 91.540613)" fill="#E2EDF9" fill-rule="nonzero">
                <g id="Path">
                    <path d="M10.1510413,3.932292 C8.92708267,6.86458267 8.307292,8.03645733 7.682292,8.03645733 C7.322916,8.03645733 7.08333333,7.79687467 7.08333333,7.22395867 C7.08333333,5.6875 7.46354133,3.33333333 7.46354133,2.20833333 C7.46354133,0.885416 6.578124,0 5.255208,0 C4.010416,0 2.83333333,0.718749333 1.92187467,2.08854133 C1.96874933,1.58333333 2.01562533,1.125 2.01562533,0.8125 C2.01562533,0.286457333 1.65624933,0.0208333333 1.27083333,0.0208333333 C0.890625333,0.0208333333 0.479166667,0.3125 0.432292,0.838541333 C0.265625333,2.73437467 -3.70074342e-16,6.86458267 -3.70074342e-16,8.760416 C-3.70074342e-16,9.28645733 0.385416,9.55208293 0.770833333,9.55208293 C1.17708267,9.55208293 1.58333333,9.28645733 1.58333333,8.760416 C1.58333333,7.91666667 1.60937467,7.005208 1.65624933,6.067708 C1.96874933,3.40624933 3.578124,1.46354133 4.875,1.46354133 C5.52083333,1.46354133 5.880208,1.84374933 5.880208,2.58854133 C5.880208,3.40624933 5.49479067,5.58854133 5.49479067,7.078124 C5.49479067,8.73437467 6.28645733,9.52604133 7.442708,9.52604133 C8.807292,9.52604133 9.74479067,8.375 11.307292,4.4375 C11.3541667,4.317708 11.375,4.197916 11.375,4.10416667 C11.375,3.71874933 11.0885413,3.453124 10.7760413,3.453124 C10.5364573,3.453124 10.2968747,3.59895867 10.1510413,3.932292 Z"></path>
                </g>
            </g>
            <g id="Group" transform="translate(167.215121, 84.051029)" fill="#E2EDF9" fill-rule="nonzero">
                <g id="Shape">
                    <path d="M12.1666667,11.421876 C11.2291667,13.677084 10.0520827,15.5052093 9.1875,15.5052093 C8.32812533,15.5052093 7.91666667,13.942708 7.70312533,12.119792 C8.90104133,10.1302093 11.2083333,5.59375067 11.2083333,2.494792 C11.2083333,0.864584 10.390624,0 9.1875,0 C7.55729067,0 6.02083333,1.51041733 6,7.489584 C5.61458267,7.25 5.15624933,7.10416667 4.60416667,7.10416667 C1.822916,7.10416667 0,10.5833333 0,13.4375 C0,15.7656253 1.34374933,17.0625003 3.04687467,17.0625003 C4.55729067,17.0625003 5.85416667,15.9114587 6.59895733,14.4739587 C6.95833333,16.057292 7.869792,16.9895837 8.97395733,16.9895837 C10.8958333,16.9895837 12.260416,14.5416667 13.317708,11.927084 C13.3645827,11.807292 13.390624,11.7135427 13.390624,11.5937507 C13.390624,11.2083333 13.0781253,10.8958333 12.765624,10.8958333 C12.5520827,10.8958333 12.3072907,11.0625 12.1666667,11.421876 Z M9.119792,1.489584 C9.43229067,1.489584 9.64583333,1.70312533 9.64583333,2.44791733 C9.64583333,3.552084 8.82812533,7.07812533 7.55729067,9.64583333 C7.53645867,9.09375067 7.53645867,8.59375067 7.53645867,8.16145867 C7.53645867,2.52083333 8.567708,1.489584 9.119792,1.489584 Z M3.1875,15.5781253 C2.22916667,15.5781253 1.58333333,14.9010413 1.58333333,13.3437507 C1.58333333,11.2812507 2.85416667,8.54166667 4.79687467,8.54166667 C5.6875,8.54166667 6.28645867,9.239584 6.28645867,10.5833333 C6.28645867,13.6302093 4.48437467,15.5781253 3.1875,15.5781253 Z"></path>
                </g>
            </g>
            <g id="Group" transform="translate(179.307709, 90.243737)" fill="#E2EDF9" fill-rule="nonzero">
                <g id="Path">
                    <path d="M8.08854267,5.229168 C7.609376,6.359376 7.03125067,7.39062533 6.19270933,8.109376 C6.21875067,7.989584 6.21875067,7.869792 6.21875067,7.75 C6.21875067,5.46875067 3.552084,3.07291733 3.552084,2.08854267 C3.552084,1.63020933 4.01041733,1.43750133 4.01041733,0.937501333 C4.01041733,0.333333333 3.432292,0 2.859376,0 C2.20833333,0 1.51562533,0.453125333 1.489584,1.484376 C1.03125067,2.807292 0.479168,4.244792 0.0729173333,5.229168 C0.0260426667,5.32812533 -4.4408921e-16,5.44791733 -4.4408921e-16,5.54166667 C-4.4408921e-16,5.90104267 0.312501333,6.19270933 0.651042667,6.19270933 C0.864584,6.19270933 1.104168,6.046876 1.22395867,5.734376 C1.53645867,4.96875067 1.84895867,4.125 2.20833333,3.14062533 C3.14583467,4.58333333 4.63541733,6.45312533 4.63541733,7.75 C4.63541733,8.375 4.39583467,8.854168 3.984376,9.09375067 C3.77083467,9.119792 3.552084,9.14062533 3.33854267,9.14062533 C2.83333333,9.14062533 2.427084,9.046876 1.94270933,8.854168 C1.802084,8.807292 1.682292,8.78125067 1.56250133,8.78125067 C1.104168,8.78125067 0.817709333,9.119792 0.817709333,9.52604267 C0.817709333,9.81250133 0.963542667,10.125 1.296876,10.364584 C1.77604267,10.7031256 2.44791733,10.895834 3.119792,10.895834 C3.84375067,10.895834 4.56250133,10.677084 5.13541733,10.244792 C6.864584,9.64583467 8.20833333,8.28125067 9.239584,5.734376 C9.29166667,5.614584 9.31250133,5.494792 9.31250133,5.375 C9.31250133,4.989584 9.02604267,4.729168 8.71354267,4.729168 C8.47395867,4.729168 8.234376,4.869792 8.08854267,5.229168 Z"></path>
                </g>
            </g>
            <g id="Group" transform="translate(187.183061, 91.394780)" fill="#E2EDF9" fill-rule="nonzero">
                <g id="Shape">
                    <path d="M11.255208,4.07812533 C10.1041667,6.9375 9.33333333,8.28124933 8.70833333,8.28124933 C8.20833333,8.28124933 7.822916,7.869792 7.822916,6.47916667 C7.822916,4.130208 8.15624933,1.317708 8.15624933,0.817708 C8.15624933,0.3125 7.822916,0 7.41145867,0 C7.005208,0 6.692708,0.3125 6.52604133,0.791666667 C5.90104133,0.333333333 5.135416,0.119792 4.510416,0.119792 C2.255208,0.119792 -3.70074342e-16,2.40104133 -3.70074342e-16,5.73437467 C-3.70074342e-16,8.30208267 1.4375,9.76562467 3.28645867,9.76562467 C4.36458267,9.76562467 5.447916,9.265624 6.40624933,7.80208267 C6.765624,9.119792 7.53645867,9.76562467 8.61458267,9.76562467 C10.005208,9.76562467 11.0833333,8.18229067 12.4062493,4.58333333 C12.4531253,4.46354133 12.4791667,4.34374933 12.4791667,4.25 C12.4791667,3.86458267 12.1875,3.59895733 11.880208,3.59895733 C11.635416,3.59895733 11.3958333,3.744792 11.255208,4.07812533 Z M3.52604133,8.28124933 C2.39583333,8.28124933 1.58333333,7.46354133 1.58333333,5.66145867 C1.58333333,3.16666667 3.1875,1.53645867 4.79687467,1.53645867 C5.494792,1.53645867 6.1875,1.92187467 6.40624933,2.255208 C6.45312533,6.02604133 5.20833333,8.28124933 3.52604133,8.28124933 Z"></path>
                </g>
            </g>
            <g id="Group" transform="translate(198.004272, 91.108321)" fill="#E2EDF9" fill-rule="nonzero">
                <g id="Shape">
                    <path d="M10.2708333,4.364584 C9.69791733,5.880208 8.614584,7.89583333 7.53645867,8.92708267 C7.53645867,8.82812533 7.5625,8.760416 7.5625,8.6875 C7.75520933,6.619792 7.921876,3.692708 8.114584,1.15104133 C8.16145867,0.552082667 7.75520933,0.260416 7.34375067,0.260416 C6.95833333,0.260416 6.552084,0.526041333 6.52604133,1.03125067 C6.47916667,1.942708 6.40625067,2.94791733 6.33854267,4.005208 C5.927084,7.07812533 4.177084,8.494792 2.95312533,8.494792 C2.13541733,8.494792 1.72916667,8.0625 1.72916667,7.17187467 C1.72916667,5.78125067 2.302084,3.40625067 2.302084,1.65625067 C2.302084,0.765625333 1.60937467,0 0.770833333,0 C0.3125,0 3.70074342e-16,0.286458667 3.70074342e-16,0.692708 C3.70074342e-16,1.317708 0.697917333,1.244792 0.697917333,2.135416 C0.697917333,3.3125 0.145833333,5.42187467 0.145833333,7.27083333 C0.145833333,8.90104133 1.25,9.98437493 2.83333333,9.98437493 C3.864584,9.98437493 5.04166667,9.33333333 6,7.89583333 C6,8.182292 5.97916667,8.42187467 5.95312533,8.6875 C5.927084,9.119792 5.88020933,9.5 5.85416667,9.88541667 C3.28645867,11.182292 1.77604133,12.239584 1.77604133,13.9687493 C1.77604133,15.0729173 2.66666667,15.9583333 4.057292,15.9583333 C5.97916667,15.9583333 7.03125067,14.0885413 7.32291733,11.3281253 C7.34375067,11.182292 7.34375067,11.0364587 7.369792,10.869792 C9.26562533,9.432292 10.5625,7.22395867 11.427084,4.869792 C11.4739587,4.75 11.494792,4.65625067 11.494792,4.557292 C11.494792,4.15104133 11.182292,3.885416 10.875,3.885416 C10.6562507,3.885416 10.4166667,4.03125067 10.2708333,4.364584 Z M4.057292,14.4687493 C3.625,14.4687493 3.33854267,14.2083333 3.33854267,13.7968747 C3.33854267,13.0520827 4.177084,12.3333333 5.66666667,11.5416667 C5.40104133,13.6041667 4.96875067,14.4687493 4.057292,14.4687493 Z"></path>
                </g>
            </g>
            <g id="Group" transform="translate(214.399229, 84.004155)" fill="#E2EDF9" fill-rule="nonzero">
                <g id="Path">
                    <path d="M5.927084,17.2760413 C8.54166667,17.2760413 10.9166667,15.7656253 12.427084,11.9739587 C12.4791667,11.8541667 12.5,11.7604173 12.5,11.6614587 C12.5,11.2760413 12.1875,10.9895827 11.8802093,10.9895827 C11.6614587,10.9895827 11.421876,11.1354173 11.2760413,11.4687507 C9.95833333,14.5885413 8.08333333,15.7656253 6.067708,15.7656253 C3.619792,15.7656253 1.677084,13.822916 1.677084,10.4375 C1.677084,6.21354133 4.125,1.51041733 7.19791733,1.51041733 C8.34895867,1.51041733 9,2.15624933 9,3.072916 C9,3.98437467 8.494792,4.557292 8.494792,5.20833333 C8.494792,5.54166667 8.73437467,5.78124933 9.16666667,5.78124933 C9.5,5.78124933 9.76562533,5.54166667 9.97916667,5.20833333 C10.364584,4.58333333 10.557292,3.59895867 10.557292,3.02083333 C10.557292,1.27083333 9.26041733,0 7.22395867,0 C2.94791733,0 2.96059473e-16,5.447916 2.96059473e-16,10.317708 C2.96059473e-16,14.8281253 2.567708,17.2760413 5.927084,17.2760413 Z"></path>
                </g>
            </g>
            <g id="Group" transform="translate(225.410851, 91.274988)" fill="#E2EDF9" fill-rule="nonzero">
                <g id="Shape">
                    <path d="M9.89062533,4.19791733 C9.41145867,5.32812533 8.78645867,6.02604133 7.96875067,6.28645867 C8.1875,5.66145867 8.28125067,4.942708 8.28125067,4.19791733 C8.28125067,2.20833333 7.39583333,0.791666667 6.21875067,0.333333333 C5.78645867,0.166666667 5.13541733,0 4.5625,0 C2.01562533,0 0,2.494792 0,5.71354133 C0,8.255208 1.41666667,9.8385416 3.625,9.8385416 C5.16145867,9.8385416 6.45833333,9.04687467 7.296876,7.77604133 C8.8125,7.65625067 10.2760413,6.64583333 11.0416667,4.70312533 C11.0885427,4.557292 11.114584,4.41666667 11.114584,4.29687467 C11.114584,3.885416 10.8489587,3.625 10.5364587,3.625 C10.3229173,3.625 10.057292,3.79166667 9.89062533,4.19791733 Z M6.3125,6.35937467 C5.26041733,6.07291733 4.39583333,5.10937467 4.39583333,3.57812533 C4.39583333,2.35416667 4.77604133,1.67708267 5.40104133,1.67708267 C6.21875067,1.67708267 6.69791733,2.66145867 6.69791733,4.22395867 C6.69791733,5.01562533 6.552084,5.760416 6.3125,6.35937467 Z M3.671876,8.35416667 C2.20833333,8.35416667 1.58854267,7.07812533 1.58854267,5.64062533 C1.58854267,4.15104133 2.23437467,2.47395867 3.41145867,1.77604133 C3.119792,2.30208267 2.95312533,2.95312533 2.95312533,3.67187467 C2.95312533,5.6875 4.08333333,7.03125067 5.546876,7.557292 C5.04166667,8.0625 4.39583333,8.35416667 3.671876,8.35416667 Z"></path>
                </g>
            </g>
            <g id="Group" transform="translate(234.987953, 91.347905)" fill="#E2EDF9" fill-rule="nonzero">
                <g id="Path">
                    <path d="M14.5937507,4.125 C14.307292,4.84895733 13.9218747,5.40104133 13.369792,5.40104133 C13.0104173,5.40104133 12.6718747,5.135416 12.4062493,4.630208 C12.625,3.885416 12.744792,3.072916 12.744792,2.255208 C12.744792,0.864582667 12.2395827,0.119790667 11.567708,0.119790667 C10.9218747,0.119790667 10.4166667,0.838541333 10.4166667,2.255208 C10.4166667,3.192708 10.5833333,4.005208 10.8489587,4.65624933 C10.2031253,6.83854133 8.6875,8.10937467 7.875,8.10937467 C7.22395867,8.10937467 6.86458267,7.58333333 6.86458267,6.625 C6.86458267,5.40104133 7.29687467,4.17708267 7.29687467,1.75 C7.29687467,1.17708267 7.03124933,0.885416 6.53124933,0.885416 C6.04687467,0.885416 5.71354133,1.24479067 5.71354133,1.79687467 C5.71354133,2.58854133 5.66666667,3.260416 5.61458267,3.83854133 C5.11458267,7.34374933 3.432292,8.328124 2.6875,8.328124 C2.04166667,8.328124 1.58333333,7.895832 1.58333333,6.645832 C1.58333333,5.40104133 2.13541733,2.567708 2.13541733,1.10416533 C2.13541733,0.312498667 1.92187467,0 1.39062533,0 C0.817708,0 0.552084,0.359374667 0.552084,1.10416533 C0.552084,2.42187467 0,4.91666667 0,6.67187467 C0,8.68749867 1.130208,9.81249933 2.47395867,9.81249933 C3.744792,9.81249933 4.755208,9.04687467 5.494792,7.942708 C5.807292,9.020832 6.552084,9.5989576 7.682292,9.5989576 C9.33854133,9.5989576 10.942708,8.135416 11.880208,6.11979067 C12.3385413,6.505208 12.8645827,6.692708 13.369792,6.692708 C14.4010413,6.692708 15.2656253,5.97395733 15.744792,4.630208 C15.7916667,4.510416 15.817708,4.41666667 15.817708,4.317708 C15.817708,3.91145733 15.505208,3.67187467 15.192708,3.67187467 C14.9531253,3.67187467 14.7135413,3.81249867 14.5937507,4.125 Z"></path>
                </g>
            </g>
            <g id="Group" transform="translate(249.387697, 91.301029)" fill="#E2EDF9" fill-rule="nonzero">
                <g id="Shape">
                    <path d="M9.35937467,4.171876 C8.23437467,7.03125067 6.77083333,8.44791733 4.51562533,8.44791733 C2.97916667,8.44791733 1.72916667,7.39062533 1.60937467,5.375 C2.23437467,5.70833333 3.04687467,5.927084 3.9375,5.927084 C6.04687467,5.927084 7.41666667,4.557292 7.41666667,2.78125067 C7.41666667,1.171876 6.192708,0 4.34374933,0 C1.58333333,0 0,2.494792 0,5.0625 C0,8.25520933 2.01562533,9.932292 4.41666667,9.932292 C7.15104133,9.932292 9.192708,8.20312533 10.5156253,4.677084 C10.5625,4.53125067 10.5833333,4.41145867 10.5833333,4.29166667 C10.5833333,3.88541733 10.2968747,3.64583333 10.010416,3.64583333 C9.77083333,3.64583333 9.505208,3.8125 9.35937467,4.171876 Z M4.34374933,1.48437467 C5.35416667,1.48437467 5.85937467,2.10937467 5.85937467,2.807292 C5.85937467,3.79166667 5.135416,4.60416667 3.83854133,4.60416667 C3.192708,4.60416667 2.375,4.4375 1.682292,4.052084 C1.99479067,2.66145867 2.953124,1.48437467 4.34374933,1.48437467 Z"></path>
                </g>
            </g>
            <g id="Group" transform="translate(258.555665, 91.540613)" fill="#E2EDF9" fill-rule="nonzero">
                <g id="Path">
                    <path d="M10.1510413,3.932292 C8.92708267,6.86458267 8.307292,8.03645733 7.682292,8.03645733 C7.322916,8.03645733 7.08333333,7.79687467 7.08333333,7.22395867 C7.08333333,5.6875 7.46354133,3.33333333 7.46354133,2.20833333 C7.46354133,0.885416 6.578124,0 5.255208,0 C4.010416,0 2.83333333,0.718749333 1.92187467,2.08854133 C1.96874933,1.58333333 2.01562533,1.125 2.01562533,0.8125 C2.01562533,0.286457333 1.65624933,0.0208333333 1.27083333,0.0208333333 C0.890625333,0.0208333333 0.479166667,0.3125 0.432292,0.838541333 C0.265625333,2.73437467 -3.70074342e-16,6.86458267 -3.70074342e-16,8.760416 C-3.70074342e-16,9.28645733 0.385416,9.55208293 0.770833333,9.55208293 C1.17708267,9.55208293 1.58333333,9.28645733 1.58333333,8.760416 C1.58333333,7.91666667 1.60937467,7.005208 1.65624933,6.067708 C1.96874933,3.40624933 3.578124,1.46354133 4.875,1.46354133 C5.52083333,1.46354133 5.880208,1.84374933 5.880208,2.58854133 C5.880208,3.40624933 5.49479067,5.58854133 5.49479067,7.078124 C5.49479067,8.73437467 6.28645733,9.52604133 7.442708,9.52604133 C8.807292,9.52604133 9.74479067,8.375 11.307292,4.4375 C11.3541667,4.317708 11.375,4.197916 11.375,4.10416667 C11.375,3.71874933 11.0885413,3.453124 10.7760413,3.453124 C10.5364573,3.453124 10.2968747,3.59895867 10.1510413,3.932292 Z"></path>
                </g>
            </g>
        </g>
    </g>
</svg>