<svg xmlns="http://www.w3.org/2000/svg" xmlns:xlink="http://www.w3.org/1999/xlink" width="500" zoomAndPan="magnify" viewBox="0 0 375 374.999991" height="500" preserveAspectRatio="xMidYMid meet" version="1.0"><defs><g/><clipPath id="id1"><path d="M 40 213 L 47 213 L 47 228.875 L 40 228.875 Z M 40 213 " clip-rule="nonzero"/></clipPath><clipPath id="id2"><path d="M 71 213 L 78 213 L 78 228.875 L 71 228.875 Z M 71 213 " clip-rule="nonzero"/></clipPath><clipPath id="id3"><path d="M 20.363281 146.375 L 97.613281 146.375 L 97.613281 224 L 20.363281 224 Z M 20.363281 146.375 " clip-rule="nonzero"/></clipPath></defs><rect x="-37.5" width="450" fill="#ffffff" y="-37.499999" height="449.999989" fill-opacity="1"/><rect x="-37.5" width="450" fill="#ffffff" y="-37.499999" height="449.999989" fill-opacity="1"/><rect x="-37.5" width="450" fill="#ffffff" y="-37.499999" height="449.999989" fill-opacity="1"/><rect x="-37.5" width="450" fill="#ffffff" y="-37.499999" height="449.999989" fill-opacity="1"/><g clip-path="url(#id1)"><path fill="#a56a43" d="M 46.382812 217.257812 L 46.382812 227.609375 C 46.382812 228.082031 46.097656 228.507812 45.664062 228.691406 C 45.230469 228.871094 44.730469 228.777344 44.390625 228.445312 C 44.175781 228.21875 43.875 228.089844 43.558594 228.089844 C 43.242188 228.089844 42.945312 228.21875 42.726562 228.445312 C 42.386719 228.777344 41.886719 228.871094 41.453125 228.691406 C 41.019531 228.507812 40.734375 228.082031 40.734375 227.609375 L 40.734375 215.652344 C 42.5 215.667969 44.207031 215.007812 45.507812 213.808594 C 45.503906 215.015625 45.804688 216.199219 46.382812 217.257812 Z M 46.382812 217.257812 " fill-opacity="1" fill-rule="nonzero"/></g><g clip-path="url(#id2)"><path fill="#a56a43" d="M 77.464844 214.945312 L 77.464844 227.609375 C 77.460938 228.082031 77.175781 228.507812 76.742188 228.691406 C 76.308594 228.871094 75.808594 228.777344 75.472656 228.445312 C 75.253906 228.21875 74.953125 228.089844 74.636719 228.089844 C 74.324219 228.089844 74.023438 228.21875 73.804688 228.445312 C 73.46875 228.777344 72.96875 228.871094 72.53125 228.691406 C 72.097656 228.507812 71.816406 228.082031 71.8125 227.609375 L 71.8125 216.546875 C 72.390625 215.492188 72.691406 214.304688 72.6875 213.101562 C 73.992188 214.300781 75.695312 214.960938 77.464844 214.945312 Z M 77.464844 214.945312 " fill-opacity="1" fill-rule="nonzero"/></g><g clip-path="url(#id3)"><path fill="#f9eab0" d="M 97.242188 189.203125 C 96.914062 192.570312 94.265625 195.238281 90.914062 195.570312 C 93.410156 197.839844 93.996094 201.546875 92.324219 204.480469 C 90.65625 207.417969 87.15625 208.761719 83.960938 207.699219 C 85.34375 210.785156 84.382812 214.425781 81.660156 216.417969 C 78.949219 218.410156 75.214844 218.210938 72.730469 215.9375 C 72.722656 217.144531 72.40625 218.332031 71.8125 219.382812 C 70.535156 221.785156 68 223.242188 65.292969 223.128906 C 62.582031 223.015625 60.175781 221.359375 59.097656 218.859375 C 57.796875 222.023438 54.433594 223.804688 51.097656 223.089844 C 47.761719 222.375 45.410156 219.375 45.507812 215.953125 C 43.023438 218.222656 39.292969 218.425781 36.578125 216.433594 C 33.855469 214.4375 32.894531 210.800781 34.277344 207.710938 C 31.082031 208.777344 27.582031 207.429688 25.914062 204.492188 C 24.242188 201.558594 24.828125 197.851562 27.328125 195.585938 C 23.867188 195.378906 21.070312 192.6875 20.71875 189.226562 C 20.367188 185.765625 22.570312 182.5625 25.914062 181.660156 C 22.859375 180.070312 21.386719 176.496094 22.4375 173.207031 C 23.484375 169.914062 26.742188 167.859375 30.152344 168.34375 C 28.160156 165.59375 28.363281 161.816406 30.632812 159.292969 C 32.867188 156.773438 36.558594 156.179688 39.460938 157.875 C 38.753906 154.570312 40.46875 151.222656 43.558594 149.878906 C 46.609375 148.519531 50.191406 149.488281 52.148438 152.203125 C 52.757812 148.828125 55.683594 146.375 59.097656 146.375 C 62.515625 146.375 65.441406 148.828125 66.050781 152.203125 C 68.003906 149.488281 71.585938 148.519531 74.636719 149.878906 C 77.730469 151.222656 79.445312 154.570312 78.734375 157.875 C 81.640625 156.179688 85.332031 156.773438 87.5625 159.292969 C 89.8125 161.820312 90 165.574219 88.015625 168.316406 C 91.425781 167.832031 94.683594 169.886719 95.734375 173.175781 C 96.78125 176.46875 95.3125 180.039062 92.253906 181.632812 C 95.519531 182.617188 97.617188 185.804688 97.242188 189.203125 Z M 97.242188 189.203125 " fill-opacity="1" fill-rule="nonzero"/></g><path fill="#3b97d3" d="M 78.578125 178.371094 C 77.296875 177.410156 75.796875 176.785156 74.214844 176.554688 L 74.214844 176.425781 C 73.691406 174.832031 72.878906 173.351562 71.8125 172.058594 C 71.8125 172.058594 67.574219 174.894531 59.097656 174.894531 C 50.621094 174.894531 46.382812 172.058594 46.382812 172.058594 C 46.382812 172.058594 46.382812 159.292969 59.097656 159.292969 C 71.8125 159.292969 81.703125 170.640625 84.527344 176.3125 C 86.320312 179.929688 82.40625 179.519531 78.578125 178.371094 Z M 78.578125 178.371094 " fill-opacity="1" fill-rule="nonzero"/><path fill="#2980ba" d="M 70.398438 176.964844 C 69.621094 176.964844 68.988281 176.332031 68.988281 175.546875 L 68.988281 172.058594 C 68.453125 170.796875 67.625 169.683594 66.570312 168.8125 C 66.019531 168.253906 66.019531 167.351562 66.570312 166.796875 C 67.125 166.242188 68.023438 166.242188 68.578125 166.796875 C 71.574219 169.816406 71.8125 171.589844 71.8125 172.058594 L 71.8125 175.546875 C 71.8125 176.332031 71.179688 176.964844 70.398438 176.964844 Z M 70.398438 176.964844 " fill-opacity="1" fill-rule="nonzero"/><path fill="#cbb292" d="M 73.226562 193.332031 C 73.226562 200.421875 66.160156 204.675781 59.097656 204.675781 C 52.035156 204.675781 44.972656 200.421875 44.972656 193.332031 C 44.957031 190.75 45.269531 188.175781 45.902344 185.671875 C 46.410156 183.398438 47.4375 181.277344 48.914062 179.476562 C 52.257812 180.21875 55.675781 180.585938 59.097656 180.566406 C 62.523438 180.585938 65.941406 180.21875 69.285156 179.476562 C 70.757812 181.277344 71.789062 183.398438 72.292969 185.671875 C 72.925781 188.175781 73.238281 190.75 73.226562 193.332031 Z M 73.226562 193.332031 " fill-opacity="1" fill-rule="nonzero"/><path fill="#f0c419" d="M 73.351562 178.269531 C 72.027344 178.765625 70.667969 179.167969 69.285156 179.476562 C 65.941406 180.21875 62.523438 180.585938 59.097656 180.566406 C 55.675781 180.585938 52.257812 180.21875 48.914062 179.476562 C 47.53125 179.167969 46.171875 178.765625 44.84375 178.269531 C 44.15625 178.011719 43.78125 177.265625 43.984375 176.554688 L 43.984375 176.425781 C 44.503906 174.832031 45.320312 173.351562 46.382812 172.058594 C 46.382812 172.058594 50.621094 174.894531 59.097656 174.894531 C 67.574219 174.894531 71.8125 172.058594 71.8125 172.058594 C 72.863281 173.355469 73.664062 174.835938 74.171875 176.425781 L 74.171875 176.554688 C 74.378906 177.253906 74.023438 177.996094 73.351562 178.269531 Z M 73.351562 178.269531 " fill-opacity="1" fill-rule="nonzero"/><path fill="#fb7b76" d="M 48.914062 179.476562 C 47.4375 181.277344 46.410156 183.398438 45.902344 185.671875 C 42.046875 187.347656 37.910156 186.324219 37.910156 181.984375 C 37.910156 178.296875 41.480469 177.007812 43.984375 176.554688 C 43.78125 177.265625 44.15625 178.011719 44.84375 178.269531 C 46.171875 178.765625 47.53125 179.167969 48.914062 179.476562 Z M 48.914062 179.476562 " fill-opacity="1" fill-rule="nonzero"/><path fill="#fb7b76" d="M 80.289062 181.984375 C 80.289062 186.324219 76.148438 187.347656 72.292969 185.671875 C 71.789062 183.398438 70.757812 181.277344 69.285156 179.476562 C 70.667969 179.167969 72.027344 178.765625 73.351562 178.269531 C 74.042969 178.011719 74.417969 177.265625 74.214844 176.554688 C 75.796875 176.785156 77.296875 177.410156 78.578125 178.371094 C 79.683594 179.238281 80.316406 180.578125 80.289062 181.984375 Z M 80.289062 181.984375 " fill-opacity="1" fill-rule="nonzero"/><path fill="#5f5346" d="M 53.335938 189.699219 C 52.171875 189.710938 51.023438 189.445312 49.988281 188.921875 C 49.351562 188.539062 49.121094 187.726562 49.453125 187.066406 C 49.789062 186.402344 50.574219 186.109375 51.257812 186.394531 C 52.65625 187.003906 54.242188 187.003906 55.636719 186.394531 C 56.320312 186.109375 57.109375 186.402344 57.441406 187.066406 C 57.773438 187.726562 57.542969 188.539062 56.910156 188.921875 C 55.789062 189.4375 54.566406 189.703125 53.335938 189.699219 Z M 53.335938 189.699219 " fill-opacity="1" fill-rule="nonzero"/><path fill="#5f5346" d="M 64.636719 189.699219 C 63.472656 189.710938 62.328125 189.445312 61.289062 188.921875 C 60.652344 188.539062 60.421875 187.726562 60.757812 187.066406 C 61.089844 186.402344 61.875 186.109375 62.558594 186.394531 C 63.957031 187.003906 65.542969 187.003906 66.9375 186.394531 C 67.390625 186.121094 67.960938 186.125 68.410156 186.40625 C 68.863281 186.6875 69.117188 187.195312 69.074219 187.726562 C 69.03125 188.253906 68.699219 188.714844 68.210938 188.921875 C 67.089844 189.4375 65.871094 189.703125 64.636719 189.699219 Z M 64.636719 189.699219 " fill-opacity="1" fill-rule="nonzero"/><path fill="#5f5346" d="M 63.179688 192.691406 C 62.828125 191.996094 61.984375 191.71875 61.289062 192.070312 L 59.097656 193.160156 L 56.910156 192.070312 C 56.226562 191.785156 55.4375 192.074219 55.105469 192.738281 C 54.769531 193.402344 55.003906 194.210938 55.636719 194.59375 L 57.6875 195.628906 L 57.6875 196.167969 C 57.6875 196.949219 58.320312 197.585938 59.097656 197.585938 C 59.878906 197.585938 60.511719 196.949219 60.511719 196.167969 L 60.511719 195.628906 L 62.558594 194.59375 C 63.253906 194.238281 63.53125 193.390625 63.179688 192.691406 Z M 63.179688 192.691406 " fill-opacity="1" fill-rule="nonzero"/><g fill="#309a92" fill-opacity="1"><g transform="translate(105.975151, 173.174989)"><g><path d="M 17.078125 -7.027344 L 17.078125 -12.933594 C 17.078125 -17.527344 14.167969 -20.328125 9.433594 -20.328125 C 4.703125 -20.328125 1.792969 -17.527344 1.792969 -12.933594 L 1.792969 -7.027344 C 1.792969 -2.519531 4.703125 0.308594 9.433594 0.308594 C 14.167969 0.308594 17.078125 -2.519531 17.078125 -7.027344 Z M 4.199219 -7.027344 L 4.199219 -12.933594 C 4.199219 -16.210938 6.101562 -18.113281 9.433594 -18.113281 C 12.765625 -18.113281 14.644531 -16.210938 14.644531 -12.933594 L 14.644531 -7.027344 C 14.644531 -3.863281 12.765625 -1.960938 9.433594 -1.960938 C 6.101562 -1.960938 4.199219 -3.863281 4.199219 -7.027344 Z M 4.199219 -7.027344 "/></g></g></g><g fill="#309a92" fill-opacity="1"><g transform="translate(124.284581, 173.174989)"><g><path d="M 14.78125 -18.140625 L 14.78125 -19.710938 C 14.78125 -19.90625 14.644531 -20.019531 14.445312 -20.019531 L 2.828125 -20.019531 C 2.605469 -20.019531 2.492188 -19.90625 2.492188 -19.710938 L 2.492188 -0.308594 C 2.492188 -0.113281 2.605469 0 2.828125 0 L 4.5625 0 C 4.757812 0 4.871094 -0.113281 4.871094 -0.308594 L 4.871094 -8.59375 L 13.382812 -8.59375 C 13.578125 -8.59375 13.691406 -8.707031 13.691406 -8.902344 L 13.691406 -10.472656 C 13.691406 -10.667969 13.578125 -10.777344 13.382812 -10.777344 L 4.871094 -10.777344 L 4.871094 -17.835938 L 14.445312 -17.835938 C 14.644531 -17.835938 14.78125 -17.945312 14.78125 -18.140625 Z M 14.78125 -18.140625 "/></g></g></g><g fill="#309a92" fill-opacity="1"><g transform="translate(139.374445, 173.174989)"><g><path d="M 14.78125 -18.140625 L 14.78125 -19.710938 C 14.78125 -19.90625 14.644531 -20.019531 14.445312 -20.019531 L 2.828125 -20.019531 C 2.605469 -20.019531 2.492188 -19.90625 2.492188 -19.710938 L 2.492188 -0.308594 C 2.492188 -0.113281 2.605469 0 2.828125 0 L 4.5625 0 C 4.757812 0 4.871094 -0.113281 4.871094 -0.308594 L 4.871094 -8.59375 L 13.382812 -8.59375 C 13.578125 -8.59375 13.691406 -8.707031 13.691406 -8.902344 L 13.691406 -10.472656 C 13.691406 -10.667969 13.578125 -10.777344 13.382812 -10.777344 L 4.871094 -10.777344 L 4.871094 -17.835938 L 14.445312 -17.835938 C 14.644531 -17.835938 14.78125 -17.945312 14.78125 -18.140625 Z M 14.78125 -18.140625 "/></g></g></g><g fill="#309a92" fill-opacity="1"><g transform="translate(154.464309, 173.174989)"><g/></g></g><g fill="#309a92" fill-opacity="1"><g transform="translate(160.203446, 173.174989)"><g><path d="M 15.035156 -20.019531 L 0.644531 -20.019531 C 0.449219 -20.019531 0.335938 -19.90625 0.335938 -19.710938 L 0.335938 -18.140625 C 0.335938 -17.945312 0.449219 -17.835938 0.644531 -17.835938 L 6.636719 -17.835938 L 6.636719 -0.308594 C 6.636719 -0.113281 6.777344 0 6.972656 0 L 8.707031 0 C 8.902344 0 9.042969 -0.113281 9.042969 -0.308594 L 9.042969 -17.835938 L 15.035156 -17.835938 C 15.230469 -17.835938 15.371094 -17.945312 15.371094 -18.140625 L 15.371094 -19.710938 C 15.371094 -19.90625 15.230469 -20.019531 15.035156 -20.019531 Z M 15.035156 -20.019531 "/></g></g></g><g fill="#309a92" fill-opacity="1"><g transform="translate(175.349306, 173.174989)"><g><path d="M 17.078125 -7.027344 L 17.078125 -12.933594 C 17.078125 -17.527344 14.167969 -20.328125 9.433594 -20.328125 C 4.703125 -20.328125 1.792969 -17.527344 1.792969 -12.933594 L 1.792969 -7.027344 C 1.792969 -2.519531 4.703125 0.308594 9.433594 0.308594 C 14.167969 0.308594 17.078125 -2.519531 17.078125 -7.027344 Z M 4.199219 -7.027344 L 4.199219 -12.933594 C 4.199219 -16.210938 6.101562 -18.113281 9.433594 -18.113281 C 12.765625 -18.113281 14.644531 -16.210938 14.644531 -12.933594 L 14.644531 -7.027344 C 14.644531 -3.863281 12.765625 -1.960938 9.433594 -1.960938 C 6.101562 -1.960938 4.199219 -3.863281 4.199219 -7.027344 Z M 4.199219 -7.027344 "/></g></g></g><g fill="#309a92" fill-opacity="1"><g transform="translate(193.658736, 173.174989)"><g/></g></g><g fill="#309a92" fill-opacity="1"><g transform="translate(199.397874, 173.174989)"><g><path d="M 15.789062 -5.429688 C 15.789062 -9.40625 12.488281 -10.582031 8.761719 -11.421875 C 5.824219 -12.09375 3.863281 -12.851562 3.863281 -14.980469 C 3.863281 -17.023438 5.738281 -18.113281 8.398438 -18.113281 C 10.332031 -18.058594 12.121094 -17.46875 13.832031 -16.292969 C 14 -16.183594 14.167969 -16.183594 14.277344 -16.351562 L 15.203125 -17.667969 C 15.316406 -17.804688 15.316406 -17.972656 15.117188 -18.085938 C 12.992188 -19.625 11.085938 -20.328125 8.59375 -20.328125 C 4.757812 -20.328125 1.457031 -18.730469 1.457031 -15.035156 C 1.457031 -11.3125 4.757812 -9.882812 8.148438 -9.128906 C 11.339844 -8.425781 13.382812 -7.699219 13.382812 -5.375 C 13.382812 -3.023438 11.085938 -1.960938 8.539062 -1.960938 C 6.4375 -1.988281 4.703125 -2.742188 2.773438 -4.199219 C 2.632812 -4.3125 2.464844 -4.285156 2.351562 -4.117188 L 1.398438 -2.800781 C 1.289062 -2.632812 1.289062 -2.492188 1.457031 -2.351562 C 3.667969 -0.558594 5.683594 0.308594 8.457031 0.308594 C 12.402344 0.308594 15.789062 -1.429688 15.789062 -5.429688 Z M 15.789062 -5.429688 "/></g></g></g><g fill="#309a92" fill-opacity="1"><g transform="translate(215.803556, 173.174989)"><g><path d="M 14.222656 -19.710938 L 14.222656 -11.253906 L 4.871094 -11.253906 L 4.871094 -19.710938 C 4.871094 -19.90625 4.757812 -20.019531 4.5625 -20.019531 L 2.828125 -20.019531 C 2.605469 -20.019531 2.492188 -19.90625 2.492188 -19.710938 L 2.492188 -0.308594 C 2.492188 -0.113281 2.605469 0 2.828125 0 L 4.5625 0 C 4.757812 0 4.871094 -0.113281 4.871094 -0.308594 L 4.871094 -9.070312 L 14.222656 -9.070312 L 14.222656 -0.308594 C 14.222656 -0.113281 14.335938 0 14.558594 0 L 16.292969 0 C 16.492188 0 16.601562 -0.113281 16.601562 -0.308594 L 16.601562 -19.710938 C 16.601562 -19.90625 16.492188 -20.019531 16.292969 -20.019531 L 14.558594 -20.019531 C 14.335938 -20.019531 14.222656 -19.90625 14.222656 -19.710938 Z M 14.222656 -19.710938 "/></g></g></g><g fill="#309a92" fill-opacity="1"><g transform="translate(234.336953, 173.174989)"><g><path d="M 4.898438 -2.183594 L 4.898438 -9.070312 L 13.496094 -9.070312 C 13.691406 -9.070312 13.804688 -9.183594 13.804688 -9.40625 L 13.804688 -10.945312 C 13.804688 -11.171875 13.691406 -11.28125 13.496094 -11.28125 L 4.898438 -11.28125 L 4.898438 -17.835938 L 14.140625 -17.835938 C 14.335938 -17.835938 14.445312 -17.945312 14.445312 -18.140625 L 14.445312 -19.710938 C 14.445312 -19.90625 14.335938 -20.019531 14.140625 -20.019531 L 2.828125 -20.019531 C 2.605469 -20.019531 2.492188 -19.90625 2.492188 -19.710938 L 2.492188 -0.308594 C 2.492188 -0.113281 2.605469 0 2.828125 0 L 14.53125 0 C 14.726562 0 14.839844 -0.113281 14.839844 -0.308594 L 14.839844 -1.875 C 14.839844 -2.070312 14.726562 -2.183594 14.53125 -2.183594 Z M 4.898438 -2.183594 "/></g></g></g><g fill="#309a92" fill-opacity="1"><g transform="translate(249.986747, 173.174989)"><g><path d="M 4.898438 -2.183594 L 4.898438 -9.070312 L 13.496094 -9.070312 C 13.691406 -9.070312 13.804688 -9.183594 13.804688 -9.40625 L 13.804688 -10.945312 C 13.804688 -11.171875 13.691406 -11.28125 13.496094 -11.28125 L 4.898438 -11.28125 L 4.898438 -17.835938 L 14.140625 -17.835938 C 14.335938 -17.835938 14.445312 -17.945312 14.445312 -18.140625 L 14.445312 -19.710938 C 14.445312 -19.90625 14.335938 -20.019531 14.140625 -20.019531 L 2.828125 -20.019531 C 2.605469 -20.019531 2.492188 -19.90625 2.492188 -19.710938 L 2.492188 -0.308594 C 2.492188 -0.113281 2.605469 0 2.828125 0 L 14.53125 0 C 14.726562 0 14.839844 -0.113281 14.839844 -0.308594 L 14.839844 -1.875 C 14.839844 -2.070312 14.726562 -2.183594 14.53125 -2.183594 Z M 4.898438 -2.183594 "/></g></g></g><g fill="#309a92" fill-opacity="1"><g transform="translate(265.636542, 173.174989)"><g><path d="M 9.546875 -20.019531 L 2.800781 -20.019531 C 2.605469 -20.019531 2.492188 -19.90625 2.492188 -19.710938 L 2.492188 -0.308594 C 2.492188 -0.113281 2.605469 0 2.800781 0 L 4.5625 0 C 4.757812 0 4.871094 -0.113281 4.871094 -0.308594 L 4.871094 -6.886719 L 9.546875 -6.886719 C 13.941406 -6.886719 16.492188 -9.324219 16.492188 -13.46875 C 16.492188 -17.554688 13.972656 -20.019531 9.546875 -20.019531 Z M 9.296875 -9.097656 L 4.871094 -9.097656 L 4.871094 -17.804688 L 9.296875 -17.804688 C 12.515625 -17.804688 14.082031 -16.351562 14.082031 -13.46875 C 14.082031 -10.554688 12.515625 -9.097656 9.296875 -9.097656 Z M 9.296875 -9.097656 "/></g></g></g><g fill="#309a92" fill-opacity="1"><g transform="translate(105.975151, 200.924987)"><g><path d="M 15.789062 -5.429688 C 15.789062 -9.40625 12.488281 -10.582031 8.761719 -11.421875 C 5.824219 -12.09375 3.863281 -12.851562 3.863281 -14.980469 C 3.863281 -17.023438 5.738281 -18.113281 8.398438 -18.113281 C 10.332031 -18.058594 12.121094 -17.46875 13.832031 -16.292969 C 14 -16.183594 14.167969 -16.183594 14.277344 -16.351562 L 15.203125 -17.667969 C 15.316406 -17.804688 15.316406 -17.972656 15.117188 -18.085938 C 12.992188 -19.625 11.085938 -20.328125 8.59375 -20.328125 C 4.757812 -20.328125 1.457031 -18.730469 1.457031 -15.035156 C 1.457031 -11.3125 4.757812 -9.882812 8.148438 -9.128906 C 11.339844 -8.425781 13.382812 -7.699219 13.382812 -5.375 C 13.382812 -3.023438 11.085938 -1.960938 8.539062 -1.960938 C 6.4375 -1.988281 4.703125 -2.742188 2.773438 -4.199219 C 2.632812 -4.3125 2.464844 -4.285156 2.351562 -4.117188 L 1.398438 -2.800781 C 1.289062 -2.632812 1.289062 -2.492188 1.457031 -2.351562 C 3.667969 -0.558594 5.683594 0.308594 8.457031 0.308594 C 12.402344 0.308594 15.789062 -1.429688 15.789062 -5.429688 Z M 15.789062 -5.429688 "/></g></g></g><g fill="#309a92" fill-opacity="1"><g transform="translate(122.380834, 200.924987)"><g><path d="M 2.828125 0 L 13.691406 0 C 13.886719 0 14 -0.113281 14 -0.308594 L 14 -1.875 C 14 -2.070312 13.886719 -2.183594 13.691406 -2.183594 L 4.898438 -2.183594 L 4.898438 -19.710938 C 4.898438 -19.90625 4.789062 -20.019531 4.589844 -20.019531 L 2.828125 -20.019531 C 2.605469 -20.019531 2.492188 -19.90625 2.492188 -19.710938 L 2.492188 -0.308594 C 2.492188 -0.113281 2.605469 0 2.828125 0 Z M 2.828125 0 "/></g></g></g><g fill="#309a92" fill-opacity="1"><g transform="translate(136.154879, 200.924987)"><g><path d="M 4.898438 -2.183594 L 4.898438 -9.070312 L 13.496094 -9.070312 C 13.691406 -9.070312 13.804688 -9.183594 13.804688 -9.40625 L 13.804688 -10.945312 C 13.804688 -11.171875 13.691406 -11.28125 13.496094 -11.28125 L 4.898438 -11.28125 L 4.898438 -17.835938 L 14.140625 -17.835938 C 14.335938 -17.835938 14.445312 -17.945312 14.445312 -18.140625 L 14.445312 -19.710938 C 14.445312 -19.90625 14.335938 -20.019531 14.140625 -20.019531 L 2.828125 -20.019531 C 2.605469 -20.019531 2.492188 -19.90625 2.492188 -19.710938 L 2.492188 -0.308594 C 2.492188 -0.113281 2.605469 0 2.828125 0 L 14.53125 0 C 14.726562 0 14.839844 -0.113281 14.839844 -0.308594 L 14.839844 -1.875 C 14.839844 -2.070312 14.726562 -2.183594 14.53125 -2.183594 Z M 4.898438 -2.183594 "/></g></g></g><g fill="#309a92" fill-opacity="1"><g transform="translate(151.804668, 200.924987)"><g><path d="M 4.898438 -2.183594 L 4.898438 -9.070312 L 13.496094 -9.070312 C 13.691406 -9.070312 13.804688 -9.183594 13.804688 -9.40625 L 13.804688 -10.945312 C 13.804688 -11.171875 13.691406 -11.28125 13.496094 -11.28125 L 4.898438 -11.28125 L 4.898438 -17.835938 L 14.140625 -17.835938 C 14.335938 -17.835938 14.445312 -17.945312 14.445312 -18.140625 L 14.445312 -19.710938 C 14.445312 -19.90625 14.335938 -20.019531 14.140625 -20.019531 L 2.828125 -20.019531 C 2.605469 -20.019531 2.492188 -19.90625 2.492188 -19.710938 L 2.492188 -0.308594 C 2.492188 -0.113281 2.605469 0 2.828125 0 L 14.53125 0 C 14.726562 0 14.839844 -0.113281 14.839844 -0.308594 L 14.839844 -1.875 C 14.839844 -2.070312 14.726562 -2.183594 14.53125 -2.183594 Z M 4.898438 -2.183594 "/></g></g></g><g fill="#309a92" fill-opacity="1"><g transform="translate(167.454456, 200.924987)"><g><path d="M 9.546875 -20.019531 L 2.800781 -20.019531 C 2.605469 -20.019531 2.492188 -19.90625 2.492188 -19.710938 L 2.492188 -0.308594 C 2.492188 -0.113281 2.605469 0 2.800781 0 L 4.5625 0 C 4.757812 0 4.871094 -0.113281 4.871094 -0.308594 L 4.871094 -6.886719 L 9.546875 -6.886719 C 13.941406 -6.886719 16.492188 -9.324219 16.492188 -13.46875 C 16.492188 -17.554688 13.972656 -20.019531 9.546875 -20.019531 Z M 9.296875 -9.097656 L 4.871094 -9.097656 L 4.871094 -17.804688 L 9.296875 -17.804688 C 12.515625 -17.804688 14.082031 -16.351562 14.082031 -13.46875 C 14.082031 -10.554688 12.515625 -9.097656 9.296875 -9.097656 Z M 9.296875 -9.097656 "/></g></g></g><g fill="#309a92" fill-opacity="1"><g transform="translate(184.392071, 200.924987)"><g/></g></g><g fill="#309a92" fill-opacity="1"><g transform="translate(190.131208, 200.924987)"><g><path d="M 15.539062 -1.820312 C 15.734375 -1.960938 15.734375 -2.101562 15.621094 -2.296875 L 14.699219 -3.582031 C 14.585938 -3.78125 14.417969 -3.808594 14.277344 -3.667969 C 12.792969 -2.519531 10.945312 -1.933594 9.128906 -1.933594 C 5.964844 -1.933594 4.199219 -3.78125 4.199219 -6.636719 L 4.199219 -13.382812 C 4.199219 -16.238281 5.933594 -18.085938 9.097656 -18.085938 C 10.695312 -18.085938 12.402344 -17.582031 13.773438 -16.574219 C 13.972656 -16.460938 14.140625 -16.460938 14.25 -16.628906 L 15.148438 -17.945312 C 15.257812 -18.113281 15.257812 -18.253906 15.089844 -18.367188 C 13.355469 -19.652344 11.226562 -20.328125 9.128906 -20.328125 C 5.09375 -20.328125 1.820312 -18.003906 1.820312 -13.382812 L 1.820312 -6.605469 C 1.820312 -2.015625 5.066406 0.308594 9.183594 0.308594 C 11.421875 0.308594 13.746094 -0.335938 15.539062 -1.820312 Z M 15.539062 -1.820312 "/></g></g></g><g fill="#309a92" fill-opacity="1"><g transform="translate(206.004975, 200.924987)"><g><path d="M 17.078125 -7.027344 L 17.078125 -12.933594 C 17.078125 -17.527344 14.167969 -20.328125 9.433594 -20.328125 C 4.703125 -20.328125 1.792969 -17.527344 1.792969 -12.933594 L 1.792969 -7.027344 C 1.792969 -2.519531 4.703125 0.308594 9.433594 0.308594 C 14.167969 0.308594 17.078125 -2.519531 17.078125 -7.027344 Z M 4.199219 -7.027344 L 4.199219 -12.933594 C 4.199219 -16.210938 6.101562 -18.113281 9.433594 -18.113281 C 12.765625 -18.113281 14.644531 -16.210938 14.644531 -12.933594 L 14.644531 -7.027344 C 14.644531 -3.863281 12.765625 -1.960938 9.433594 -1.960938 C 6.101562 -1.960938 4.199219 -3.863281 4.199219 -7.027344 Z M 4.199219 -7.027344 "/></g></g></g><g fill="#309a92" fill-opacity="1"><g transform="translate(224.314399, 200.924987)"><g><path d="M 2.828125 0 L 4.535156 0 C 4.730469 0 4.871094 -0.113281 4.871094 -0.308594 L 4.871094 -8.792969 C 4.871094 -11.003906 4.789062 -13.886719 4.703125 -16.097656 L 4.757812 -16.125 C 5.460938 -14.78125 6.382812 -13.1875 7.195312 -11.871094 L 14.558594 -0.195312 C 14.644531 -0.0546875 14.78125 0 14.949219 0 L 16.910156 0 C 17.105469 0 17.21875 -0.113281 17.21875 -0.308594 L 17.21875 -19.710938 C 17.21875 -19.90625 17.105469 -20.019531 16.910156 -20.019531 L 15.175781 -20.019531 C 14.980469 -20.019531 14.867188 -19.90625 14.867188 -19.710938 L 14.867188 -11.226562 C 14.867188 -8.875 14.921875 -5.964844 15.035156 -3.640625 L 14.949219 -3.613281 C 14.25 -4.925781 13.355469 -6.410156 12.597656 -7.699219 L 5.179688 -19.792969 C 5.09375 -19.933594 4.925781 -20.019531 4.789062 -20.019531 L 2.828125 -20.019531 C 2.605469 -20.019531 2.492188 -19.90625 2.492188 -19.710938 L 2.492188 -0.308594 C 2.492188 -0.113281 2.605469 0 2.828125 0 Z M 2.828125 0 "/></g></g></g><g fill="#309a92" fill-opacity="1"><g transform="translate(243.463705, 200.924987)"><g><path d="M 15.789062 -5.429688 C 15.789062 -9.40625 12.488281 -10.582031 8.761719 -11.421875 C 5.824219 -12.09375 3.863281 -12.851562 3.863281 -14.980469 C 3.863281 -17.023438 5.738281 -18.113281 8.398438 -18.113281 C 10.332031 -18.058594 12.121094 -17.46875 13.832031 -16.292969 C 14 -16.183594 14.167969 -16.183594 14.277344 -16.351562 L 15.203125 -17.667969 C 15.316406 -17.804688 15.316406 -17.972656 15.117188 -18.085938 C 12.992188 -19.625 11.085938 -20.328125 8.59375 -20.328125 C 4.757812 -20.328125 1.457031 -18.730469 1.457031 -15.035156 C 1.457031 -11.3125 4.757812 -9.882812 8.148438 -9.128906 C 11.339844 -8.425781 13.382812 -7.699219 13.382812 -5.375 C 13.382812 -3.023438 11.085938 -1.960938 8.539062 -1.960938 C 6.4375 -1.988281 4.703125 -2.742188 2.773438 -4.199219 C 2.632812 -4.3125 2.464844 -4.285156 2.351562 -4.117188 L 1.398438 -2.800781 C 1.289062 -2.632812 1.289062 -2.492188 1.457031 -2.351562 C 3.667969 -0.558594 5.683594 0.308594 8.457031 0.308594 C 12.402344 0.308594 15.789062 -1.429688 15.789062 -5.429688 Z M 15.789062 -5.429688 "/></g></g></g><g fill="#309a92" fill-opacity="1"><g transform="translate(259.869382, 200.924987)"><g><path d="M 17.023438 -6.832031 L 17.023438 -19.710938 C 17.023438 -19.90625 16.882812 -20.019531 16.6875 -20.019531 L 14.894531 -20.019531 C 14.699219 -20.019531 14.585938 -19.90625 14.585938 -19.710938 L 14.585938 -7 C 14.585938 -3.835938 12.792969 -1.902344 9.660156 -1.902344 C 6.523438 -1.902344 4.757812 -3.835938 4.757812 -7 L 4.757812 -19.710938 C 4.757812 -19.90625 4.648438 -20.019531 4.453125 -20.019531 L 2.660156 -20.019531 C 2.464844 -20.019531 2.324219 -19.90625 2.324219 -19.710938 L 2.324219 -6.832031 C 2.324219 -2.574219 5.179688 0.308594 9.660156 0.308594 C 14.167969 0.308594 17.023438 -2.574219 17.023438 -6.832031 Z M 17.023438 -6.832031 "/></g></g></g><g fill="#309a92" fill-opacity="1"><g transform="translate(278.654743, 200.924987)"><g><path d="M 2.828125 0 L 13.691406 0 C 13.886719 0 14 -0.113281 14 -0.308594 L 14 -1.875 C 14 -2.070312 13.886719 -2.183594 13.691406 -2.183594 L 4.898438 -2.183594 L 4.898438 -19.710938 C 4.898438 -19.90625 4.789062 -20.019531 4.589844 -20.019531 L 2.828125 -20.019531 C 2.605469 -20.019531 2.492188 -19.90625 2.492188 -19.710938 L 2.492188 -0.308594 C 2.492188 -0.113281 2.605469 0 2.828125 0 Z M 2.828125 0 "/></g></g></g><g fill="#309a92" fill-opacity="1"><g transform="translate(292.428783, 200.924987)"><g><path d="M 15.035156 -20.019531 L 0.644531 -20.019531 C 0.449219 -20.019531 0.335938 -19.90625 0.335938 -19.710938 L 0.335938 -18.140625 C 0.335938 -17.945312 0.449219 -17.835938 0.644531 -17.835938 L 6.636719 -17.835938 L 6.636719 -0.308594 C 6.636719 -0.113281 6.777344 0 6.972656 0 L 8.707031 0 C 8.902344 0 9.042969 -0.113281 9.042969 -0.308594 L 9.042969 -17.835938 L 15.035156 -17.835938 C 15.230469 -17.835938 15.371094 -17.945312 15.371094 -18.140625 L 15.371094 -19.710938 C 15.371094 -19.90625 15.230469 -20.019531 15.035156 -20.019531 Z M 15.035156 -20.019531 "/></g></g></g><g fill="#309a92" fill-opacity="1"><g transform="translate(307.574649, 200.924987)"><g><path d="M 4.871094 -0.308594 L 4.871094 -19.710938 C 4.871094 -19.90625 4.757812 -20.019531 4.5625 -20.019531 L 2.828125 -20.019531 C 2.605469 -20.019531 2.492188 -19.90625 2.492188 -19.710938 L 2.492188 -0.308594 C 2.492188 -0.113281 2.605469 0 2.828125 0 L 4.5625 0 C 4.757812 0 4.871094 -0.113281 4.871094 -0.308594 Z M 4.871094 -0.308594 "/></g></g></g><g fill="#309a92" fill-opacity="1"><g transform="translate(314.377634, 200.924987)"><g><path d="M 2.828125 0 L 4.535156 0 C 4.730469 0 4.871094 -0.113281 4.871094 -0.308594 L 4.871094 -8.792969 C 4.871094 -11.003906 4.789062 -13.886719 4.703125 -16.097656 L 4.757812 -16.125 C 5.460938 -14.78125 6.382812 -13.1875 7.195312 -11.871094 L 14.558594 -0.195312 C 14.644531 -0.0546875 14.78125 0 14.949219 0 L 16.910156 0 C 17.105469 0 17.21875 -0.113281 17.21875 -0.308594 L 17.21875 -19.710938 C 17.21875 -19.90625 17.105469 -20.019531 16.910156 -20.019531 L 15.175781 -20.019531 C 14.980469 -20.019531 14.867188 -19.90625 14.867188 -19.710938 L 14.867188 -11.226562 C 14.867188 -8.875 14.921875 -5.964844 15.035156 -3.640625 L 14.949219 -3.613281 C 14.25 -4.925781 13.355469 -6.410156 12.597656 -7.699219 L 5.179688 -19.792969 C 5.09375 -19.933594 4.925781 -20.019531 4.789062 -20.019531 L 2.828125 -20.019531 C 2.605469 -20.019531 2.492188 -19.90625 2.492188 -19.710938 L 2.492188 -0.308594 C 2.492188 -0.113281 2.605469 0 2.828125 0 Z M 2.828125 0 "/></g></g></g><g fill="#309a92" fill-opacity="1"><g transform="translate(333.52694, 200.924987)"><g><path d="M 16.292969 -2.519531 C 16.378906 -2.605469 16.40625 -2.714844 16.40625 -2.882812 L 16.40625 -10.609375 C 16.40625 -10.808594 16.292969 -10.917969 16.097656 -10.917969 L 9.464844 -10.917969 C 9.265625 -10.917969 9.15625 -10.808594 9.15625 -10.609375 L 9.15625 -9.042969 C 9.15625 -8.847656 9.265625 -8.734375 9.464844 -8.734375 L 14.054688 -8.734375 L 14.054688 -3.527344 C 12.933594 -2.574219 11.253906 -1.960938 9.324219 -1.960938 C 6.328125 -1.960938 4.199219 -3.582031 4.199219 -6.636719 L 4.199219 -13.355469 C 4.199219 -16.40625 6.160156 -18.085938 9.128906 -18.085938 C 11.058594 -18.085938 12.90625 -17.527344 14.476562 -16.492188 C 14.644531 -16.40625 14.78125 -16.40625 14.894531 -16.574219 L 15.847656 -17.890625 C 15.957031 -18.03125 15.957031 -18.226562 15.761719 -18.339844 C 13.886719 -19.625 11.480469 -20.328125 9.128906 -20.328125 C 5.09375 -20.328125 1.820312 -18.003906 1.820312 -13.410156 L 1.820312 -6.636719 C 1.820312 -2.042969 5.207031 0.308594 9.324219 0.308594 C 12.234375 0.308594 14.644531 -0.8125 16.292969 -2.519531 Z M 16.292969 -2.519531 "/></g></g></g><g fill="#72bab5" fill-opacity="1"><g transform="translate(105.975151, 222.174991)"><g><path d="M 7.828125 -4.195312 C 7.523438 -3.382812 7.039062 -2.863281 6.496094 -2.59375 C 6.679688 -3.132812 6.785156 -3.707031 6.785156 -4.300781 C 6.785156 -6.15625 5.8125 -7.128906 4.5 -7.128906 C 3.203125 -7.128906 2.285156 -6.136719 2.285156 -4.660156 C 2.285156 -3.023438 3.292969 -1.890625 4.535156 -1.53125 C 4.265625 -1.261719 3.925781 -1.078125 3.5625 -1.078125 C 2.664062 -1.078125 1.726562 -2.050781 1.726562 -5.023438 C 1.726562 -6.046875 1.816406 -6.984375 1.980469 -7.828125 C 2.179688 -7.8125 2.359375 -7.8125 2.574219 -7.8125 C 5.09375 -7.8125 6.730469 -9.378906 6.730469 -10.925781 C 6.730469 -11.953125 5.921875 -12.78125 4.734375 -12.78125 C 3.113281 -12.78125 1.800781 -11.429688 1.097656 -9.125 C 0.953125 -9.179688 0.828125 -9.214844 0.703125 -9.214844 C 0.378906 -9.214844 0.160156 -8.964844 0.160156 -8.695312 C 0.160156 -8.476562 0.304688 -8.242188 0.648438 -8.117188 C 0.703125 -8.101562 0.773438 -8.082031 0.828125 -8.046875 C 0.648438 -7.109375 0.539062 -6.03125 0.539062 -4.859375 C 0.539062 -1.332031 1.90625 0.0351562 3.492188 0.0351562 C 4.480469 0.0351562 5.347656 -0.539062 5.921875 -1.421875 C 7.039062 -1.566406 8.136719 -2.339844 8.695312 -3.816406 C 8.730469 -3.90625 8.746094 -3.976562 8.746094 -4.050781 C 8.746094 -4.339844 8.515625 -4.535156 8.28125 -4.535156 C 8.101562 -4.535156 7.921875 -4.429688 7.828125 -4.195312 Z M 4.699219 -11.664062 C 5.21875 -11.664062 5.5625 -11.320312 5.5625 -10.835938 C 5.5625 -9.953125 4.5 -8.890625 2.699219 -8.890625 C 2.539062 -8.890625 2.394531 -8.890625 2.25 -8.910156 C 2.789062 -10.601562 3.671875 -11.664062 4.699219 -11.664062 Z M 3.402344 -4.609375 C 3.402344 -5.453125 3.90625 -6.011719 4.464844 -6.011719 C 5.074219 -6.011719 5.597656 -5.507812 5.597656 -4.410156 C 5.597656 -3.78125 5.4375 -3.023438 5.148438 -2.410156 C 4.175781 -2.628906 3.402344 -3.492188 3.402344 -4.609375 Z M 3.402344 -4.609375 "/></g></g></g><g fill="#72bab5" fill-opacity="1"><g transform="translate(113.211124, 222.174991)"><g><path d="M 7.972656 -4.195312 C 7.542969 -3.058594 6.730469 -1.546875 5.921875 -0.773438 C 5.921875 -0.847656 5.941406 -0.898438 5.941406 -0.953125 C 6.085938 -2.503906 6.210938 -4.699219 6.355469 -6.605469 C 6.390625 -7.054688 6.085938 -7.273438 5.777344 -7.273438 C 5.488281 -7.273438 5.183594 -7.074219 5.164062 -6.695312 C 5.128906 -6.011719 5.074219 -5.257812 5.023438 -4.464844 C 4.714844 -2.160156 3.402344 -1.097656 2.484375 -1.097656 C 1.871094 -1.097656 1.566406 -1.421875 1.566406 -2.089844 C 1.566406 -3.132812 1.996094 -4.914062 1.996094 -6.226562 C 1.996094 -6.894531 1.476562 -7.46875 0.847656 -7.46875 C 0.503906 -7.46875 0.269531 -7.253906 0.269531 -6.949219 C 0.269531 -6.480469 0.792969 -6.535156 0.792969 -5.867188 C 0.792969 -4.984375 0.378906 -3.402344 0.378906 -2.015625 C 0.378906 -0.792969 1.207031 0.0195312 2.394531 0.0195312 C 3.167969 0.0195312 4.050781 -0.46875 4.769531 -1.546875 C 4.769531 -1.332031 4.753906 -1.152344 4.734375 -0.953125 C 4.714844 -0.628906 4.679688 -0.34375 4.660156 -0.0546875 C 2.734375 0.917969 1.601562 1.710938 1.601562 3.007812 C 1.601562 3.835938 2.269531 4.5 3.3125 4.5 C 4.753906 4.5 5.542969 3.097656 5.761719 1.027344 C 5.777344 0.917969 5.777344 0.808594 5.796875 0.683594 C 7.21875 -0.394531 8.191406 -2.050781 8.839844 -3.816406 C 8.875 -3.90625 8.890625 -3.976562 8.890625 -4.050781 C 8.890625 -4.355469 8.65625 -4.554688 8.425781 -4.554688 C 8.261719 -4.554688 8.082031 -4.445312 7.972656 -4.195312 Z M 3.3125 3.382812 C 2.988281 3.382812 2.773438 3.1875 2.773438 2.878906 C 2.773438 2.320312 3.402344 1.78125 4.519531 1.1875 C 4.320312 2.734375 3.996094 3.382812 3.3125 3.382812 Z M 3.3125 3.382812 "/></g></g></g><g fill="#72bab5" fill-opacity="1"><g transform="translate(120.591098, 222.174991)"><g/></g></g><g fill="#72bab5" fill-opacity="1"><g transform="translate(124.101092, 222.174991)"><g><path d="M 10.402344 -4.195312 C 9.523438 -1.996094 8.910156 -1.0625 8.207031 -1.0625 C 7.253906 -1.0625 5.867188 -1.816406 4.625 -1.816406 C 4.355469 -1.816406 3.886719 -1.800781 3.457031 -1.691406 C 4.589844 -3.078125 4.933594 -4.660156 5.308594 -8.191406 C 5.308594 -8.226562 5.308594 -8.261719 5.328125 -8.296875 L 5.542969 -8.296875 C 7.398438 -8.296875 8.820312 -9.503906 8.820312 -11.035156 C 8.820312 -12.007812 8.101562 -12.691406 7.09375 -12.691406 C 5.707031 -12.691406 4.734375 -11.664062 4.285156 -9.703125 C 3.582031 -10.042969 3.042969 -10.675781 2.84375 -11.539062 C 2.753906 -11.933594 2.539062 -12.058594 2.285156 -12.058594 C 1.980469 -12.058594 1.726562 -11.824219 1.726562 -11.464844 C 1.726562 -10.3125 2.71875 -9.109375 4.085938 -8.585938 C 4.066406 -8.476562 4.066406 -8.386719 4.050781 -8.296875 C 3.636719 -4.246094 3.148438 -2.808594 1.457031 -1.277344 C 1.277344 -1.117188 1.171875 -0.898438 1.171875 -0.683594 C 1.171875 -0.34375 1.457031 -0.0703125 1.816406 -0.0703125 C 1.90625 -0.0703125 2.050781 -0.109375 2.230469 -0.179688 C 3.113281 -0.539062 3.691406 -0.648438 4.445312 -0.648438 C 5.472656 -0.648438 7.234375 0.0703125 8.136719 0.0703125 C 9.503906 0.0703125 10.296875 -1.207031 11.269531 -3.816406 C 11.304688 -3.90625 11.320312 -3.996094 11.320312 -4.085938 C 11.320312 -4.390625 11.105469 -4.570312 10.871094 -4.570312 C 10.691406 -4.570312 10.511719 -4.464844 10.402344 -4.195312 Z M 6.949219 -11.539062 C 7.324219 -11.539062 7.578125 -11.285156 7.578125 -10.90625 C 7.578125 -10.078125 6.679688 -9.433594 5.527344 -9.433594 L 5.488281 -9.433594 C 5.777344 -10.835938 6.265625 -11.539062 6.949219 -11.539062 Z M 6.949219 -11.539062 "/></g></g></g><g fill="#72bab5" fill-opacity="1"><g transform="translate(133.911059, 222.174991)"><g><path d="M 1.816406 -8.117188 C 2.214844 -8.117188 2.519531 -8.425781 2.519531 -8.820312 C 2.519531 -9.214844 2.214844 -9.523438 1.816406 -9.523438 C 1.421875 -9.523438 1.117188 -9.214844 1.117188 -8.820312 C 1.117188 -8.425781 1.421875 -8.117188 1.816406 -8.117188 Z M 2.375 0.0703125 C 3.472656 0.0703125 4.410156 -1.078125 5.417969 -3.816406 C 5.453125 -3.90625 5.472656 -3.996094 5.472656 -4.066406 C 5.472656 -4.375 5.257812 -4.589844 5.023438 -4.589844 C 4.84375 -4.589844 4.660156 -4.464844 4.554688 -4.195312 C 3.671875 -2.015625 3.113281 -1.042969 2.519531 -1.042969 C 2.089844 -1.042969 1.710938 -1.421875 1.710938 -2.699219 C 1.710938 -3.472656 1.800781 -4.429688 2.105469 -6.445312 C 2.179688 -6.910156 1.871094 -7.183594 1.566406 -7.183594 C 1.277344 -7.183594 0.988281 -6.984375 0.898438 -6.496094 C 0.71875 -5.488281 0.523438 -3.742188 0.523438 -2.808594 C 0.523438 -0.703125 1.332031 0.0703125 2.375 0.0703125 Z M 2.375 0.0703125 "/></g></g></g><g fill="#72bab5" fill-opacity="1"><g transform="translate(137.871046, 222.174991)"><g><path d="M 8.0625 -4.195312 C 7.144531 -1.996094 6.679688 -1.117188 6.210938 -1.117188 C 5.941406 -1.117188 5.761719 -1.296875 5.761719 -1.726562 C 5.761719 -2.878906 6.046875 -4.644531 6.046875 -5.488281 C 6.046875 -6.480469 5.382812 -7.144531 4.390625 -7.144531 C 3.457031 -7.144531 2.574219 -6.605469 1.890625 -5.578125 C 1.925781 -5.957031 1.960938 -6.300781 1.960938 -6.535156 C 1.960938 -6.929688 1.691406 -7.128906 1.402344 -7.128906 C 1.117188 -7.128906 0.808594 -6.910156 0.773438 -6.515625 C 0.648438 -5.09375 0.449219 -1.996094 0.449219 -0.574219 C 0.449219 -0.179688 0.738281 0.0195312 1.027344 0.0195312 C 1.332031 0.0195312 1.636719 -0.179688 1.636719 -0.574219 C 1.636719 -1.207031 1.65625 -1.890625 1.691406 -2.59375 C 1.925781 -4.589844 3.132812 -6.046875 4.105469 -6.046875 C 4.589844 -6.046875 4.859375 -5.761719 4.859375 -5.203125 C 4.859375 -4.589844 4.570312 -2.953125 4.570312 -1.835938 C 4.570312 -0.59375 5.164062 0 6.03125 0 C 7.054688 0 7.757812 -0.863281 8.929688 -3.816406 C 8.964844 -3.90625 8.980469 -3.996094 8.980469 -4.066406 C 8.980469 -4.355469 8.765625 -4.554688 8.53125 -4.554688 C 8.351562 -4.554688 8.171875 -4.445312 8.0625 -4.195312 Z M 8.0625 -4.195312 "/></g></g></g><g fill="#72bab5" fill-opacity="1"><g transform="translate(145.341028, 222.174991)"><g><path d="M 9.558594 -4.195312 C 8.855469 -2.503906 7.972656 -1.132812 7.324219 -1.132812 C 6.679688 -1.132812 6.371094 -2.304688 6.210938 -3.671875 C 7.109375 -5.164062 8.839844 -8.566406 8.839844 -10.890625 C 8.839844 -12.113281 8.226562 -12.761719 7.324219 -12.761719 C 6.101562 -12.761719 4.949219 -11.628906 4.933594 -7.144531 C 4.644531 -7.324219 4.300781 -7.433594 3.886719 -7.433594 C 1.800781 -7.433594 0.433594 -4.824219 0.433594 -2.683594 C 0.433594 -0.9375 1.441406 0.0351562 2.71875 0.0351562 C 3.851562 0.0351562 4.824219 -0.828125 5.382812 -1.90625 C 5.652344 -0.71875 6.335938 -0.0195312 7.164062 -0.0195312 C 8.605469 -0.0195312 9.628906 -1.855469 10.421875 -3.816406 C 10.457031 -3.90625 10.476562 -3.976562 10.476562 -4.066406 C 10.476562 -4.355469 10.242188 -4.589844 10.007812 -4.589844 C 9.847656 -4.589844 9.664062 -4.464844 9.558594 -4.195312 Z M 7.273438 -11.644531 C 7.507812 -11.644531 7.667969 -11.484375 7.667969 -10.925781 C 7.667969 -10.097656 7.054688 -7.453125 6.101562 -5.527344 C 6.085938 -5.941406 6.085938 -6.316406 6.085938 -6.640625 C 6.085938 -10.871094 6.859375 -11.644531 7.273438 -11.644531 Z M 2.824219 -1.078125 C 2.105469 -1.078125 1.621094 -1.585938 1.621094 -2.753906 C 1.621094 -4.300781 2.574219 -6.355469 4.03125 -6.355469 C 4.699219 -6.355469 5.148438 -5.832031 5.148438 -4.824219 C 5.148438 -2.539062 3.796875 -1.078125 2.824219 -1.078125 Z M 2.824219 -1.078125 "/></g></g></g><g fill="#72bab5" fill-opacity="1"><g transform="translate(154.305001, 222.174991)"><g><path d="M 6.605469 -4.195312 C 6.246094 -3.347656 5.8125 -2.574219 5.183594 -2.035156 C 5.203125 -2.125 5.203125 -2.214844 5.203125 -2.304688 C 5.203125 -4.015625 3.203125 -5.8125 3.203125 -6.550781 C 3.203125 -6.894531 3.546875 -7.039062 3.546875 -7.414062 C 3.546875 -7.867188 3.113281 -8.117188 2.683594 -8.117188 C 2.195312 -8.117188 1.675781 -7.777344 1.65625 -7.003906 C 1.3125 -6.011719 0.898438 -4.933594 0.59375 -4.195312 C 0.558594 -4.121094 0.539062 -4.03125 0.539062 -3.960938 C 0.539062 -3.691406 0.773438 -3.472656 1.027344 -3.472656 C 1.1875 -3.472656 1.367188 -3.582031 1.457031 -3.816406 C 1.691406 -4.390625 1.925781 -5.023438 2.195312 -5.761719 C 2.898438 -4.679688 4.015625 -3.277344 4.015625 -2.304688 C 4.015625 -1.835938 3.835938 -1.476562 3.527344 -1.296875 C 3.367188 -1.277344 3.203125 -1.261719 3.042969 -1.261719 C 2.664062 -1.261719 2.359375 -1.332031 1.996094 -1.476562 C 1.890625 -1.511719 1.800781 -1.53125 1.710938 -1.53125 C 1.367188 -1.53125 1.152344 -1.277344 1.152344 -0.972656 C 1.152344 -0.757812 1.261719 -0.523438 1.511719 -0.34375 C 1.871094 -0.0898438 2.375 0.0546875 2.878906 0.0546875 C 3.421875 0.0546875 3.960938 -0.109375 4.390625 -0.433594 C 5.6875 -0.882812 6.695312 -1.90625 7.46875 -3.816406 C 7.507812 -3.90625 7.523438 -3.996094 7.523438 -4.085938 C 7.523438 -4.375 7.308594 -4.570312 7.074219 -4.570312 C 6.894531 -4.570312 6.714844 -4.464844 6.605469 -4.195312 Z M 6.605469 -4.195312 "/></g></g></g><g fill="#72bab5" fill-opacity="1"><g transform="translate(160.316983, 222.174991)"><g><path d="M 8.875 -4.195312 C 8.011719 -2.050781 7.433594 -1.042969 6.964844 -1.042969 C 6.589844 -1.042969 6.300781 -1.351562 6.300781 -2.394531 C 6.300781 -4.15625 6.550781 -6.265625 6.550781 -6.640625 C 6.550781 -7.019531 6.300781 -7.253906 5.992188 -7.253906 C 5.6875 -7.253906 5.453125 -7.019531 5.328125 -6.660156 C 4.859375 -7.003906 4.285156 -7.164062 3.816406 -7.164062 C 2.125 -7.164062 0.433594 -5.453125 0.433594 -2.953125 C 0.433594 -1.027344 1.511719 0.0703125 2.898438 0.0703125 C 3.707031 0.0703125 4.519531 -0.304688 5.238281 -1.402344 C 5.507812 -0.414062 6.085938 0.0703125 6.894531 0.0703125 C 7.9375 0.0703125 8.746094 -1.117188 9.738281 -3.816406 C 9.773438 -3.90625 9.792969 -3.996094 9.792969 -4.066406 C 9.792969 -4.355469 9.574219 -4.554688 9.34375 -4.554688 C 9.160156 -4.554688 8.980469 -4.445312 8.875 -4.195312 Z M 3.078125 -1.042969 C 2.230469 -1.042969 1.621094 -1.65625 1.621094 -3.007812 C 1.621094 -4.878906 2.824219 -6.101562 4.03125 -6.101562 C 4.554688 -6.101562 5.074219 -5.8125 5.238281 -5.5625 C 5.273438 -2.734375 4.339844 -1.042969 3.078125 -1.042969 Z M 3.078125 -1.042969 "/></g></g></g><g fill="#72bab5" fill-opacity="1"><g transform="translate(168.596954, 222.174991)"><g><path d="M 7.972656 -4.195312 C 7.542969 -3.058594 6.730469 -1.546875 5.921875 -0.773438 C 5.921875 -0.847656 5.941406 -0.898438 5.941406 -0.953125 C 6.085938 -2.503906 6.210938 -4.699219 6.355469 -6.605469 C 6.390625 -7.054688 6.085938 -7.273438 5.777344 -7.273438 C 5.488281 -7.273438 5.183594 -7.074219 5.164062 -6.695312 C 5.128906 -6.011719 5.074219 -5.257812 5.023438 -4.464844 C 4.714844 -2.160156 3.402344 -1.097656 2.484375 -1.097656 C 1.871094 -1.097656 1.566406 -1.421875 1.566406 -2.089844 C 1.566406 -3.132812 1.996094 -4.914062 1.996094 -6.226562 C 1.996094 -6.894531 1.476562 -7.46875 0.847656 -7.46875 C 0.503906 -7.46875 0.269531 -7.253906 0.269531 -6.949219 C 0.269531 -6.480469 0.792969 -6.535156 0.792969 -5.867188 C 0.792969 -4.984375 0.378906 -3.402344 0.378906 -2.015625 C 0.378906 -0.792969 1.207031 0.0195312 2.394531 0.0195312 C 3.167969 0.0195312 4.050781 -0.46875 4.769531 -1.546875 C 4.769531 -1.332031 4.753906 -1.152344 4.734375 -0.953125 C 4.714844 -0.628906 4.679688 -0.34375 4.660156 -0.0546875 C 2.734375 0.917969 1.601562 1.710938 1.601562 3.007812 C 1.601562 3.835938 2.269531 4.5 3.3125 4.5 C 4.753906 4.5 5.542969 3.097656 5.761719 1.027344 C 5.777344 0.917969 5.777344 0.808594 5.796875 0.683594 C 7.21875 -0.394531 8.191406 -2.050781 8.839844 -3.816406 C 8.875 -3.90625 8.890625 -3.976562 8.890625 -4.050781 C 8.890625 -4.355469 8.65625 -4.554688 8.425781 -4.554688 C 8.261719 -4.554688 8.082031 -4.445312 7.972656 -4.195312 Z M 3.3125 3.382812 C 2.988281 3.382812 2.773438 3.1875 2.773438 2.878906 C 2.773438 2.320312 3.402344 1.78125 4.519531 1.1875 C 4.320312 2.734375 3.996094 3.382812 3.3125 3.382812 Z M 3.3125 3.382812 "/></g></g></g><g fill="#72bab5" fill-opacity="1"><g transform="translate(175.976928, 222.174991)"><g/></g></g><g fill="#72bab5" fill-opacity="1"><g transform="translate(179.486922, 222.174991)"><g><path d="M 6.121094 0.160156 C 8.082031 0.160156 9.863281 -0.972656 10.996094 -3.816406 C 11.035156 -3.90625 11.050781 -3.976562 11.050781 -4.050781 C 11.050781 -4.339844 10.816406 -4.554688 10.585938 -4.554688 C 10.421875 -4.554688 10.242188 -4.445312 10.132812 -4.195312 C 9.144531 -1.855469 7.738281 -0.972656 6.226562 -0.972656 C 4.390625 -0.972656 2.933594 -2.429688 2.933594 -4.96875 C 2.933594 -8.136719 4.769531 -11.664062 7.074219 -11.664062 C 7.9375 -11.664062 8.425781 -11.179688 8.425781 -10.492188 C 8.425781 -9.808594 8.046875 -9.378906 8.046875 -8.890625 C 8.046875 -8.640625 8.226562 -8.460938 8.550781 -8.460938 C 8.800781 -8.460938 9 -8.640625 9.160156 -8.890625 C 9.449219 -9.359375 9.59375 -10.097656 9.59375 -10.53125 C 9.59375 -11.84375 8.621094 -12.796875 7.09375 -12.796875 C 3.886719 -12.796875 1.675781 -8.710938 1.675781 -5.058594 C 1.675781 -1.675781 3.601562 0.160156 6.121094 0.160156 Z M 6.121094 0.160156 "/></g></g></g><g fill="#72bab5" fill-opacity="1"><g transform="translate(189.026888, 222.174991)"><g><path d="M 7.8125 -4.195312 C 7.453125 -3.347656 6.984375 -2.824219 6.371094 -2.628906 C 6.535156 -3.097656 6.605469 -3.636719 6.605469 -4.195312 C 6.605469 -5.6875 5.941406 -6.75 5.058594 -7.09375 C 4.734375 -7.21875 4.246094 -7.34375 3.816406 -7.34375 C 1.90625 -7.34375 0.394531 -5.472656 0.394531 -3.058594 C 0.394531 -1.152344 1.457031 0.0351562 3.113281 0.0351562 C 4.265625 0.0351562 5.238281 -0.558594 5.867188 -1.511719 C 7.003906 -1.601562 8.101562 -2.359375 8.675781 -3.816406 C 8.710938 -3.925781 8.730469 -4.03125 8.730469 -4.121094 C 8.730469 -4.429688 8.53125 -4.625 8.296875 -4.625 C 8.136719 -4.625 7.9375 -4.5 7.8125 -4.195312 Z M 5.128906 -2.574219 C 4.339844 -2.789062 3.691406 -3.511719 3.691406 -4.660156 C 3.691406 -5.578125 3.976562 -6.085938 4.445312 -6.085938 C 5.058594 -6.085938 5.417969 -5.347656 5.417969 -4.175781 C 5.417969 -3.582031 5.308594 -3.023438 5.128906 -2.574219 Z M 3.148438 -1.078125 C 2.050781 -1.078125 1.585938 -2.035156 1.585938 -3.113281 C 1.585938 -4.230469 2.070312 -5.488281 2.953125 -6.011719 C 2.734375 -5.617188 2.609375 -5.128906 2.609375 -4.589844 C 2.609375 -3.078125 3.457031 -2.070312 4.554688 -1.675781 C 4.175781 -1.296875 3.691406 -1.078125 3.148438 -1.078125 Z M 3.148438 -1.078125 "/></g></g></g><g fill="#72bab5" fill-opacity="1"><g transform="translate(196.244871, 222.174991)"><g><path d="M 11.304688 -4.195312 C 11.089844 -3.652344 10.800781 -3.238281 10.386719 -3.238281 C 10.117188 -3.238281 9.863281 -3.4375 9.664062 -3.816406 C 9.828125 -4.375 9.917969 -4.984375 9.917969 -5.597656 C 9.917969 -6.640625 9.539062 -7.199219 9.035156 -7.199219 C 8.550781 -7.199219 8.171875 -6.660156 8.171875 -5.597656 C 8.171875 -4.894531 8.296875 -4.285156 8.496094 -3.796875 C 8.011719 -2.160156 6.875 -1.207031 6.265625 -1.207031 C 5.777344 -1.207031 5.507812 -1.601562 5.507812 -2.320312 C 5.507812 -3.238281 5.832031 -4.15625 5.832031 -5.976562 C 5.832031 -6.40625 5.632812 -6.625 5.257812 -6.625 C 4.894531 -6.625 4.644531 -6.355469 4.644531 -5.941406 C 4.644531 -5.347656 4.609375 -4.84375 4.570312 -4.410156 C 4.195312 -1.78125 2.933594 -1.042969 2.375 -1.042969 C 1.890625 -1.042969 1.546875 -1.367188 1.546875 -2.304688 C 1.546875 -3.238281 1.960938 -5.363281 1.960938 -6.460938 C 1.960938 -7.054688 1.800781 -7.289062 1.402344 -7.289062 C 0.972656 -7.289062 0.773438 -7.019531 0.773438 -6.460938 C 0.773438 -5.472656 0.359375 -3.601562 0.359375 -2.285156 C 0.359375 -0.773438 1.207031 0.0703125 2.214844 0.0703125 C 3.167969 0.0703125 3.925781 -0.503906 4.480469 -1.332031 C 4.714844 -0.523438 5.273438 -0.0898438 6.121094 -0.0898438 C 7.363281 -0.0898438 8.566406 -1.1875 9.269531 -2.699219 C 9.613281 -2.410156 10.007812 -2.269531 10.386719 -2.269531 C 11.160156 -2.269531 11.808594 -2.808594 12.167969 -3.816406 C 12.203125 -3.90625 12.222656 -3.976562 12.222656 -4.050781 C 12.222656 -4.355469 11.988281 -4.535156 11.753906 -4.535156 C 11.574219 -4.535156 11.394531 -4.429688 11.304688 -4.195312 Z M 11.304688 -4.195312 "/></g></g></g><g fill="#72bab5" fill-opacity="1"><g transform="translate(206.954835, 222.174991)"><g><path d="M 7.46875 -4.195312 C 6.625 -2.050781 5.527344 -0.988281 3.835938 -0.988281 C 2.683594 -0.988281 1.746094 -1.78125 1.65625 -3.292969 C 2.125 -3.042969 2.734375 -2.878906 3.402344 -2.878906 C 4.984375 -2.878906 6.011719 -3.90625 6.011719 -5.238281 C 6.011719 -6.445312 5.09375 -7.324219 3.707031 -7.324219 C 1.636719 -7.324219 0.449219 -5.453125 0.449219 -3.527344 C 0.449219 -1.132812 1.960938 0.125 3.761719 0.125 C 5.8125 0.125 7.34375 -1.171875 8.335938 -3.816406 C 8.371094 -3.925781 8.386719 -4.015625 8.386719 -4.105469 C 8.386719 -4.410156 8.171875 -4.589844 7.957031 -4.589844 C 7.777344 -4.589844 7.578125 -4.464844 7.46875 -4.195312 Z M 3.707031 -6.210938 C 4.464844 -6.210938 4.84375 -5.742188 4.84375 -5.21875 C 4.84375 -4.480469 4.300781 -3.871094 3.328125 -3.871094 C 2.84375 -3.871094 2.230469 -3.996094 1.710938 -4.285156 C 1.945312 -5.328125 2.664062 -6.210938 3.707031 -6.210938 Z M 3.707031 -6.210938 "/></g></g></g><g fill="#72bab5" fill-opacity="1"><g transform="translate(213.830811, 222.174991)"><g><path d="M 8.0625 -4.195312 C 7.144531 -1.996094 6.679688 -1.117188 6.210938 -1.117188 C 5.941406 -1.117188 5.761719 -1.296875 5.761719 -1.726562 C 5.761719 -2.878906 6.046875 -4.644531 6.046875 -5.488281 C 6.046875 -6.480469 5.382812 -7.144531 4.390625 -7.144531 C 3.457031 -7.144531 2.574219 -6.605469 1.890625 -5.578125 C 1.925781 -5.957031 1.960938 -6.300781 1.960938 -6.535156 C 1.960938 -6.929688 1.691406 -7.128906 1.402344 -7.128906 C 1.117188 -7.128906 0.808594 -6.910156 0.773438 -6.515625 C 0.648438 -5.09375 0.449219 -1.996094 0.449219 -0.574219 C 0.449219 -0.179688 0.738281 0.0195312 1.027344 0.0195312 C 1.332031 0.0195312 1.636719 -0.179688 1.636719 -0.574219 C 1.636719 -1.207031 1.65625 -1.890625 1.691406 -2.59375 C 1.925781 -4.589844 3.132812 -6.046875 4.105469 -6.046875 C 4.589844 -6.046875 4.859375 -5.761719 4.859375 -5.203125 C 4.859375 -4.589844 4.570312 -2.953125 4.570312 -1.835938 C 4.570312 -0.59375 5.164062 0 6.03125 0 C 7.054688 0 7.757812 -0.863281 8.929688 -3.816406 C 8.964844 -3.90625 8.980469 -3.996094 8.980469 -4.066406 C 8.980469 -4.355469 8.765625 -4.554688 8.53125 -4.554688 C 8.351562 -4.554688 8.171875 -4.445312 8.0625 -4.195312 Z M 8.0625 -4.195312 "/></g></g></g></svg>