<?xml version="1.0" encoding="UTF-8" standalone="no"?>
<!DOCTYPE svg PUBLIC "-//W3C//DTD SVG 1.1//EN" "http://www.w3.org/Graphics/SVG/1.1/DTD/svg11.dtd">
<svg width="100%" height="100%" viewBox="0 0 336 85" version="1.1" xmlns="http://www.w3.org/2000/svg" xmlns:xlink="http://www.w3.org/1999/xlink" xml:space="preserve" xmlns:serif="http://www.serif.com/" style="fill-rule:evenodd;clip-rule:evenodd;stroke-linejoin:round;stroke-miterlimit:2;">
    <g transform="matrix(1,0,0,1,-18.5028,-265.649)">
        <g id="logo-lindsay-doyle" transform="matrix(1,0,0,1,-17.0296,207.394)">
            <g id="logo-text-bottom" transform="matrix(3.49807,0,0,3.49807,-378.551,-181.904)">
                <text x="142.742px" y="88.685px" style="font-family:'ZeutyScript-Script', 'Zeuty Script';font-size:7.147px;fill:rgb(254,246,248);">by<tspan x="148.245px 149.388px 152.776px 154.641px 157.543px 160.523px 162.71px 165.447px 168.156px 169.299px 173.173px 175.746px 178.454px " y="88.685px 88.685px 88.685px 88.685px 88.685px 88.685px 88.685px 88.685px 88.685px 88.685px 88.685px 88.685px 88.685px "> Lindsay Doyl</tspan>e</text>
            </g>
            <g id="logo-text-top" transform="matrix(3.49807,0,0,3.49807,-380.442,-210.944)">
                <text x="142.742px" y="88.685px" style="font-family:'QuickensRegular', 'Quickens';font-size:12px;fill:rgb(254,246,248);">OF<tspan x="157.694px 163.826px 166.55px 172.25px 181.07px 183.794px 189.578px 195.506px 201.674px 207.842px " y="88.685px 88.685px 88.685px 88.685px 88.685px 88.685px 88.685px 88.685px 88.685px 88.685px ">F TO SLEEP</tspan></text>
            </g>
            <g id="sheep" transform="matrix(1,0,0,1,-226.805,-102.594)">
                <g id="feet" transform="matrix(1,0,0,1,1.17361,1)">
                    <g transform="matrix(1,0,0,1,31.3533,-10.4239)">
                        <path d="M256.88,241.319L256.88,253.155C256.88,253.935 255.939,254.41 255.468,254.567C254.998,254.724 254.527,253.697 254.056,253.697C253.586,253.697 253.115,254.658 252.644,254.567C252.173,254.477 251.232,253.935 251.232,253.155L251.232,241.319C251.232,240.539 251.865,239.906 252.644,239.906L255.468,239.906C256.248,239.906 256.88,240.539 256.88,241.319Z" style="fill:rgb(165,106,67);"/>
                    </g>
                    <g transform="matrix(1,0,0,1,60.9867,-10.4239)">
                        <path d="M256.88,241.319L256.88,253.155C256.88,253.935 255.939,254.41 255.468,254.567C254.998,254.724 254.527,253.697 254.056,253.697C253.586,253.697 253.115,254.658 252.644,254.567C252.173,254.477 251.232,253.935 251.232,253.155L251.232,241.319C251.232,240.539 251.865,239.906 252.644,239.906L255.468,239.906C256.248,239.906 256.88,240.539 256.88,241.319Z" style="fill:rgb(165,106,67);"/>
                    </g>
                </g>
                <g id="body" transform="matrix(0.815181,-0.176374,0.176374,0.815181,207.841,53.0776)">
                    <circle cx="72.409" cy="195.791" r="38.436" style="fill:rgb(249,234,176);"/>
                    <path d="M80.501,155.133C79.528,151.577 76.271,148.962 72.409,148.962C72.409,148.962 72.409,148.962 72.409,148.962C68.631,148.962 65.433,151.463 64.382,154.899C62.11,152.11 58.198,151.002 54.697,152.434C54.697,152.434 54.697,152.434 54.697,152.434C51.12,153.898 49.096,157.555 49.545,161.216C46.351,159.377 42.199,159.812 39.455,162.53C39.455,162.53 39.455,162.53 39.455,162.53C36.712,165.248 36.239,169.396 38.048,172.607C34.391,172.124 30.716,174.114 29.219,177.676C29.219,177.676 29.219,177.676 29.219,177.676C27.721,181.242 28.875,185.263 31.783,187.536C28.224,188.495 25.595,191.741 25.58,195.605C25.58,195.605 25.58,195.605 25.58,195.605C25.565,199.467 28.167,202.734 31.718,203.721C28.792,205.971 27.606,209.982 29.075,213.56C29.075,213.56 29.075,213.56 29.075,213.56C30.544,217.135 34.204,219.154 37.864,218.7C36.029,221.896 36.469,226.049 39.191,228.788C39.191,228.788 39.191,228.788 39.191,228.788C41.913,231.528 46.062,231.996 49.27,230.182C48.792,233.84 50.787,237.512 54.351,239.005C54.351,239.005 54.351,239.005 54.351,239.005C57.919,240.498 61.938,239.339 64.208,236.427C65.172,239.986 68.421,242.61 72.284,242.62C72.284,242.62 72.284,242.62 72.284,242.62C76.147,242.63 79.411,240.023 80.393,236.471C82.647,239.394 86.66,240.575 90.235,239.101C90.235,239.101 90.235,239.101 90.235,239.101C93.808,237.627 95.822,233.965 95.364,230.305C98.562,232.136 102.714,231.69 105.45,228.965C105.45,228.965 105.45,228.965 105.45,228.965C108.186,226.239 108.649,222.09 106.83,218.884C110.489,219.357 114.159,217.357 115.646,213.791C115.646,213.791 115.646,213.791 115.646,213.79C117.135,210.221 115.97,206.203 113.056,203.938C116.613,202.969 119.232,199.716 119.237,195.853C119.237,195.853 119.237,195.853 119.237,195.853C119.242,191.99 116.631,188.73 113.077,187.752C115.998,185.495 117.173,181.48 115.694,177.907C115.694,177.907 115.694,177.907 115.694,177.907C114.216,174.336 110.552,172.327 106.892,172.79C108.719,169.589 108.267,165.438 105.538,162.705C105.538,162.705 105.538,162.705 105.538,162.705C102.809,159.973 98.659,159.516 95.456,161.338C95.924,157.679 93.919,154.012 90.35,152.529C90.35,152.529 90.35,152.529 90.35,152.529C86.779,151.045 82.763,152.215 80.501,155.133ZM72.409,157.355C93.622,157.355 110.845,174.578 110.845,195.791C110.845,217.004 93.622,234.227 72.409,234.227C51.195,234.227 33.973,217.004 33.973,195.791C33.973,174.578 51.195,157.355 72.409,157.355Z" style="fill:rgb(249,234,176);"/>
                </g>
                <g id="face" transform="matrix(1,0,0,1,0.342751,0)">
                    <g transform="matrix(1,0,0,1,241.957,14.0149)">
                        <path d="M73.227,193.332C73.227,200.422 66.16,204.676 59.098,204.676C52.035,204.676 44.973,200.422 44.973,193.332C44.957,190.75 45.27,188.176 45.902,185.672C46.41,183.398 47.438,181.277 48.914,179.477C52.258,180.219 55.676,180.586 59.098,180.566C62.523,180.586 65.941,180.219 69.285,179.477C70.758,181.277 71.789,183.398 72.293,185.672C72.926,188.176 73.238,190.75 73.227,193.332Z" style="fill:rgb(203,178,146);"/>
                    </g>
                    <g transform="matrix(1,0,0,1,241.957,14.0149)">
                        <path d="M48.914,179.477C47.438,181.277 46.41,183.398 45.902,185.672C42.047,187.348 37.91,186.324 37.91,181.984C37.91,178.297 41.481,177.008 43.984,176.555C43.781,177.266 44.156,178.012 44.844,178.27C46.172,178.766 47.531,179.168 48.914,179.477Z" style="fill:rgb(251,123,118);"/>
                    </g>
                    <g transform="matrix(1,0,0,1,241.957,14.0149)">
                        <path d="M80.289,181.984C80.289,186.324 76.148,187.348 72.293,185.672C71.789,183.398 70.758,181.277 69.285,179.477C70.668,179.168 72.027,178.766 73.352,178.27C74.043,178.012 74.418,177.266 74.215,176.555C75.797,176.785 77.297,177.41 78.578,178.371C79.684,179.238 80.316,180.578 80.289,181.984Z" style="fill:rgb(251,123,118);"/>
                    </g>
                    <g transform="matrix(1,0,0,1,241.957,14.0149)">
                        <path d="M53.336,189.699C52.172,189.711 51.023,189.445 49.988,188.922C49.352,188.539 49.121,187.727 49.453,187.066C49.789,186.402 50.574,186.109 51.258,186.395C52.656,187.004 54.242,187.004 55.637,186.395C56.32,186.109 57.109,186.402 57.441,187.066C57.773,187.727 57.543,188.539 56.91,188.922C55.789,189.438 54.566,189.703 53.336,189.699Z" style="fill:rgb(95,83,70);"/>
                    </g>
                    <g transform="matrix(1,0,0,1,241.957,14.0149)">
                        <path d="M64.637,189.699C63.473,189.711 62.328,189.445 61.289,188.922C60.652,188.539 60.422,187.727 60.758,187.066C61.09,186.402 61.875,186.109 62.559,186.395C63.957,187.004 65.543,187.004 66.938,186.395C67.391,186.121 67.961,186.125 68.41,186.406C68.863,186.688 69.117,187.195 69.074,187.727C69.031,188.254 68.699,188.715 68.211,188.922C67.09,189.438 65.871,189.703 64.637,189.699Z" style="fill:rgb(95,83,70);"/>
                    </g>
                    <g transform="matrix(1,0,0,1,241.957,14.0149)">
                        <path d="M63.18,192.691C62.828,191.996 61.984,191.719 61.289,192.07L59.098,193.16L56.91,192.07C56.227,191.785 55.438,192.074 55.106,192.738C54.77,193.402 55.004,194.211 55.637,194.594L57.688,195.629L57.688,196.168C57.688,196.949 58.32,197.586 59.098,197.586C59.879,197.586 60.512,196.949 60.512,196.168L60.512,195.629L62.559,194.594C63.254,194.238 63.531,193.391 63.18,192.691Z" style="fill:rgb(95,83,70);"/>
                    </g>
                    <g id="hat" transform="matrix(1,0,0,1,-0.342751,0)">
                        <g transform="matrix(1,0,0,1,242.36,14.0844)">
                            <path d="M78.578,178.371C77.297,177.41 75.797,176.785 74.215,176.555L74.215,176.426C73.691,174.832 72.879,173.352 71.813,172.059C71.813,172.059 67.574,174.895 59.098,174.895C50.621,174.895 46.338,172.059 46.338,172.059C46.338,172.059 46.383,159.293 59.098,159.293C71.813,159.293 81.703,170.641 84.527,176.312C86.32,179.93 82.406,179.52 78.578,178.371Z" style="fill:rgb(59,151,211);"/>
                        </g>
                        <g transform="matrix(1,0,0,1,242.36,14.0844)">
                            <path d="M70.398,176.965C69.621,176.965 68.988,176.332 68.988,175.547L68.988,172.059C68.453,170.797 67.625,169.684 66.57,168.812C66.019,168.254 66.019,167.352 66.57,166.797C67.125,166.242 68.023,166.242 68.578,166.797C71.574,169.816 71.813,171.59 71.813,172.059L71.813,175.547C71.813,176.332 71.18,176.965 70.398,176.965Z" style="fill:rgb(41,128,186);"/>
                        </g>
                        <g transform="matrix(1.0016,0,0,1,242.242,14.0844)">
                            <path d="M73.352,178.27C72.027,178.766 70.668,179.168 69.285,179.477C65.941,180.219 62.523,180.586 59.098,180.566C55.676,180.586 52.258,180.219 48.914,179.477C47.531,179.168 46.172,178.766 44.844,178.27C44.156,178.012 43.781,177.266 43.984,176.555L43.984,176.426C44.504,174.832 45.32,173.352 46.383,172.059C46.383,172.059 50.621,174.895 59.098,174.895C67.574,174.895 71.813,172.059 71.813,172.059C72.863,173.355 73.707,174.836 74.215,176.426L74.215,176.555C74.422,177.254 74.023,177.996 73.352,178.27Z" style="fill:rgb(240,196,25);"/>
                        </g>
                    </g>
                </g>
            </g>
        </g>
    </g>
</svg>
