<?xml version="1.0" encoding="UTF-8" standalone="no"?><!DOCTYPE svg PUBLIC "-//W3C//DTD SVG 1.1//EN" "http://www.w3.org/Graphics/SVG/1.1/DTD/svg11.dtd"><svg width="100%" height="100%" viewBox="0 0 1422 352" version="1.1" xmlns="http://www.w3.org/2000/svg" xmlns:xlink="http://www.w3.org/1999/xlink" xml:space="preserve" xmlns:serif="http://www.serif.com/" style="fill-rule:evenodd;clip-rule:evenodd;stroke-linejoin:round;stroke-miterlimit:2;"><g id="logo-no-name"><text id="logo-text-bottom" x="380.157px" y="283.609px" style="font-family:'QuickensRegular', 'Quickens';font-size:104.167px;fill:#fef6f8;">S<tspan x="439.636px 500.365px 563.178px 625.99px 700.886px 733.803px 804.324px 890.157px 971.719px 1031.2px 1106.72px 1160.57px 1223.91px 1262.97px 1344.53px " y="283.609px 283.609px 283.609px 283.609px 283.609px 283.609px 283.609px 283.609px 283.609px 283.609px 283.609px 283.609px 283.609px 283.609px 283.609px ">LEEP CONSULTING</tspan></text><text id="logo-text-top" x="372.275px" y="179.274px" style="font-family:'QuickensRegular', 'Quickens';font-size:174.904px;fill:#fef6f8;">O<tspan x="500.83px 590.205px 679.581px 719.284px 802.363px 930.918px 970.621px 1054.92px 1141.33px 1231.23px 1321.13px " y="179.274px 179.274px 179.274px 179.274px 179.274px 179.274px 179.274px 179.274px 179.274px 179.274px 179.274px ">FF TO SLEEP</tspan></text><g id="sheep"><g id="feet"><path d="M112.792,296.023l0,49.32c0,3.247 -3.922,5.23 -5.883,5.883c-1.962,0.654 -3.923,-3.625 -5.884,-3.625c-1.961,-0 -3.923,4.002 -5.884,3.625c-1.961,-0.376 -5.884,-2.636 -5.884,-5.883l0,-49.32c0,-3.247 2.637,-5.883 5.884,-5.883l11.768,-0c3.247,-0 5.883,2.636 5.883,5.883Z" style="fill:#a56a43;"/><path d="M236.265,296.023l0,49.32c0,3.247 -3.922,5.23 -5.884,5.883c-1.961,0.654 -3.922,-3.625 -5.883,-3.625c-1.962,-0 -3.923,4.002 -5.884,3.625c-1.961,-0.376 -5.884,-2.636 -5.884,-5.883l0,-49.32c0,-3.247 2.636,-5.883 5.884,-5.883l11.767,-0c3.248,-0 5.884,2.636 5.884,5.883Z" style="fill:#a56a43;"/></g><path id="body" d="M134.515,32.21c72.053,-15.59 143.208,30.252 158.797,102.305c15.59,72.053 -30.251,143.208 -102.304,158.797c-72.054,15.59 -143.208,-30.251 -158.798,-102.304c-15.59,-72.054 30.252,-143.208 102.305,-158.798Z" style="fill:#f9eab0;"/><path d="M160.37,18.715c-5.919,-11.361 -18.902,-17.851 -32.023,-15.012c0,-0 0,-0 0,-0c-12.831,2.776 -21.855,13.621 -22.899,26.064c-9.768,-7.805 -23.87,-8.694 -34.707,-1.256c-0,0 -0,0 -0,0c-11.075,7.601 -15.262,21.511 -11.046,33.616c-12.2,-3.901 -25.985,0.628 -33.306,11.876c0,0 0,0 -0,0c-7.32,11.249 -5.879,25.688 2.627,35.262c-12.776,1.048 -23.798,10.507 -26.265,23.708c0,0 0,0 0,0.001c-2.468,13.211 4.406,26.02 15.956,31.604c-11.385,5.872 -17.927,18.831 -15.14,31.964c0,0 0,0 0,0c2.788,13.132 14.028,22.316 26.815,23.058c-8.287,9.792 -9.368,24.289 -1.748,35.36c-0,0 0,0 0,0c7.616,11.064 21.531,15.233 33.63,11.001c-3.885,12.205 0.663,25.985 11.921,33.29c-0,0 -0,0 -0,0c11.258,7.306 25.695,5.846 35.258,-2.673c1.065,12.775 10.538,23.784 23.743,26.233c0,-0 0,-0 0,-0c13.215,2.451 26.015,-4.441 31.583,-15.997c5.89,11.378 18.856,17.901 31.984,15.096c-0,0 0,0 0,0c13.128,-2.804 22.297,-14.056 23.023,-26.845c9.803,8.274 24.302,9.336 35.362,1.701c0,-0 0,-0 0,-0c11.054,-7.631 15.204,-21.552 10.957,-33.645c12.209,3.869 25.983,-0.697 33.274,-11.964c-0,-0 -0,-0 -0,-0c7.29,-11.268 5.811,-25.703 -2.72,-35.255c12.773,-1.082 23.77,-10.571 26.201,-23.779c0,0 0,0 0,0c2.433,-13.218 -4.475,-26.009 -16.04,-31.561c11.37,-5.905 17.877,-18.88 15.055,-32.004c0,0 0,0 0,0c-2.822,-13.124 -14.086,-22.278 -26.876,-22.988c8.261,-9.814 9.303,-24.314 1.653,-35.364c0,-0 0,-0 0,-0.001c-7.644,-11.042 -21.568,-15.173 -33.658,-10.911c3.852,-12.214 -0.732,-25.982 -12.009,-33.258c-0,0 -0,0 -0,0c-11.277,-7.276 -25.71,-5.777 -35.252,2.767c-1.099,-12.773 -10.602,-23.756 -23.813,-26.17c-0,0 -0,0 -0,0c-13.221,-2.415 -26.003,4.51 -31.54,16.082Zm-25.855,13.495c72.053,-15.59 143.208,30.252 158.797,102.305c15.59,72.053 -30.251,143.208 -102.304,158.797c-72.054,15.59 -143.208,-30.251 -158.798,-102.304c-15.59,-72.054 30.252,-143.208 102.305,-158.798Z" style="fill:#f9eab0;"/><path d="M162.761,26.35c75.288,-0 136.412,61.124 136.412,136.411c-0,75.288 -61.124,136.412 -136.412,136.412c-75.287,-0 -136.411,-61.124 -136.411,-136.412c-0,-75.287 61.124,-136.411 136.411,-136.411Zm0,68.205c37.644,0 68.206,30.562 68.206,68.206c0,37.644 -30.562,68.206 -68.206,68.206c-37.644,0 -68.206,-30.562 -68.206,-68.206c0,-37.644 30.562,-68.206 68.206,-68.206Z" style="fill:#f9eab0;"/><g id="face"><path d="M221.622,193.741c-0,29.542 -29.444,47.267 -58.871,47.267c-29.427,0 -58.854,-17.725 -58.854,-47.267c-0.065,-10.758 1.237,-21.483 3.874,-31.916c2.116,-9.475 6.396,-18.313 12.549,-25.813c13.932,3.092 28.173,4.621 42.431,4.538c14.274,0.083 28.516,-1.446 42.448,-4.538c6.136,7.5 10.433,16.338 12.533,25.813c2.636,10.433 3.939,21.158 3.89,31.916Z" style="fill:#cbb292;"/><path d="M120.32,136.012c-6.153,7.5 -10.433,16.338 -12.549,25.813c-16.065,6.983 -33.301,2.716 -33.301,-15.367c0,-15.362 14.876,-20.733 25.309,-22.621c-0.846,2.963 0.716,6.071 3.581,7.146c5.534,2.067 11.198,3.742 16.96,5.029Z" style="fill:#fb7b76;"/><path d="M251.049,146.458c-0,18.083 -17.253,22.35 -33.317,15.367c-2.1,-9.475 -6.397,-18.313 -12.533,-25.813c5.762,-1.287 11.426,-2.962 16.944,-5.029c2.88,-1.075 4.443,-4.183 3.596,-7.146c6.592,0.959 12.842,3.563 18.181,7.567c4.606,3.612 7.243,9.196 7.129,15.054Z" style="fill:#fb7b76;"/><path d="M138.744,178.604c-4.85,0.05 -9.636,-1.058 -13.948,-3.238c-2.653,-1.595 -3.614,-4.979 -2.23,-7.733c1.4,-2.767 4.671,-3.987 7.519,-2.796c5.827,2.538 12.435,2.538 18.246,0c2.848,-1.191 6.136,0.029 7.519,2.796c1.383,2.754 0.423,6.138 -2.213,7.733c-4.671,2.15 -9.766,3.255 -14.893,3.238Z" style="fill:#5f5346;"/><path d="M185.831,178.604c-4.85,0.05 -9.62,-1.058 -13.949,-3.238c-2.653,-1.595 -3.613,-4.979 -2.214,-7.733c1.384,-2.767 4.655,-3.987 7.504,-2.796c5.826,2.538 12.435,2.538 18.245,0c1.888,-1.141 4.264,-1.125 6.136,0.046c1.888,1.175 2.946,3.288 2.767,5.504c-0.179,2.196 -1.562,4.117 -3.597,4.979c-4.671,2.15 -9.749,3.255 -14.892,3.238Z" style="fill:#5f5346;"/><path d="M179.76,191.071c-1.465,-2.896 -4.981,-4.05 -7.878,-2.588l-9.131,4.542l-9.114,-4.542c-2.849,-1.187 -6.136,0.017 -7.52,2.783c-1.4,2.767 -0.423,6.138 2.214,7.734l8.545,4.312l-0,2.246c-0,3.254 2.636,5.908 5.875,5.908c3.255,0 5.892,-2.654 5.892,-5.908l0,-2.246l8.529,-4.312c2.897,-1.484 4.052,-5.013 2.588,-7.929Z" style="fill:#5f5346;"/><g id="hat"><path d="M244.173,131.694c-5.338,-4.005 -11.588,-6.609 -18.181,-7.567l0,-0.538c-2.18,-6.641 -5.566,-12.808 -10.009,-18.195c-0,-0 -17.66,11.816 -52.978,11.816c-35.32,0 -53.165,-11.816 -53.165,-11.816c0,-0 0.186,-53.192 53.165,-53.192c52.978,-0 94.189,47.283 105.956,70.912c7.471,15.075 -8.838,13.367 -24.788,8.58Z" style="fill:#3b97d3;"/><path d="M210.091,125.835c-3.239,0 -5.876,-2.637 -5.876,-5.908l0,-14.533c-2.23,-5.259 -5.68,-9.896 -10.075,-13.53c-2.295,-2.325 -2.295,-6.083 0,-8.395c2.312,-2.313 6.055,-2.313 8.366,-0c12.484,12.579 13.477,19.97 13.477,21.925l-0,14.533c-0,3.271 -2.637,5.908 -5.892,5.908Z" style="fill:#2980ba;"/><path d="M222.39,131.273c-5.527,2.066 -11.2,3.741 -16.97,5.029c-13.955,3.092 -28.22,4.621 -42.516,4.537c-14.281,0.084 -28.545,-1.445 -42.5,-4.537c-5.771,-1.288 -11.444,-2.963 -16.986,-5.029c-2.87,-1.075 -4.435,-4.184 -3.587,-7.146l0,-0.538c2.168,-6.641 5.575,-12.808 10.009,-18.195c0,-0 17.688,11.816 53.064,11.816c35.375,0 53.063,-11.816 53.063,-11.816c4.385,5.4 7.906,11.57 10.025,18.195l0,0.538c0.864,2.912 -0.798,6.004 -3.602,7.146Z" style="fill:#f0c419;"/></g></g></g></g></svg>