<?xml version="1.0" encoding="UTF-8" standalone="no"?><!DOCTYPE svg PUBLIC "-//W3C//DTD SVG 1.1//EN" "http://www.w3.org/Graphics/SVG/1.1/DTD/svg11.dtd"><svg width="100%" height="100%" viewBox="0 0 5925 1467" version="1.1" xmlns="http://www.w3.org/2000/svg" xmlns:xlink="http://www.w3.org/1999/xlink" xml:space="preserve" xmlns:serif="http://www.serif.com/" style="fill-rule:evenodd;clip-rule:evenodd;stroke-linejoin:round;stroke-miterlimit:2;"><g id="logo-lindsay-doyle"><g id="logo-text-bottom"><path d="M1784.07,1051.5c2.605,2.605 4.485,5.209 5.643,7.813c0.868,2.315 1.085,4.63 0.651,6.944c-0.434,2.315 -2.387,4.485 -5.86,6.511c-2.893,1.447 -7.016,3.4 -12.369,5.859c-5.353,2.46 -11.068,4.847 -17.145,7.162c-6.076,2.315 -11.791,4.412 -17.144,6.293c-5.353,1.881 -9.476,2.966 -12.369,3.255c-1.158,0.29 -1.881,1.013 -2.171,2.171c-2.893,5.497 -5.787,10.778 -8.68,15.842c-2.894,5.063 -6.366,10.055 -10.417,14.974c-4.63,5.497 -10.417,9.982 -17.361,13.454c-8.97,4.919 -18.374,4.63 -28.212,-0.868c-4.34,-2.025 -7.813,-5.063 -10.417,-9.114c-3.183,-5.209 -3.617,-11.285 -1.302,-18.229c2.894,-8.97 8.825,-15.915 17.795,-20.834c5.209,-3.183 10.634,-5.859 16.277,-8.029c5.642,-2.17 11.357,-4.124 17.144,-5.86c3.183,-1.157 5.353,-3.327 6.51,-6.51c2.026,-4.34 3.834,-8.825 5.425,-13.455c1.592,-4.63 2.677,-9.404 3.256,-14.323c0.289,-1.447 0.434,-2.749 0.434,-3.906l-0,-3.907c-0,-2.025 -0.145,-3.472 -0.434,-4.34c-0.29,0 -0.507,0.072 -0.651,0.217c-0.145,0.145 -0.507,0.217 -1.085,0.217c-4.919,1.736 -9.404,3.906 -13.455,6.511c-4.051,2.604 -7.958,5.497 -11.719,8.68c-8.102,6.655 -15.408,13.889 -21.919,21.702c-6.51,7.812 -12.514,16.203 -18.012,25.173c-5.787,9.549 -11.429,19.242 -16.927,29.08c-5.498,9.838 -10.417,20.11 -14.757,30.816c-0.868,2.026 -1.664,4.051 -2.387,6.077c-0.723,2.025 -1.375,4.195 -1.953,6.51c-0.868,3.183 -2.894,4.775 -6.077,4.775c-7.523,0.868 -13.889,-1.303 -19.097,-6.511c-2.025,-1.736 -2.604,-3.906 -1.736,-6.51c4.919,-14.468 9.621,-28.791 14.106,-42.969c4.485,-14.179 9.042,-28.357 13.672,-42.535c0.868,-2.026 3.038,-8.536 6.51,-19.531c3.473,-10.996 7.813,-24.161 13.021,-39.497c5.208,-15.336 10.779,-31.684 16.71,-49.045c5.932,-17.362 11.647,-33.421 17.144,-48.178c5.498,-14.757 10.272,-27.054 14.323,-36.892c4.051,-9.838 6.945,-14.902 8.681,-15.191c2.315,-0.289 4.774,-0.217 7.378,0.217c2.605,0.434 4.847,1.23 6.728,2.387c1.881,1.157 3.4,2.604 4.557,4.34c1.158,1.736 1.447,3.617 0.868,5.643l-12.587,37.109c-3.472,10.272 -7.306,21.629 -11.501,34.072c-4.196,12.442 -8.392,24.667 -12.587,36.675c-4.196,12.008 -8.03,23.221 -11.502,33.637c-3.472,10.417 -6.221,18.519 -8.247,24.306c0.579,-0.579 1.013,-1.158 1.303,-1.736c4.051,-4.051 8.101,-7.885 12.152,-11.502c4.051,-3.617 8.536,-7.017 13.455,-10.2c2.604,-1.736 5.353,-3.4 8.247,-4.991c2.893,-1.591 5.932,-2.966 9.114,-4.123c8.102,-3.183 16.06,-1.881 23.872,3.906c8.391,6.366 13.31,15.191 14.757,26.476c0.579,4.051 0.94,8.174 1.085,12.37c0.145,4.195 -0.072,8.318 -0.651,12.369l0,0.434c0.579,-0.289 1.013,-0.434 1.302,-0.434c0.29,0 0.724,-0.144 1.302,-0.434c2.894,-0.868 7.017,-2.17 12.37,-3.906c5.353,-1.736 10.634,-3.327 15.842,-4.774c6.077,-1.736 12.442,-3.617 19.097,-5.643Zm-109.809,69.445l6.945,-7.812l-0.434,-0.434c-2.894,2.025 -5.209,4.774 -6.945,8.246l0.434,0Z" style="fill:#fef6f8;fill-rule:nonzero;"/><path d="M1948.57,1051.5c3.183,2.026 5.498,4.485 6.945,7.379c1.446,2.315 1.953,5.136 1.519,8.463c-0.434,3.328 -2.821,6.873 -7.162,10.634c-2.893,2.315 -7.233,6.077 -13.021,11.285c-5.787,5.208 -12.152,11.068 -19.097,17.578c-6.944,6.511 -14.178,13.455 -21.701,20.834c-7.523,7.378 -14.54,14.54 -21.051,21.484c-6.51,6.944 -12.08,13.383 -16.71,19.314c-4.629,5.932 -7.668,10.779 -9.114,14.54c-2.026,5.498 -3.762,10.2 -5.209,14.106c-1.447,3.906 -2.821,7.596 -4.123,11.068c-1.302,3.472 -2.749,7.161 -4.34,11.068c-1.592,3.906 -3.4,8.608 -5.426,14.106c-1.446,4.051 -3.11,8.102 -4.991,12.152c-1.881,4.051 -3.689,8.102 -5.425,12.153c-2.605,5.498 -6.366,10.706 -11.285,15.625c-3.183,3.473 -6.8,6.149 -10.851,8.03c-4.051,1.881 -8.246,3.255 -12.587,4.123c-7.234,1.447 -13.599,1.592 -19.097,0.434c-9.549,-2.025 -15.336,-7.812 -17.361,-17.361c-1.158,-4.34 -1.592,-8.681 -1.302,-13.021c0.289,-4.34 1.012,-8.825 2.17,-13.455c1.447,-4.919 3.544,-9.404 6.293,-13.455c2.749,-4.051 6.149,-7.957 10.2,-11.718c4.63,-4.63 9.332,-9.187 14.106,-13.672c4.774,-4.485 9.621,-9.043 14.54,-13.672l30.816,-29.514c0.289,-0.579 0.579,-1.013 0.868,-1.302c0.289,-0.29 0.579,-0.724 0.868,-1.302c2.026,-5.788 4.051,-11.502 6.077,-17.145c2.025,-5.642 4.195,-11.357 6.51,-17.144l-0,-0.868c-1.447,0.868 -2.749,1.664 -3.906,2.387c-1.158,0.724 -2.46,1.375 -3.907,1.953c-14.467,6.656 -27.777,7.09 -39.93,1.303c-2.894,-1.447 -5.498,-3.039 -7.813,-4.775c-2.315,-1.736 -4.485,-3.761 -6.51,-6.076c-4.919,-6.945 -6.221,-15.191 -3.906,-24.74c2.314,-11.863 6.076,-23.22 11.284,-34.071c5.209,-10.851 11.14,-21.485 17.795,-31.901c2.605,-4.341 5.353,-8.536 8.247,-12.587c2.894,-4.051 5.932,-7.957 9.115,-11.719c1.157,-1.157 2.17,-2.17 3.038,-3.038c0.868,-0.868 1.881,-1.736 3.038,-2.604c2.026,-1.447 4.196,-1.592 6.51,-0.434c1.447,0.578 2.677,1.157 3.69,1.736c1.012,0.579 1.953,1.302 2.821,2.17c4.051,3.183 6.655,6.8 7.812,10.851c0.579,2.314 0.507,4.195 -0.217,5.642c-0.723,1.447 -1.953,2.894 -3.689,4.34c-1.736,1.158 -2.893,2.17 -3.472,3.039c-4.919,5.497 -9.115,11.284 -12.587,17.361c-3.472,6.076 -6.944,12.297 -10.417,18.663c-3.472,6.655 -6.582,13.383 -9.331,20.182c-2.749,6.8 -4.847,13.817 -6.294,21.051c-0.289,2.025 -0.506,3.906 -0.651,5.642c-0.144,1.736 -0.217,3.472 -0.217,5.208c0,1.447 0.868,2.026 2.604,1.737c3.183,-0.868 6.005,-2.026 8.464,-3.473c2.46,-1.446 4.991,-3.038 7.596,-4.774c6.655,-4.919 12.876,-10.344 18.663,-16.276c5.787,-5.932 11.285,-12.225 16.493,-18.88c6.655,-8.392 12.659,-17.144 18.012,-26.259c5.353,-9.115 10.489,-18.302 15.408,-27.561c0.579,-1.736 1.302,-3.4 2.17,-4.991c0.868,-1.592 1.736,-3.111 2.604,-4.558c0.869,-2.314 2.605,-3.472 5.209,-3.472c1.157,0.29 2.315,0.507 3.472,0.651c1.157,0.145 2.17,0.507 3.038,1.085c2.604,1.447 4.919,3.038 6.945,4.775c2.025,1.736 3.617,4.051 4.774,6.944c1.157,2.604 1.157,5.064 0,7.379c-5.208,9.838 -10.055,19.676 -14.54,29.514c-4.485,9.838 -8.753,19.82 -12.804,29.948l-8.246,18.663l-2.822,7.812c-0.723,2.026 -1.302,3.834 -1.736,5.426c-0.434,1.591 -0.651,2.387 -0.651,2.387l73.785,-66.407Zm-144.097,166.234c0.578,-1.158 1.012,-2.315 1.302,-3.473c0.289,-1.157 0.723,-2.459 1.302,-3.906c-0.579,0.579 -0.868,0.868 -0.868,0.868c-2.026,1.447 -3.979,3.038 -5.86,4.774c-1.88,1.737 -3.834,3.473 -5.859,5.209c-1.447,1.447 -2.749,2.749 -3.906,3.906c-1.158,1.157 -2.315,2.46 -3.473,3.906c-3.761,4.341 -6.221,8.898 -7.378,13.672c-1.157,4.775 -1.447,9.621 -0.868,14.54c-0,4.051 1.157,8.102 3.472,12.153c0.579,-0.579 1.158,-1.447 1.736,-2.604c1.447,-2.315 2.821,-4.63 4.123,-6.945c1.303,-2.314 2.388,-4.629 3.256,-6.944c2.315,-5.787 4.485,-11.646 6.51,-17.578c2.026,-5.932 4.196,-11.791 6.511,-17.578Z" style="fill:#fef6f8;fill-rule:nonzero;"/><path d="M2062.72,1214.69c2.315,-0.578 4.485,-1.012 6.51,-1.302c2.026,-0.289 4.051,-0.578 6.077,-0.868c5.497,-0.578 10.923,-1.302 16.276,-2.17c5.353,-0.868 10.778,-1.591 16.276,-2.17c5.208,-0.579 10.417,-1.157 15.625,-1.736c5.208,-0.579 10.561,-1.158 16.059,-1.736c4.34,-0.579 8.753,-0.941 13.238,-1.085c4.485,-0.145 9.042,-0.507 13.672,-1.085c5.208,-0.579 10.489,-0.941 15.842,-1.086c5.353,-0.144 10.634,-0.506 15.842,-1.085l23.438,-1.302c2.604,-0.289 4.774,0.434 6.51,2.17c2.315,2.605 4.196,5.426 5.642,8.464c1.447,3.038 1.881,6.438 1.303,10.2c-0.579,3.183 -2.315,4.774 -5.209,4.774c-7.523,0.579 -15.046,1.085 -22.569,1.519c-7.524,0.434 -15.047,0.941 -22.57,1.519c-8.68,0.579 -17.361,1.23 -26.042,1.953c-8.68,0.724 -17.361,1.519 -26.041,2.388c-13.889,1.446 -27.778,3.182 -41.667,5.208c-13.889,2.025 -27.778,4.485 -41.667,7.378c-4.919,0.868 -9.693,1.809 -14.323,2.822c-4.63,1.012 -9.404,2.097 -14.323,3.255c-0.868,0.289 -1.664,0.579 -2.387,0.868c-0.723,0.289 -1.519,0.723 -2.387,1.302c-2.315,0.579 -4.196,0.289 -5.643,-0.868c-2.025,-1.158 -3.327,-2.315 -3.906,-3.472c-1.736,-2.315 -3.255,-4.63 -4.557,-6.945c-1.302,-2.315 -1.809,-5.063 -1.519,-8.246c-0,-2.894 1.302,-4.775 3.906,-5.643c3.762,-1.157 7.451,-2.17 11.068,-3.038c3.617,-0.868 7.306,-1.736 11.067,-2.604c1.447,-0.579 3.617,-1.158 6.511,-1.736c1.447,-5.787 2.966,-11.43 4.557,-16.927c1.592,-5.498 3.255,-11.14 4.992,-16.928c2.604,-9.259 5.136,-18.373 7.595,-27.343c2.46,-8.97 4.991,-17.94 7.596,-26.91c7.523,-27.199 15.625,-53.82 24.305,-79.862c8.681,-26.041 18.519,-51.938 29.514,-77.691c5.787,-13.021 11.719,-25.752 17.795,-38.194c6.077,-12.442 12.732,-24.74 19.966,-36.893c2.604,-4.051 5.28,-8.102 8.029,-12.153c2.749,-4.051 5.715,-7.957 8.898,-11.718l3.472,-3.473c2.026,-2.025 4.34,-2.604 6.945,-1.736c2.314,0.579 4.412,1.664 6.293,3.255c1.881,1.592 3.545,3.256 4.991,4.992c0.579,1.157 1.158,2.242 1.736,3.255c0.579,1.013 1.158,2.243 1.737,3.689c-0,1.447 -0.073,2.677 -0.217,3.69c-0.145,1.012 -0.796,1.953 -1.954,2.821l-7.812,8.68c-4.34,5.787 -8.319,11.864 -11.936,18.23c-3.617,6.365 -7.161,12.876 -10.634,19.531c-10.127,19.676 -19.242,39.569 -27.343,59.679c-8.102,20.11 -15.77,40.582 -23.004,61.415c-5.498,16.493 -10.634,32.914 -15.408,49.262c-4.774,16.349 -9.476,32.769 -14.106,49.263c-2.315,9.259 -4.847,18.373 -7.595,27.343c-2.749,8.97 -5.426,18.085 -8.03,27.344c-0,0.579 -0.145,1.158 -0.434,1.736Z" style="fill:#fef6f8;fill-rule:nonzero;"/><path d="M2256.73,984.221c-0.579,-1.158 -1.157,-2.026 -1.736,-2.604c-0.868,-1.736 -0.868,-3.473 -0,-5.209c2.315,-3.183 4.412,-6.438 6.293,-9.765c1.881,-3.328 3.979,-6.583 6.294,-9.766c0.578,-0.579 1.229,-1.013 1.953,-1.302c0.723,-0.289 1.374,-0.723 1.953,-1.302l-0,0.434c1.447,-0.579 2.821,-0.723 4.123,-0.434c1.302,0.289 2.677,0.723 4.124,1.302c2.314,0.868 4.412,1.808 6.293,2.821c1.881,1.013 3.545,2.532 4.991,4.557l1.302,2.605c0.579,1.446 0.434,2.893 -0.434,4.34l-11.718,18.663c-1.447,2.604 -3.762,3.906 -6.945,3.906c-0.579,0 -2.025,-0.289 -4.34,-0.868c-2.315,-0.578 -4.485,-1.446 -6.511,-2.604c-2.025,-1.157 -3.906,-2.749 -5.642,-4.774Zm67.274,67.274c4.341,1.158 7.379,3.039 9.115,5.643c1.447,2.315 1.953,5.208 1.519,8.68c-0.434,3.473 -3.255,8.102 -8.463,13.889c-6.366,6.655 -14.468,15.264 -24.306,25.825c-9.838,10.561 -20.11,20.761 -30.816,30.599c-10.706,9.838 -20.978,18.302 -30.816,25.391c-9.838,7.089 -17.94,10.634 -24.306,10.634l-4.34,-0c-2.315,-0.29 -4.413,-0.652 -6.293,-1.086c-1.881,-0.434 -3.834,-1.229 -5.86,-2.387c-6.366,-3.472 -9.983,-8.825 -10.851,-16.059c-0.578,-4.051 -0.578,-8.029 0,-11.936c0.579,-3.906 1.158,-7.884 1.737,-11.935c2.314,-15.047 6.076,-29.587 11.284,-43.62c5.209,-14.034 10.996,-27.995 17.361,-41.884c3.183,-7.523 6.583,-14.757 10.2,-21.702c3.617,-6.944 7.451,-13.889 11.502,-20.833c1.157,-2.025 3.183,-2.894 6.076,-2.604c2.604,0.289 5.064,1.447 7.379,3.472c1.736,1.447 3.327,2.894 4.774,4.34c1.447,1.447 2.604,3.328 3.472,5.643c0.868,2.604 0.579,5.063 -0.868,7.378c-3.183,5.787 -6.148,11.719 -8.897,17.795c-2.749,6.077 -5.57,12.153 -8.464,18.23c-3.761,8.391 -7.306,16.782 -10.634,25.173c-3.327,8.392 -6.438,17.072 -9.331,26.042c-1.736,5.787 -3.328,11.791 -4.775,18.012c-1.446,6.221 -2.459,12.37 -3.038,18.447c-0.289,1.446 -0.434,2.676 -0.434,3.689l0,3.255l108.073,-98.091Z" style="fill:#fef6f8;fill-rule:nonzero;"/><path d="M2495.88,1051.5c3.762,2.026 6.655,4.196 8.681,6.511c1.736,2.025 2.676,4.412 2.821,7.161c0.144,2.749 -1.375,5.57 -4.557,8.464c-3.183,2.893 -6.366,5.787 -9.549,8.68l-15.408,13.889c-1.881,1.737 -2.966,2.749 -3.255,3.039c-4.051,4.051 -7.813,7.884 -11.285,11.501c-3.472,3.617 -6.8,7.162 -9.983,10.634c-3.472,3.472 -6.944,7.017 -10.417,10.634c-3.472,3.617 -6.944,7.306 -10.416,11.068l-10.417,10.85l-4.774,5.209c-0.868,1.157 -1.809,2.17 -2.821,3.038c-1.013,0.868 -1.954,1.881 -2.822,3.038l-1.302,1.302c-0.289,0 -0.578,0.145 -0.868,0.434c-2.893,2.894 -6.51,4.34 -10.85,4.34c-1.447,0 -2.605,-0.144 -3.473,-0.434c-1.446,-0.289 -2.821,-0.578 -4.123,-0.868c-1.302,-0.289 -2.677,-0.723 -4.123,-1.302c-3.762,-2.025 -5.498,-4.919 -5.209,-8.68l0,-3.038l0.434,-8.681c1.737,-10.995 4.341,-21.557 7.813,-31.684c3.472,-10.128 7.089,-19.676 10.851,-28.646c4.051,-9.549 8.391,-18.88 13.021,-27.995c4.629,-9.115 9.259,-18.012 13.888,-26.693c0.579,-0.868 1.086,-1.808 1.52,-2.821l2.821,-5.859l-0,-0.868c-0,-0 0.144,-0.145 0.434,-0.434c-0.579,0.289 -0.941,0.506 -1.085,0.651c-0.145,0.144 -0.507,0.361 -1.085,0.651c-0.868,0.868 -2.171,1.88 -3.907,3.038c-4.919,4.051 -9.548,8.102 -13.889,12.153c-4.34,4.051 -8.246,8.102 -11.718,12.152c-16.783,17.651 -34.144,39.063 -52.084,64.237c-2.315,3.183 -4.557,6.149 -6.727,8.897c-2.17,2.749 -4.413,5.57 -6.728,8.464l-0.868,1.736l-5.208,5.208c-4.051,3.183 -8.536,4.196 -13.455,3.039c-4.34,-0.868 -8.102,-2.46 -11.285,-4.775c-3.472,-2.893 -4.774,-6.51 -3.906,-10.85c0.579,-3.183 1.23,-6.149 1.953,-8.898c0.723,-2.749 1.519,-5.57 2.387,-8.464l3.472,-9.765c0.868,-2.749 1.737,-5.426 2.605,-8.03c1.736,-5.498 3.544,-10.995 5.425,-16.493c1.881,-5.498 3.689,-11.14 5.425,-16.927l9.115,-33.42l3.472,-13.455c0,-0.579 0.073,-1.158 0.217,-1.736c0.145,-0.579 0.217,-1.158 0.217,-1.736c0,-0.29 0.073,-0.579 0.217,-0.869c0.145,-0.289 0.217,-0.578 0.217,-0.868c0.29,-2.604 2.026,-3.761 5.209,-3.472c1.446,0 3.617,0.724 6.51,2.17c1.447,0.579 2.821,1.447 4.123,2.605c1.302,1.157 2.532,2.604 3.69,4.34c0.868,2.315 1.157,4.485 0.868,6.51c-2.026,11.574 -4.558,23.221 -7.596,34.94c-3.038,11.718 -6.583,23.944 -10.634,36.675c0,0.289 -0.144,0.434 -0.434,0.434c0.29,0 0.434,-0.145 0.434,-0.434c15.047,-21.123 31.54,-40.943 49.48,-59.462c4.629,-4.63 8.825,-8.681 12.587,-12.153c3.761,-3.472 7.667,-6.655 11.718,-9.548c4.341,-2.894 8.536,-5.064 12.587,-6.511c3.183,-1.157 6.655,-1.302 10.417,-0.434c10.706,3.472 17.506,9.983 20.399,19.531c0.579,1.737 0.724,3.473 0.434,5.209c-0.289,1.736 -0.723,3.472 -1.302,5.208c-0.578,2.604 -1.447,5.136 -2.604,7.596c-1.157,2.459 -2.459,4.846 -3.906,7.161l-0,0.434c-0.868,1.736 -1.736,3.472 -2.604,5.209c-0.868,1.736 -1.737,3.616 -2.605,5.642c-4.34,7.812 -8.535,16.204 -12.586,25.174c-4.341,9.259 -8.102,18.012 -11.285,26.258c-3.183,8.247 -5.932,16.421 -8.247,24.523l0,0.868l2.17,-2.604c1.158,-1.158 2.171,-2.17 3.039,-3.038c0.868,-0.868 1.736,-1.881 2.604,-3.039l9.765,-10.416c2.46,-2.604 5.064,-5.426 7.813,-8.464c2.749,-3.038 5.281,-5.714 7.595,-8.029c10.707,-11.574 21.123,-21.846 31.251,-30.816c10.127,-8.97 17.361,-14.902 21.701,-17.796Z" style="fill:#fef6f8;fill-rule:nonzero;"/><path d="M2624.35,1030.66c-3.183,8.391 -6.221,16.71 -9.115,24.957c-2.893,8.246 -5.498,16.565 -7.812,24.956c-1.447,5.787 -2.749,11.502 -3.907,17.145c-1.157,5.642 -1.736,11.357 -1.736,17.144c0,2.314 0.072,4.629 0.217,6.944c0.145,2.315 0.362,4.63 0.651,6.945c0,-0 0.145,0.289 0.434,0.868c0.29,-0.29 1.519,-1.592 3.689,-3.907c2.171,-2.314 4.919,-5.353 8.247,-9.114l23.655,-26.91l33.854,-38.195c3.183,2.026 5.787,4.051 7.812,6.077c1.737,1.736 3.039,3.761 3.907,6.076c0.868,2.315 0.578,4.63 -0.868,6.945c-0.868,0.868 -2.532,2.966 -4.992,6.293c-2.459,3.328 -5.497,7.162 -9.114,11.502c-3.617,4.34 -7.451,8.97 -11.502,13.889c-4.051,4.919 -7.813,9.621 -11.285,14.106c-3.472,4.485 -6.583,8.391 -9.331,11.719c-2.749,3.327 -4.558,5.425 -5.426,6.293c-2.025,2.315 -4.051,4.413 -6.076,6.293c-2.026,1.881 -4.196,3.69 -6.511,5.426c-6.655,4.919 -14.323,6.221 -23.003,3.906c-5.787,-1.447 -10.272,-4.051 -13.455,-7.812c-3.183,-3.762 -5.498,-8.392 -6.945,-13.889c-1.736,-8.102 -2.17,-16.204 -1.302,-24.306c0.29,-1.447 0.507,-2.677 0.651,-3.689c0.145,-1.013 0.217,-2.243 0.217,-3.69l-13.889,15.626c-3.761,4.05 -7.595,7.884 -11.501,11.501c-3.907,3.617 -8.03,7.017 -12.37,10.2c-2.894,2.025 -5.715,3.834 -8.464,5.425c-2.749,1.592 -5.714,2.966 -8.897,4.124c-7.523,2.314 -15.336,1.88 -23.438,-1.302c-6.944,-2.894 -12.297,-6.945 -16.059,-12.153c-2.025,-3.183 -3.328,-6.438 -3.906,-9.766c-0.579,-3.328 -0.724,-6.727 -0.434,-10.2c0.578,-5.787 1.591,-11.429 3.038,-16.927c1.447,-5.497 3.183,-11.14 5.208,-16.927c7.813,-21.123 19.098,-40.075 33.855,-56.858c2.314,-2.315 4.557,-4.557 6.727,-6.727c2.17,-2.17 4.702,-4.123 7.596,-5.86c6.365,-4.34 13.454,-5.208 21.267,-2.604c4.34,1.736 8.319,3.979 11.936,6.728c3.617,2.749 7.017,5.859 10.199,9.331c4.051,4.051 7.09,8.536 9.115,13.455c0.289,0 0.434,0.29 0.434,0.868l5.208,-7.812c2.605,-4.341 5.281,-9.043 8.03,-14.106c2.749,-5.064 5.281,-9.911 7.595,-14.54c0.869,-1.736 1.954,-3.979 3.256,-6.728c1.302,-2.748 2.676,-5.787 4.123,-9.114l7.813,-18.881c2.604,-6.365 4.846,-11.935 6.727,-16.71c1.881,-4.774 3.689,-9.187 5.425,-13.238c1.736,-4.05 3.473,-8.246 5.209,-12.586c1.736,-4.341 3.761,-9.549 6.076,-15.625c2.026,-5.209 3.762,-9.621 5.208,-13.238l6.728,-17.361c1.013,-2.46 2.098,-5.136 3.255,-8.03c1.158,-2.315 2.387,-3.545 3.689,-3.689c1.302,-0.145 2.677,0.072 4.124,0.651c3.183,0.868 5.714,2.025 7.595,3.472c1.881,1.447 3.834,3.328 5.86,5.642c2.025,2.605 2.604,5.209 1.736,7.813c-6.077,16.204 -11.864,31.395 -17.362,45.573c-5.497,14.178 -11.574,29.659 -18.229,46.441c-3.472,8.97 -7.306,18.374 -11.502,28.212c-4.195,9.838 -8.174,19.821 -11.935,29.948Zm-54.688,28.212l6.51,-9.549c-1.736,-1.736 -3.038,-2.893 -3.906,-3.472c-3.183,-2.604 -4.919,-5.787 -5.208,-9.549c-0.868,-4.919 -3.183,-9.259 -6.945,-13.02c-1.157,-0.579 -2.025,-0.724 -2.604,-0.435c-1.447,0.579 -2.676,1.158 -3.689,1.737c-1.013,0.578 -1.953,1.157 -2.821,1.736c-1.736,1.446 -3.472,2.966 -5.209,4.557c-1.736,1.591 -3.327,3.255 -4.774,4.991c-16.782,18.519 -28.501,40.076 -35.156,64.671c-0.868,3.183 -1.592,6.51 -2.17,9.982c-0.579,3.473 -0.868,7.09 -0.868,10.851c0.289,1.158 0.506,2.243 0.651,3.255c0.144,1.013 0.217,2.243 0.217,3.69l8.246,-4.775c4.63,-3.183 8.825,-6.583 12.587,-10.199c3.762,-3.617 7.523,-7.451 11.285,-11.502c6.365,-6.655 12.297,-13.6 17.795,-20.834c5.498,-7.233 10.851,-14.612 16.059,-22.135Z" style="fill:#fef6f8;fill-rule:nonzero;"/><path d="M2801,1051.5c3.472,3.183 6.076,6.366 7.812,9.549c1.447,2.894 2.026,5.932 1.736,9.115c-0.289,3.183 -2.459,6.365 -6.51,9.548c-4.341,3.183 -10.489,7.162 -18.446,11.936c-7.958,4.774 -15.843,9.476 -23.655,14.106c-9.259,5.208 -18.953,10.851 -29.08,16.927c1.736,8.681 2.459,16.927 2.17,24.74c-0.868,8.391 -3.327,16.927 -7.378,25.608c-4.341,8.68 -10.128,16.637 -17.362,23.871c-9.259,9.259 -20.978,14.613 -35.156,16.059c-9.838,1.447 -18.663,0.29 -26.476,-3.472c-4.051,-1.736 -7.451,-3.979 -10.199,-6.727c-2.749,-2.749 -4.702,-6.439 -5.86,-11.068c-1.736,-6.945 -0.723,-14.178 3.038,-21.702c2.026,-3.761 4.268,-7.161 6.728,-10.199c2.459,-3.039 5.281,-6.004 8.463,-8.898c3.762,-4.051 7.741,-7.74 11.936,-11.068c4.196,-3.327 8.464,-6.582 12.804,-9.765c4.34,-3.183 8.825,-6.221 13.455,-9.115c4.63,-2.893 9.259,-5.932 13.889,-9.115c0.579,-0.578 0.94,-0.868 1.085,-0.868c0.145,0 0.072,-0.434 -0.217,-1.302c-1.157,-4.629 -2.821,-8.897 -4.991,-12.804c-2.17,-3.906 -4.413,-7.74 -6.728,-11.501c-2.315,-3.473 -4.919,-6.583 -7.812,-9.332c-2.894,-2.749 -5.498,-5.859 -7.813,-9.332c-2.025,-3.182 -3.978,-6.365 -5.859,-9.548c-1.881,-3.183 -3.255,-6.8 -4.123,-10.851c-0.869,-3.183 -1.013,-6.727 -0.435,-10.634c0.579,-3.906 1.592,-7.45 3.039,-10.633c1.736,-4.051 3.834,-7.885 6.293,-11.502c2.46,-3.617 5.136,-7.017 8.03,-10.2c6.365,-6.944 13.021,-13.31 19.965,-19.097c6.944,-5.787 14.468,-10.996 22.57,-15.625c5.497,-3.472 12.008,-6.077 19.531,-7.813c8.97,-2.025 17.216,0.579 24.739,7.813c2.894,2.315 4.775,5.787 5.643,10.417c0.579,4.05 -0.289,7.884 -2.604,11.501c-2.315,3.617 -4.485,7.451 -6.511,11.502c-5.497,8.391 -11.212,16.204 -17.144,23.438c-5.932,7.233 -12.514,13.889 -19.748,19.965c-2.894,2.315 -5.643,4.413 -8.247,6.293c-2.604,1.881 -5.353,3.69 -8.246,5.426c-4.63,2.893 -9.404,4.34 -14.323,4.34c-1.158,0 -2.026,-0.145 -2.604,-0.434c4.629,6.076 9.259,12.37 13.888,18.88c4.63,6.511 8.826,13.094 12.587,19.749c0.29,-0 1.592,-0.796 3.907,-2.388c2.314,-1.591 5.28,-3.544 8.897,-5.859c3.617,-2.315 7.74,-4.919 12.37,-7.812c4.63,-2.894 9.404,-5.787 14.323,-8.681c11.285,-6.944 24.161,-14.757 38.629,-23.438Zm-108.074,-11.284c9.838,-6.655 18.591,-14.179 26.259,-22.57c7.668,-8.391 14.829,-17.506 21.484,-27.344l-0.434,0c-0.578,0.29 -1.012,0.579 -1.302,0.868c-0.289,0.29 -0.723,0.579 -1.302,0.868c-6.655,4.919 -13.165,10.128 -19.531,15.625c-6.366,5.498 -12.298,11.864 -17.795,19.098c-1.447,2.025 -2.894,4.195 -4.341,6.51c-1.446,2.315 -2.459,4.63 -3.038,6.945Zm13.455,108.507l1.302,-12.153c0,-0.579 -0.434,-0.579 -1.302,0c-4.919,3.183 -9.693,6.438 -14.323,9.766c-4.629,3.327 -9.114,6.872 -13.455,10.634c-3.183,2.604 -6.076,5.353 -8.68,8.246c-2.604,2.894 -4.63,6.076 -6.077,9.549c-2.893,4.051 -4.051,8.68 -3.472,13.889c0.289,1.446 0.651,2.965 1.085,4.557c0.434,1.591 1.375,3.11 2.821,4.557c1.447,1.447 3.039,2.026 4.775,1.736c2.315,-0.578 4.34,-1.302 6.076,-2.17c1.736,-0.868 3.472,-2.025 5.208,-3.472c3.762,-3.472 7.524,-7.523 11.285,-12.153c6.655,-9.548 11.574,-20.544 14.757,-32.986Z" style="fill:#fef6f8;fill-rule:nonzero;"/><path d="M2962.89,1051.5c3.183,2.026 5.643,4.051 7.379,6.077c1.447,2.025 2.532,4.195 3.255,6.51c0.724,2.315 0.217,4.919 -1.519,7.813c-0.579,0.868 -2.532,3.11 -5.859,6.727c-3.328,3.617 -7.307,8.03 -11.936,13.238c-4.63,5.208 -9.621,10.779 -14.974,16.71c-5.353,5.932 -10.417,11.502 -15.191,16.71c-4.775,5.209 -8.97,9.694 -12.587,13.455c-3.617,3.762 -5.859,5.932 -6.727,6.511c-7.813,4.919 -16.349,6.076 -25.608,3.472c-4.051,-0.868 -7.813,-2.604 -11.285,-5.208c-5.208,-4.919 -8.102,-11.14 -8.681,-18.664l0,-11.284l-0.868,0.868c-4.051,4.051 -8.246,7.885 -12.586,11.501c-4.341,3.617 -8.97,7.017 -13.889,10.2c-2.315,1.447 -4.775,2.749 -7.379,3.906c-2.604,1.158 -5.208,1.881 -7.812,2.171c-11.285,1.446 -20.834,-1.737 -28.646,-9.549c-4.051,-4.051 -6.077,-9.259 -6.077,-15.625c-0.289,-4.919 -0.072,-9.621 0.651,-14.106c0.724,-4.485 1.809,-8.898 3.256,-13.238c5.497,-19.387 13.744,-37.905 24.739,-55.556c1.736,-2.893 3.617,-5.57 5.643,-8.029c2.025,-2.46 4.34,-4.847 6.944,-7.162c6.366,-4.629 13.021,-5.063 19.965,-1.302c3.762,2.026 7.162,4.485 10.2,7.379c3.038,2.893 5.859,5.931 8.464,9.114c2.025,2.604 3.834,5.281 5.425,8.03c1.591,2.749 2.966,5.715 4.123,8.897c0.29,0 0.434,0.29 0.434,0.868c0.868,-1.446 1.736,-2.676 2.604,-3.689c0.869,-1.013 1.592,-2.098 2.171,-3.255l24.305,-36.458c1.447,-2.026 3.472,-2.749 6.077,-2.171c2.604,0.579 4.846,1.519 6.727,2.822c1.881,1.302 3.834,2.821 5.86,4.557c1.736,1.447 3.182,3.761 4.34,6.944c0.289,2.315 -0.145,4.051 -1.302,5.209c-5.209,8.97 -9.983,18.012 -14.323,27.127c-4.341,9.114 -8.391,18.301 -12.153,27.56c-2.315,6.077 -4.268,12.226 -5.859,18.447c-1.592,6.221 -2.677,12.659 -3.256,19.314c-0.289,2.025 -0.434,3.979 -0.434,5.859l0,5.86l76.389,-78.56Zm-95.92,7.379c-0.868,-0.579 -1.808,-1.013 -2.821,-1.302c-1.013,-0.29 -1.953,-0.724 -2.821,-1.302c-4.919,-3.183 -8.681,-7.523 -11.285,-13.021l-3.906,-6.511c-0.29,0 -0.507,0.073 -0.651,0.217c-0.145,0.145 -0.362,0.217 -0.652,0.217c-0.289,0.29 -1.012,0.724 -2.17,1.303c-2.314,2.025 -4.34,4.195 -6.076,6.51c-1.736,2.315 -3.328,4.63 -4.774,6.944c-4.051,7.524 -7.741,15.047 -11.068,22.57c-3.328,7.523 -6.149,15.336 -8.464,23.438c-2.025,7.233 -3.327,14.757 -3.906,22.569c0,0.579 0.072,1.157 0.217,1.736c0.145,0.579 0.217,1.302 0.217,2.17c0.868,-0.578 1.809,-1.157 2.821,-1.736c1.013,-0.579 1.809,-1.157 2.387,-1.736c4.051,-3.183 7.741,-6.438 11.068,-9.766c3.328,-3.327 6.583,-6.727 9.766,-10.199c5.208,-5.787 10.127,-11.791 14.757,-18.012c4.629,-6.222 9.114,-12.515 13.455,-18.881l3.906,-5.208Z" style="fill:#fef6f8;fill-rule:nonzero;"/><path d="M3123.05,1051.5c3.183,2.026 5.498,4.485 6.945,7.379c1.446,2.315 1.953,5.136 1.519,8.463c-0.434,3.328 -2.821,6.873 -7.162,10.634c-2.893,2.315 -7.234,6.077 -13.021,11.285c-5.787,5.208 -12.152,11.068 -19.097,17.578c-6.944,6.511 -14.178,13.455 -21.701,20.834c-7.524,7.378 -14.54,14.54 -21.051,21.484c-6.51,6.944 -12.08,13.383 -16.71,19.314c-4.63,5.932 -7.668,10.779 -9.114,14.54c-2.026,5.498 -3.762,10.2 -5.209,14.106c-1.447,3.906 -2.821,7.596 -4.123,11.068c-1.302,3.472 -2.749,7.161 -4.34,11.068c-1.592,3.906 -3.4,8.608 -5.426,14.106c-1.447,4.051 -3.11,8.102 -4.991,12.152c-1.881,4.051 -3.689,8.102 -5.425,12.153c-2.605,5.498 -6.366,10.706 -11.285,15.625c-3.183,3.473 -6.8,6.149 -10.851,8.03c-4.051,1.881 -8.247,3.255 -12.587,4.123c-7.234,1.447 -13.599,1.592 -19.097,0.434c-9.549,-2.025 -15.336,-7.812 -17.361,-17.361c-1.158,-4.34 -1.592,-8.681 -1.302,-13.021c0.289,-4.34 1.012,-8.825 2.17,-13.455c1.447,-4.919 3.544,-9.404 6.293,-13.455c2.749,-4.051 6.149,-7.957 10.2,-11.718c4.63,-4.63 9.332,-9.187 14.106,-13.672c4.774,-4.485 9.621,-9.043 14.54,-13.672l30.816,-29.514c0.289,-0.579 0.579,-1.013 0.868,-1.302c0.289,-0.29 0.579,-0.724 0.868,-1.302c2.025,-5.788 4.051,-11.502 6.076,-17.145c2.026,-5.642 4.196,-11.357 6.511,-17.144l-0,-0.868c-1.447,0.868 -2.749,1.664 -3.906,2.387c-1.158,0.724 -2.46,1.375 -3.907,1.953c-14.467,6.656 -27.778,7.09 -39.93,1.303c-2.894,-1.447 -5.498,-3.039 -7.813,-4.775c-2.315,-1.736 -4.485,-3.761 -6.51,-6.076c-4.919,-6.945 -6.221,-15.191 -3.907,-24.74c2.315,-11.863 6.077,-23.22 11.285,-34.071c5.209,-10.851 11.14,-21.485 17.795,-31.901c2.605,-4.341 5.353,-8.536 8.247,-12.587c2.893,-4.051 5.932,-7.957 9.115,-11.719c1.157,-1.157 2.17,-2.17 3.038,-3.038c0.868,-0.868 1.881,-1.736 3.038,-2.604c2.025,-1.447 4.196,-1.592 6.51,-0.434c1.447,0.578 2.677,1.157 3.69,1.736c1.012,0.579 1.953,1.302 2.821,2.17c4.051,3.183 6.655,6.8 7.812,10.851c0.579,2.314 0.507,4.195 -0.217,5.642c-0.723,1.447 -1.953,2.894 -3.689,4.34c-1.736,1.158 -2.893,2.17 -3.472,3.039c-4.919,5.497 -9.115,11.284 -12.587,17.361c-3.472,6.076 -6.944,12.297 -10.417,18.663c-3.472,6.655 -6.582,13.383 -9.331,20.182c-2.749,6.8 -4.847,13.817 -6.294,21.051c-0.289,2.025 -0.506,3.906 -0.651,5.642c-0.144,1.736 -0.217,3.472 -0.217,5.208c0,1.447 0.868,2.026 2.604,1.737c3.183,-0.868 6.004,-2.026 8.464,-3.473c2.459,-1.446 4.991,-3.038 7.595,-4.774c6.656,-4.919 12.877,-10.344 18.664,-16.276c5.787,-5.932 11.284,-12.225 16.493,-18.88c6.655,-8.392 12.659,-17.144 18.012,-26.259c5.353,-9.115 10.489,-18.302 15.408,-27.561c0.579,-1.736 1.302,-3.4 2.17,-4.991c0.868,-1.592 1.736,-3.111 2.604,-4.558c0.868,-2.314 2.605,-3.472 5.209,-3.472c1.157,0.29 2.315,0.507 3.472,0.651c1.157,0.145 2.17,0.507 3.038,1.085c2.604,1.447 4.919,3.038 6.945,4.775c2.025,1.736 3.617,4.051 4.774,6.944c1.157,2.604 1.157,5.064 -0,7.379c-5.208,9.838 -10.055,19.676 -14.54,29.514c-4.485,9.838 -8.753,19.82 -12.804,29.948l-8.246,18.663l-2.822,7.812c-0.723,2.026 -1.302,3.834 -1.736,5.426c-0.434,1.591 -0.651,2.387 -0.651,2.387l73.785,-66.407Zm-144.097,166.234c0.578,-1.158 1.012,-2.315 1.302,-3.473c0.289,-1.157 0.723,-2.459 1.302,-3.906c-0.579,0.579 -0.868,0.868 -0.868,0.868c-2.026,1.447 -3.979,3.038 -5.86,4.774c-1.881,1.737 -3.834,3.473 -5.859,5.209c-1.447,1.447 -2.749,2.749 -3.906,3.906c-1.158,1.157 -2.315,2.46 -3.473,3.906c-3.761,4.341 -6.221,8.898 -7.378,13.672c-1.158,4.775 -1.447,9.621 -0.868,14.54c-0,4.051 1.157,8.102 3.472,12.153c0.579,-0.579 1.157,-1.447 1.736,-2.604c1.447,-2.315 2.821,-4.63 4.123,-6.945c1.302,-2.314 2.388,-4.629 3.256,-6.944c2.314,-5.787 4.485,-11.646 6.51,-17.578c2.026,-5.932 4.196,-11.791 6.511,-17.578Z" style="fill:#fef6f8;fill-rule:nonzero;"/><path d="M3192.5,1209.92c1.447,-0.579 3.038,-1.447 4.774,-2.604c12.442,-6.655 24.74,-13.672 36.893,-21.051c12.152,-7.378 24.016,-15.118 35.59,-23.22c10.127,-7.234 19.965,-14.685 29.514,-22.353c9.549,-7.667 18.663,-15.697 27.344,-24.088c16.493,-16.204 31.322,-33.276 44.488,-51.216c13.165,-17.94 24.523,-37.326 34.071,-58.16c7.234,-15.625 12.008,-31.828 14.323,-48.611c1.158,-6.076 1.447,-12.08 0.868,-18.012c-0.579,-5.932 -1.591,-11.791 -3.038,-17.578c-2.026,-6.366 -6.366,-10.996 -13.021,-13.889c-4.051,-1.736 -8.174,-2.894 -12.37,-3.472c-4.195,-0.579 -8.463,-0.868 -12.804,-0.868c-10.995,0.289 -21.484,1.953 -31.467,4.991c-9.982,3.038 -20.037,7.017 -30.165,11.936c-23.148,11.574 -44.415,25.173 -63.802,40.798c-2.604,1.737 -5.064,4.051 -7.379,6.945c-1.157,1.736 -3.182,2.315 -6.076,1.736c-2.315,-0.289 -4.196,-1.013 -5.642,-2.17c-1.447,-1.158 -2.894,-2.46 -4.341,-3.906c-2.604,-2.605 -4.051,-5.064 -4.34,-7.379c-0.868,-2.893 -0.434,-5.064 1.302,-6.51c1.447,-1.447 2.749,-2.749 3.906,-3.907c1.158,-1.157 2.46,-2.314 3.907,-3.472c11.574,-9.259 23.51,-17.867 35.807,-25.825c12.298,-7.957 25.246,-15.118 38.846,-21.484c6.944,-3.472 14.178,-6.293 21.701,-8.464c7.523,-2.17 15.047,-3.978 22.57,-5.425c6.655,-1.157 13.31,-1.664 19.965,-1.519c6.655,0.145 13.166,1.085 19.531,2.821c7.234,2.026 13.455,5.136 18.664,9.332c5.208,4.195 9.693,9.187 13.455,14.974c3.472,5.208 6.148,10.778 8.029,16.71c1.881,5.932 3.111,12.225 3.689,18.88c1.736,11.864 1.592,23.438 -0.434,34.723c-1.446,6.944 -3.183,13.888 -5.208,20.833c-2.026,6.944 -4.34,13.744 -6.945,20.399c-6.655,15.915 -14.395,31.033 -23.22,45.356c-8.825,14.323 -18.736,28.285 -29.731,41.884c-6.655,8.102 -13.672,15.842 -21.051,23.221c-7.378,7.378 -15.118,14.395 -23.22,21.05c-10.706,9.259 -21.774,17.94 -33.203,26.042c-11.43,8.102 -23.221,15.914 -35.374,23.437c-12.731,7.813 -25.607,15.336 -38.628,22.57c-13.021,7.234 -26.042,14.178 -39.063,20.833l-6.076,3.039c-2.894,2.025 -6.077,2.314 -9.549,0.868c-2.893,-1.447 -5.425,-3.039 -7.595,-4.775c-2.171,-1.736 -3.69,-4.195 -4.558,-7.378c0,-0.579 -0.072,-1.013 -0.217,-1.302c-0.144,-0.29 -0.217,-0.724 -0.217,-1.302c-0.579,-1.447 0,-2.46 1.736,-3.039c1.447,-0.578 2.46,-1.374 3.039,-2.387c0.578,-1.012 1.157,-2.242 1.736,-3.689c5.497,-14.757 10.995,-29.586 16.493,-44.488c5.497,-14.902 11.14,-29.731 16.927,-44.488c6.076,-15.625 12.37,-31.322 18.88,-47.092c6.511,-15.77 13.093,-31.467 19.748,-47.092c5.498,-13.6 11.358,-26.91 17.579,-39.931c6.221,-13.021 12.804,-26.042 19.748,-39.063c0.868,-2.025 1.808,-3.978 2.821,-5.859c1.013,-1.881 1.953,-3.979 2.821,-6.293c0.868,-1.737 2.171,-2.605 3.907,-2.605c0.578,0.29 1.302,0.434 2.17,0.434c0.868,0 1.591,0.145 2.17,0.434c6.076,2.894 10.127,7.234 12.153,13.021c0.868,1.447 0.723,3.473 -0.434,6.077c-16.493,33.854 -31.684,68.142 -45.573,102.865c-8.392,19.965 -16.638,39.93 -24.74,59.896c-8.102,19.965 -16.059,40.075 -23.872,60.33c-1.157,2.893 -2.242,5.787 -3.255,8.68c-1.013,2.894 -2.242,5.932 -3.689,9.115c-0,0.579 -0.289,1.157 -0.868,1.736Z" style="fill:#fef6f8;fill-rule:nonzero;"/><path d="M3570.97,1051.5c2.894,2.605 5.209,5.064 6.945,7.379c1.447,2.315 2.387,4.557 2.821,6.727c0.434,2.171 -0.506,4.413 -2.821,6.728c-2.604,2.315 -6.8,4.991 -12.587,8.029c-5.787,3.039 -11.936,6.004 -18.446,8.898c-6.511,2.893 -12.804,5.208 -18.881,6.944c-6.076,1.737 -10.706,2.46 -13.889,2.171c-9.838,13.888 -21.701,25.752 -35.59,35.59c-3.472,2.315 -7.089,4.413 -10.851,6.293c-3.761,1.881 -7.668,3.256 -11.718,4.124c-4.63,1.157 -9.115,1.591 -13.455,1.302c-4.341,-0.29 -8.681,-1.158 -13.021,-2.604l-8.681,-3.039c-10.417,-4.629 -16.638,-12.586 -18.663,-23.871c-1.157,-4.919 -1.591,-9.621 -1.302,-14.106c0.289,-4.485 1.013,-9.042 2.17,-13.672c4.63,-18.519 13.455,-35.59 26.476,-51.216c3.183,-3.761 6.583,-7.161 10.199,-10.199c3.617,-3.038 7.741,-5.57 12.37,-7.596c2.315,-1.157 4.702,-2.098 7.162,-2.821c2.459,-0.723 5.136,-0.94 8.029,-0.651c4.919,0 9.26,1.447 13.021,4.34c4.34,2.894 7.957,6.511 10.851,10.851c0.579,0.579 1.302,0.868 2.17,0.868c4.051,-0.289 7.813,0.289 11.285,1.736c3.472,1.447 6.8,3.328 9.982,5.643c8.97,6.944 13.021,16.348 12.153,28.211c0,1.447 -0.144,2.966 -0.434,4.558c-0.289,1.591 -0.723,3.11 -1.302,4.557c6.366,-2.893 12.442,-5.932 18.229,-9.115c4.919,-2.604 9.983,-5.353 15.191,-8.246c5.209,-2.894 9.404,-5.498 12.587,-7.813Zm-85.503,45.139c-0,0 0.144,-0.289 0.434,-0.868c-3.473,-0.868 -6.8,-2.097 -9.983,-3.689c-3.183,-1.591 -6.221,-3.4 -9.115,-5.425c-4.34,-3.472 -7.668,-7.234 -9.982,-11.285c-1.736,-3.183 -2.171,-6.076 -1.302,-8.681c0.578,-2.314 1.302,-4.34 2.17,-6.076c2.604,-4.919 5.642,-9.404 9.114,-13.455c3.473,-4.051 7.668,-7.668 12.587,-10.851l0.434,-0.434c-0.579,-0.289 -1.302,-0.434 -2.17,-0.434c-2.894,0.579 -5.208,1.158 -6.944,1.736c-4.919,1.737 -9.332,4.124 -13.238,7.162c-3.907,3.038 -7.451,6.583 -10.634,10.634c-3.472,4.34 -6.51,8.897 -9.115,13.672c-2.604,4.774 -5.063,9.621 -7.378,14.54c-2.315,5.497 -4.051,10.995 -5.209,16.493c-1.157,5.497 -1.446,11.14 -0.868,16.927c0,4.051 0.868,7.812 2.605,11.285c0.868,1.446 1.736,2.314 2.604,2.604c3.183,1.446 6.51,1.736 9.982,0.868c2.894,-0.579 5.643,-1.519 8.247,-2.821c2.604,-1.302 5.064,-2.677 7.379,-4.124c5.787,-3.761 11.212,-7.957 16.276,-12.587c5.063,-4.629 9.765,-9.693 14.106,-15.191Zm19.531,-38.628c0.289,-1.447 0.362,-2.966 0.217,-4.557c-0.145,-1.592 -0.362,-3.256 -0.651,-4.992l-5.209,2.604c-5.497,3.183 -10.561,7.813 -15.191,13.889c-1.446,1.736 -2.748,3.473 -3.906,5.209c-1.157,1.736 -2.025,3.761 -2.604,6.076c-0.868,2.315 -0.145,3.762 2.17,4.34c0.29,0.29 0.724,0.434 1.302,0.434c2.315,0.579 4.558,1.013 6.728,1.302c2.17,0.29 4.412,0.29 6.727,0c0.29,0 0.579,-0.144 0.868,-0.434c2.315,-4.05 4.268,-7.957 5.86,-11.718c1.591,-3.762 2.821,-7.813 3.689,-12.153Z" style="fill:#fef6f8;fill-rule:nonzero;"/><path d="M3731.13,1051.5c3.183,2.026 5.498,4.485 6.945,7.379c1.446,2.315 1.953,5.136 1.519,8.463c-0.434,3.328 -2.822,6.873 -7.162,10.634c-2.893,2.315 -7.234,6.077 -13.021,11.285c-5.787,5.208 -12.153,11.068 -19.097,17.578c-6.944,6.511 -14.178,13.455 -21.701,20.834c-7.524,7.378 -14.54,14.54 -21.051,21.484c-6.51,6.944 -12.08,13.383 -16.71,19.314c-4.63,5.932 -7.668,10.779 -9.115,14.54c-2.025,5.498 -3.761,10.2 -5.208,14.106c-1.447,3.906 -2.821,7.596 -4.123,11.068c-1.302,3.472 -2.749,7.161 -4.341,11.068c-1.591,3.906 -3.399,8.608 -5.425,14.106c-1.447,4.051 -3.11,8.102 -4.991,12.152c-1.881,4.051 -3.689,8.102 -5.426,12.153c-2.604,5.498 -6.365,10.706 -11.284,15.625c-3.183,3.473 -6.8,6.149 -10.851,8.03c-4.051,1.881 -8.247,3.255 -12.587,4.123c-7.234,1.447 -13.6,1.592 -19.097,0.434c-9.549,-2.025 -15.336,-7.812 -17.361,-17.361c-1.158,-4.34 -1.592,-8.681 -1.302,-13.021c0.289,-4.34 1.012,-8.825 2.17,-13.455c1.446,-4.919 3.544,-9.404 6.293,-13.455c2.749,-4.051 6.149,-7.957 10.2,-11.718c4.629,-4.63 9.331,-9.187 14.106,-13.672c4.774,-4.485 9.621,-9.043 14.54,-13.672l30.816,-29.514c0.289,-0.579 0.578,-1.013 0.868,-1.302c0.289,-0.29 0.579,-0.724 0.868,-1.302c2.025,-5.788 4.051,-11.502 6.076,-17.145c2.026,-5.642 4.196,-11.357 6.511,-17.144l-0,-0.868c-1.447,0.868 -2.749,1.664 -3.907,2.387c-1.157,0.724 -2.459,1.375 -3.906,1.953c-14.467,6.656 -27.778,7.09 -39.93,1.303c-2.894,-1.447 -5.498,-3.039 -7.813,-4.775c-2.315,-1.736 -4.485,-3.761 -6.51,-6.076c-4.919,-6.945 -6.222,-15.191 -3.907,-24.74c2.315,-11.863 6.077,-23.22 11.285,-34.071c5.208,-10.851 11.14,-21.485 17.795,-31.901c2.604,-4.341 5.353,-8.536 8.247,-12.587c2.893,-4.051 5.932,-7.957 9.114,-11.719c1.158,-1.157 2.171,-2.17 3.039,-3.038c0.868,-0.868 1.88,-1.736 3.038,-2.604c2.025,-1.447 4.195,-1.592 6.51,-0.434c1.447,0.578 2.677,1.157 3.69,1.736c1.012,0.579 1.953,1.302 2.821,2.17c4.051,3.183 6.655,6.8 7.812,10.851c0.579,2.314 0.507,4.195 -0.217,5.642c-0.723,1.447 -1.953,2.894 -3.689,4.34c-1.736,1.158 -2.894,2.17 -3.472,3.039c-4.919,5.497 -9.115,11.284 -12.587,17.361c-3.472,6.076 -6.945,12.297 -10.417,18.663c-3.472,6.655 -6.583,13.383 -9.331,20.182c-2.749,6.8 -4.847,13.817 -6.294,21.051c-0.289,2.025 -0.506,3.906 -0.651,5.642c-0.145,1.736 -0.217,3.472 -0.217,5.208c0,1.447 0.868,2.026 2.604,1.737c3.183,-0.868 6.004,-2.026 8.464,-3.473c2.459,-1.446 4.991,-3.038 7.595,-4.774c6.655,-4.919 12.877,-10.344 18.664,-16.276c5.787,-5.932 11.284,-12.225 16.493,-18.88c6.655,-8.392 12.659,-17.144 18.012,-26.259c5.353,-9.115 10.489,-18.302 15.408,-27.561c0.579,-1.736 1.302,-3.4 2.17,-4.991c0.868,-1.592 1.736,-3.111 2.604,-4.558c0.868,-2.314 2.604,-3.472 5.209,-3.472c1.157,0.29 2.314,0.507 3.472,0.651c1.157,0.145 2.17,0.507 3.038,1.085c2.604,1.447 4.919,3.038 6.945,4.775c2.025,1.736 3.616,4.051 4.774,6.944c1.157,2.604 1.157,5.064 -0,7.379c-5.209,9.838 -10.055,19.676 -14.54,29.514c-4.485,9.838 -8.753,19.82 -12.804,29.948l-8.247,18.663l-2.821,7.812c-0.723,2.026 -1.302,3.834 -1.736,5.426c-0.434,1.591 -0.651,2.387 -0.651,2.387l73.785,-66.407Zm-144.098,166.234c0.579,-1.158 1.013,-2.315 1.302,-3.473c0.29,-1.157 0.724,-2.459 1.303,-3.906c-0.579,0.579 -0.869,0.868 -0.869,0.868c-2.025,1.447 -3.978,3.038 -5.859,4.774c-1.881,1.737 -3.834,3.473 -5.859,5.209c-1.447,1.447 -2.749,2.749 -3.907,3.906c-1.157,1.157 -2.314,2.46 -3.472,3.906c-3.761,4.341 -6.221,8.898 -7.378,13.672c-1.158,4.775 -1.447,9.621 -0.868,14.54c-0,4.051 1.157,8.102 3.472,12.153c0.579,-0.579 1.157,-1.447 1.736,-2.604c1.447,-2.315 2.821,-4.63 4.123,-6.945c1.302,-2.314 2.387,-4.629 3.255,-6.944c2.315,-5.787 4.485,-11.646 6.511,-17.578c2.025,-5.932 4.196,-11.791 6.51,-17.578Z" style="fill:#fef6f8;fill-rule:nonzero;"/><path d="M3870.02,1051.5c4.63,1.737 8.247,4.051 10.851,6.945c2.315,2.315 3.472,5.425 3.472,9.332c0,3.906 -2.314,8.752 -6.944,14.539c-3.762,4.341 -9.187,10.345 -16.276,18.013c-7.089,7.668 -15.191,15.842 -24.306,24.522c-9.114,8.681 -18.808,17.506 -29.08,26.476c-10.272,8.97 -20.254,17.072 -29.948,24.306c-9.693,7.234 -18.808,13.093 -27.344,17.578c-8.536,4.485 -15.552,6.583 -21.05,6.293c-0.289,0 -1.085,-0.144 -2.387,-0.434l-9.983,-1.953c-1.881,-0.434 -3.4,-0.94 -4.557,-1.519c-6.655,-3.472 -10.562,-8.825 -11.719,-16.059c-0.868,-8.391 -0.723,-16.348 0.434,-23.872c1.447,-8.97 3.328,-17.65 5.642,-26.041c2.315,-8.392 4.775,-16.927 7.379,-25.608c2.893,-9.838 5.932,-19.531 9.115,-29.08c3.182,-9.549 6.51,-19.097 9.982,-28.646c4.051,-10.127 8.247,-20.11 12.587,-29.948c4.34,-9.838 8.97,-19.676 13.889,-29.514c5.787,-12.442 11.791,-24.74 18.012,-36.892c6.221,-12.153 12.515,-24.306 18.88,-36.459c3.183,-5.787 6.366,-11.502 9.549,-17.144c3.183,-5.642 6.511,-11.357 9.983,-17.144l1.736,-3.038c0.868,-1.158 1.881,-1.736 3.038,-1.736c0.868,0.289 1.664,0.434 2.387,0.434c0.724,-0 1.375,0.144 1.953,0.434c6.366,3.182 10.562,7.812 12.587,13.889c0.868,2.314 0.579,4.919 -0.868,7.812c-1.736,2.894 -3.544,5.715 -5.425,8.464c-1.881,2.748 -3.545,5.714 -4.992,8.897l-15.625,29.948c-6.655,12.442 -12.876,24.957 -18.663,37.544c-5.787,12.587 -11.719,25.246 -17.795,37.977c-13.021,28.357 -23.872,57.726 -32.552,88.108c-2.026,7.234 -4.123,14.251 -6.294,21.051c-2.17,6.799 -3.834,13.816 -4.991,21.05c-1.447,8.391 -2.098,15.987 -1.953,22.787c0.145,6.799 0.362,10.199 0.651,10.199c20.544,-17.072 39.786,-33.709 57.726,-49.913c7.812,-6.945 15.697,-14.106 23.654,-21.485c7.958,-7.378 15.625,-14.612 23.004,-21.701c7.378,-7.089 14.178,-13.961 20.399,-20.616c6.221,-6.656 11.502,-12.587 15.842,-17.796Z" style="fill:#fef6f8;fill-rule:nonzero;"/><path d="M4002.39,1051.5c3.183,2.315 5.787,4.919 7.813,7.813c1.736,2.315 2.821,4.991 3.255,8.029c0.434,3.039 -0.506,6.149 -2.821,9.332c-2.315,2.894 -5.353,6.221 -9.115,9.983c-3.761,3.761 -7.234,7.234 -10.416,10.416c-4.051,3.762 -8.102,7.668 -12.153,11.719l-15.625,13.889c-10.996,9.259 -22.715,16.638 -35.157,22.136c-3.183,1.446 -6.293,2.604 -9.331,3.472c-3.039,0.868 -6.149,1.157 -9.332,0.868c-3.762,-0.289 -7.306,-1.013 -10.634,-2.17c-3.327,-1.158 -6.582,-2.604 -9.765,-4.34c-9.549,-5.498 -16.493,-13.311 -20.834,-23.438c-2.315,-5.208 -4.123,-10.489 -5.425,-15.842c-1.302,-5.353 -1.809,-10.923 -1.519,-16.71c-0,-16.204 4.774,-30.816 14.323,-43.837c4.919,-6.366 10.416,-11.864 16.493,-16.493c6.076,-4.63 12.587,-8.681 19.531,-12.153c8.97,-4.63 17.94,-7.813 26.91,-9.549c12.732,-2.604 23.148,1.592 31.25,12.587c4.63,5.498 5.353,11.864 2.17,19.097c-1.447,2.605 -2.966,4.992 -4.557,7.162c-1.592,2.17 -3.4,4.413 -5.425,6.727c-3.762,4.051 -7.596,7.958 -11.502,11.719c-3.906,3.762 -8.174,7.234 -12.804,10.417c-3.472,3.183 -7.523,5.642 -12.153,7.378c-2.025,0.868 -4.991,1.519 -8.897,1.953c-3.907,0.434 -7.596,-0.506 -11.068,-2.821c-4.919,-3.472 -7.596,-6.438 -8.03,-8.897c-0.434,-2.46 -1.23,-4.413 -2.387,-5.86c-4.919,7.813 -7.957,16.493 -9.115,26.042c-0.578,4.919 -0.434,9.621 0.434,14.106c0.869,4.485 2.171,9.042 3.907,13.672c1.157,2.604 2.315,5.064 3.472,7.378c1.157,2.315 2.894,4.485 5.208,6.511c0.579,0.868 1.592,1.013 3.039,0.434c3.761,-1.158 7.233,-2.604 10.416,-4.34c3.183,-1.737 6.366,-3.617 9.549,-5.643c4.919,-3.472 9.693,-7.089 14.323,-10.851c4.629,-3.761 9.114,-7.667 13.455,-11.718c1.447,-1.447 3.472,-3.328 6.076,-5.643c2.604,-2.315 4.63,-4.051 6.077,-5.208l40.364,-37.327Zm-94.618,-2.604c-2.315,2.026 -4.34,4.051 -6.076,6.077c-1.737,2.025 -3.473,4.195 -5.209,6.51l7.379,0c3.472,-0.868 6.221,-1.953 8.246,-3.255c2.026,-1.302 4.051,-2.677 6.077,-4.123c4.919,-4.051 9.259,-7.885 13.02,-11.502c3.762,-3.617 7.668,-7.885 11.719,-12.804l1.302,-1.302c0,-0.289 -0.144,-0.434 -0.434,-0.434c-0.868,0.579 -1.808,0.94 -2.821,1.085c-1.013,0.145 -1.953,0.506 -2.821,1.085c-5.787,2.604 -11.14,5.353 -16.059,8.247c-4.919,2.893 -9.693,6.365 -14.323,10.416Z" style="fill:#fef6f8;fill-rule:nonzero;"/></g><g id="logo-text-top"><path d="M1849.96,749.756c17.086,-2.651 34.312,-4.976 50.3,-12.761c24.276,-11.794 39.642,-27.987 59.22,-47.259c22.937,-22.602 42.525,-48.496 59.007,-76.353c15.598,-26.341 26.192,-55.732 23.494,-88.305c-1.748,-21.299 -2.437,-42.869 -6.204,-63.796c-13.263,-73.488 -45.026,-135.117 -104.033,-178.321c-17.458,-12.789 -31.307,-19.904 -50.691,-28.378c-28.563,-12.491 -57.685,-17.579 -88.1,-8.789c-4.353,1.265 -9.152,0.865 -13.486,2.13c-27.141,7.98 -48.645,13.496 -73.656,28.219c-11.375,6.66 -20.183,16.575 -30.415,24.611c-31.037,24.406 -51.053,57.844 -65.87,94.992c-7.125,17.831 -13.98,36.126 -15.738,55.742c-2.753,31.01 -4.678,61.787 0.261,93.058c11.887,75.236 51.23,129.648 109.809,169.652c23.922,16.342 44.45,27.68 72.939,31.819c15.273,2.214 30.117,7.757 45.883,6.027c9.105,-0.716 18.239,-0.856 27.28,-2.288Zm-117.697,-109.028c-35.269,-25.308 -59.769,-58.355 -68.028,-104.758c-8.445,-47.324 0.251,-90.853 19.597,-132.811c7.33,-15.877 18.073,-36.404 34.61,-43.222c13.524,-5.571 20.593,-11.533 33.307,-19.067c17.84,-10.538 37.223,-15.301 56.691,-20.472c13.784,-3.674 27.047,-3.302 40.311,1.405c9.505,3.357 19.16,6.529 28.266,10.882c27.215,12.984 42.543,40.088 58.885,67.628c21.169,35.717 31.912,73.832 32.879,115.669c0.893,37.93 -12.751,70.112 -33.586,99.55c-3.823,5.432 -8.445,10.222 -12.556,15.421c-18.612,23.578 -36.098,36.47 -65.015,37.967c-9.99,0.512 -20.007,1.088 -30.006,1.637c-36.525,1.544 -64.847,-7.934 -95.355,-29.829Z" style="fill:#fef6f8;fill-rule:nonzero;"/><path d="M2376.03,320.63c15.198,3.47 26.109,-2.557 37.168,-11.924c13.003,-10.993 15.244,-24.629 8.268,-39.455c-6.008,-12.714 -15.914,-22.536 -30.47,-25.262c-9.562,-1.785 -19.384,-2.669 -29.085,-2.846c-55.63,-1.032 -112.283,4.307 -167.643,-2.93c-16.482,-2.158 -28.899,5.004 -37.065,18.379c-7.617,12.464 -13.012,21.97 -11.98,37.614c1.516,23.383 3.702,52.179 4.139,75.609c0.968,49.798 -0.176,99.708 2.549,149.385c2.53,45.91 2.846,91.737 1.925,137.629c-0.4,19.532 -1.032,39.055 -1.786,58.55c-0.623,16.91 8.622,27.336 22.323,34.861c9.989,5.487 19.672,2.604 29.689,2.381c8.52,-0.196 15.217,0.549 20.49,-8.297c4.521,-7.552 4.605,-16.891 4.577,-25.699c-0.289,-59.787 -2.233,-119.621 -1.954,-179.297c0.056,-13.013 7.413,-19.793 20.035,-20.677c5.804,-0.428 11.692,0.233 17.561,0.521c19.523,0.912 39.046,1.711 58.55,2.893c20.211,1.237 35.688,-7.348 48.775,-22.025c5.804,-6.483 7.385,-13.468 5.637,-21.625c-3.907,-18.314 -18.658,-31.466 -39.595,-33.391c-25.271,-2.298 -50.654,-3.442 -75.99,-5.116c-6.8,-0.456 -13.692,-0.372 -20.416,-1.432c-10.455,-1.637 -15.71,-6.753 -16.054,-17.626c-0.8,-25.392 -2.065,-56.114 -1.804,-81.496c0.167,-16.966 5.45,-21.942 23.513,-22.314c23.429,-0.493 46.859,-0.121 71.907,-0.121c17.662,5.832 37.558,-0.679 56.736,3.711Z" style="fill:#fef6f8;fill-rule:nonzero;"/><path d="M2744.06,320.63c15.198,3.47 26.108,-2.557 37.167,-11.924c13.003,-10.993 15.244,-24.629 8.269,-39.455c-6.009,-12.714 -15.915,-22.536 -30.471,-25.262c-9.561,-1.785 -19.383,-2.669 -29.084,-2.846c-55.63,-1.032 -112.284,4.307 -167.644,-2.93c-16.481,-2.158 -28.898,5.004 -37.065,18.379c-7.617,12.464 -13.012,21.97 -11.98,37.614c1.517,23.383 3.702,52.179 4.139,75.609c0.968,49.798 -0.176,99.708 2.549,149.385c2.53,45.91 2.846,91.737 1.925,137.629c-0.4,19.532 -1.032,39.055 -1.786,58.55c-0.623,16.91 8.623,27.336 22.323,34.861c9.99,5.487 19.672,2.604 29.689,2.381c8.52,-0.196 15.217,0.549 20.491,-8.297c4.52,-7.552 4.604,-16.891 4.576,-25.699c-0.289,-59.787 -2.232,-119.621 -1.953,-179.297c0.055,-13.013 7.413,-19.793 20.034,-20.677c5.804,-0.428 11.692,0.233 17.561,0.521c19.523,0.912 39.046,1.711 58.55,2.893c20.212,1.237 35.689,-7.348 48.775,-22.025c5.804,-6.483 7.385,-13.468 5.637,-21.625c-3.907,-18.314 -18.658,-31.466 -39.595,-33.391c-25.271,-2.298 -50.654,-3.442 -75.99,-5.116c-6.799,-0.456 -13.691,-0.372 -20.416,-1.432c-10.455,-1.637 -15.71,-6.753 -16.054,-17.626c-0.8,-25.392 -2.065,-56.114 -1.804,-81.496c0.167,-16.966 5.45,-21.942 23.513,-22.314c23.429,-0.493 46.859,-0.121 71.907,-0.121c17.663,5.832 37.558,-0.679 56.737,3.711Z" style="fill:#fef6f8;fill-rule:nonzero;"/><path d="M3216.89,535.365c0,-11.998 0.14,-24.034 -0.028,-36.041c-0.725,-49.873 0.084,-99.792 -5.088,-149.516c-0.855,-8.213 -0.176,-16.63 0.233,-24.927c0.316,-6.167 3.73,-10.315 9.971,-11.515c3.609,-0.697 7.348,-1.404 10.994,-1.32c22.136,0.539 43.938,-4.967 66.326,-2.465c20.044,2.232 32.014,-11.524 42.162,-26.481c1.423,-2.074 1.655,-5.31 1.581,-7.98c-0.521,-18.816 -14.156,-32.656 -33.326,-33.698c-6.446,-0.335 -12.938,-0.102 -19.402,0.093c-29.578,0.921 -59.127,0.614 -88.677,-1.172c-28.536,-1.73 -57.964,1.609 -86.575,1.144c-24.917,-0.428 -49.909,2.102 -74.343,-5.227c-5.339,-1.609 -10.966,-1.432 -16.361,0.521c-13.84,4.995 -28.778,28.889 -25.383,43.213c1.981,8.445 6.39,15.486 13.98,19.793c5.562,3.153 11.542,6.938 17.653,7.636c19.179,2.176 38.172,6.659 57.872,3.506c11.766,-1.897 23.941,-2.074 35.893,-1.702c11.329,0.372 15.7,5.795 17.598,17.375c11.403,69.628 8.957,139.898 8.994,210.019c0.018,57.313 -0.902,114.608 -1.395,171.903c-0,1.832 0.214,3.693 0.214,5.534c0.027,9.125 4.045,15.849 12.063,20.305c4.818,2.697 9.366,5.99 14.324,8.352c8.213,3.879 14.407,2.902 20.127,-3.32c12.631,-13.822 23.635,-28.211 21.718,-48.859c-0.837,-9.097 1.061,-18.435 0.94,-27.643c-0.577,-42.506 -1.405,-84.975 -2.149,-127.472c0.056,0 0.084,-0.028 0.084,-0.056Z" style="fill:#fef6f8;fill-rule:nonzero;"/><path d="M3624.51,749.756c17.086,-2.651 34.312,-4.976 50.3,-12.761c24.276,-11.794 39.642,-27.987 59.221,-47.259c22.936,-22.602 42.524,-48.496 59.006,-76.353c15.598,-26.341 26.192,-55.732 23.494,-88.305c-1.748,-21.299 -2.436,-42.869 -6.203,-63.796c-13.264,-73.488 -45.027,-135.117 -104.033,-178.321c-17.459,-12.789 -31.308,-19.904 -50.691,-28.378c-28.564,-12.491 -57.686,-17.579 -88.101,-8.789c-4.353,1.265 -9.152,0.865 -13.486,2.13c-27.141,7.98 -48.645,13.496 -73.656,28.219c-11.375,6.66 -20.183,16.575 -30.414,24.611c-31.038,24.406 -51.054,57.844 -65.871,94.992c-7.125,17.831 -13.98,36.126 -15.737,55.742c-2.754,31.01 -4.679,61.787 0.26,93.058c11.887,75.236 51.231,129.648 109.809,169.652c23.922,16.342 44.45,27.68 72.939,31.819c15.273,2.214 30.117,7.757 45.883,6.027c9.105,-0.716 18.239,-0.856 27.28,-2.288Zm-117.696,-109.028c-35.27,-25.308 -59.769,-58.355 -68.029,-104.758c-8.445,-47.324 0.251,-90.853 19.598,-132.811c7.329,-15.877 18.072,-36.404 34.609,-43.222c13.524,-5.571 20.593,-11.533 33.307,-19.067c17.84,-10.538 37.223,-15.301 56.691,-20.472c13.784,-3.674 27.047,-3.302 40.311,1.405c9.505,3.357 19.16,6.529 28.266,10.882c27.215,12.984 42.543,40.088 58.885,67.628c21.17,35.717 31.912,73.832 32.88,115.669c0.893,37.93 -12.752,70.112 -33.587,99.55c-3.822,5.432 -8.445,10.222 -12.556,15.421c-18.612,23.578 -36.098,36.47 -65.015,37.967c-9.989,0.512 -20.007,1.088 -30.005,1.637c-36.526,1.544 -64.848,-7.934 -95.355,-29.829Z" style="fill:#fef6f8;fill-rule:nonzero;"/><path d="M4241.55,669.72c-8.501,5.571 -17.607,9.543 -27.392,11.608c-10.65,2.241 -21.448,3.813 -32.275,5.05c-18.965,2.149 -35.874,-3.73 -51.147,-14.612c-5.915,-4.195 -11.142,-9.329 -16.946,-13.7c-9.785,-7.385 -18.203,-7.776 -27.299,-1.061c-19.7,14.584 -27.401,41.865 -7.329,61.137c29.521,28.312 62.829,45.882 105.446,37.781c19.672,-3.73 39.223,-7.404 56.253,-19.068c3.665,-2.492 8.241,-3.785 12.52,-5.255c18.583,-6.287 33.456,-18.09 46.515,-32.154c18.174,-19.616 32.488,-41.325 35.204,-69.005c1.898,-19.299 -0.344,-38.144 -5.683,-56.569c-18.779,-64.866 -58.466,-109.465 -125.025,-127.555c-14.873,-4.028 -29.866,-7.637 -44.683,-11.859c-41.929,-11.971 -55.881,-51.547 -32.424,-87.673c18.1,-27.884 43.79,-40.98 75.526,-40.515c26.824,0.409 52.672,6.557 65.154,35.26c4.232,9.711 12.631,15.254 20.76,20.993c4.781,3.385 10.278,3.618 15.598,1.432c4.167,-1.721 8.241,-3.897 12.008,-6.371c20.899,-13.701 23.941,-22.769 14.64,-45.622c-2.726,-6.669 -6.344,-13.068 -10.222,-19.16c-39.539,-62.169 -140.791,-86.603 -208.076,-27.857c-16.621,14.5 -29.633,31.735 -43.017,48.905c-35.689,45.827 -23.458,99.959 -0.735,135.22c19.542,30.349 47.631,52.151 84.473,59.88c12.426,2.605 24.89,5.134 37.269,7.999c19.96,4.632 38.107,13.552 50.654,29.727c16.454,21.16 26.648,45.342 25.588,73.432c3.618,22.332 -7.172,37.753 -25.355,49.612Z" style="fill:#fef6f8;fill-rule:nonzero;"/><path d="M4429.74,610.974c0.121,28.936 -3.302,67.963 -2.893,96.908c0.279,20.733 11.366,38.591 32.34,43.651c7.515,1.832 15.328,2.092 23.048,2.092c15.654,0.037 31.243,-0.967 46.757,-2.902c4.874,-0.595 8.259,0.41 12.863,1.098c6.018,0.893 12.882,-0.177 18.975,-0.326c12.947,-0.279 25.959,-0.334 38.878,1.07c19.728,2.13 39.539,-1.581 59.295,0.149c17.951,1.581 29.782,-6.409 38.776,-20.025c8.585,-13.031 9.385,-28.285 2.577,-41.456c-12.92,-25.01 -37.995,-23.522 -62.392,-22.983c-3.907,0.093 -8.427,-0.4 -11.971,0.986c-3.534,1.349 -5.553,2.921 -9.719,2.465c-3.498,-0.4 -6.893,-1.6 -10.39,-2.214c-4.074,-0.716 -8.185,0.205 -12.287,0.205c-5.255,0 -10.51,0.233 -15.765,0.344c-10.91,0.233 -21.802,0.289 -32.675,0c-6.724,-0.167 -13.533,-0.288 -20.127,-1.432c-8.316,-1.442 -14.333,-11.459 -15.887,-19.877c-1.404,-7.543 -2.157,-15.272 -2.502,-22.936c-1.72,-38.535 -4.306,-77.079 -4.501,-115.641c-0.233,-45.371 -5.86,-90.509 -4,-135.945c1.153,-27.931 0.614,-55.965 0.837,-83.924c0.112,-13.738 -1.497,-27.317 -9.412,-38.804c-9.134,-13.292 -27.197,-23.225 -44.488,-7.636c-10.222,9.217 -17.514,20.016 -19.383,34.46c-2.958,23.086 -2.614,46.227 -2.205,69.34c0.856,49.221 2.298,98.424 3.498,148.325c-2.27,37.902 2.576,76.381 2.753,115.008Z" style="fill:#fef6f8;fill-rule:nonzero;"/><path d="M4791.05,590.326c-0.521,37.548 0.883,75.292 -4.846,112.534c-3.888,25.262 17.858,48.124 42.469,46.859c17.309,-0.884 34.674,-0.512 52.021,-1.005c21.225,-0.604 42.506,-1.469 63.489,1.87c22.081,3.497 44.227,2.26 66.364,2.902c15.598,0.456 27.801,-5.748 38.013,-17.282c17.561,-19.82 17.44,-26.396 -1.953,-45.398c-2.056,-2.019 -4.158,-4.028 -6.139,-6.121c-6.287,-6.659 -13.989,-9.729 -23.178,-9.961c-39.483,-0.949 -78.967,-2.046 -118.44,-3.135c-7.674,-0.232 -15.394,-0.176 -23.039,-0.976c-6.4,-0.661 -10.213,-4.883 -11.394,-11.255c-0.521,-2.846 -1.209,-5.692 -1.265,-8.557c-0.688,-38.515 -1.488,-77.041 -1.721,-115.585c-0.084,-13.923 4.762,-18.285 19.588,-19.234c21.132,-1.349 42.292,-2.707 63.452,-3.218c20.333,-0.493 31.103,-13.059 39.428,-29.169c2.297,-4.455 1.665,-9.338 0.26,-14.1c-6.864,-22.918 -29.428,-38.395 -52.783,-35.847c-6.679,0.726 -13.292,2.735 -19.989,3.023c-13.402,0.568 -26.982,1.86 -40.05,-2.939c-6.743,-2.465 -12.78,-6.539 -12.919,-14.045c-0.493,-26.871 -0.549,-53.751 -0.056,-80.622c0.139,-8.38 6.027,-13.263 15.561,-13.905c11.514,-0.772 23.113,-0.856 34.656,-0.632c27.94,0.576 55.946,0.576 83.765,2.567c22.974,1.637 38.442,-9.487 52.18,-25.392c3.246,-3.786 4.911,-8.325 4.38,-13.347c-2.176,-20.937 -17.421,-44.274 -38.553,-45.753c-6.696,-0.455 -13.468,-0.055 -20.22,0c-22.165,0.205 -44.255,0.465 -66.42,-1.544c-30.665,-2.762 -63.033,3.209 -93.783,1.07c-7.003,-0.493 -13.728,-0.409 -19.262,4.037c-18.64,15.021 -33.168,32.396 -31.708,58.383c0.493,8.678 1.042,17.309 1.498,25.987c1.376,25.95 3.869,51.947 3.813,77.906c-0.111,47.269 2.902,94.388 6.781,141.507c-0,13.478 0.167,26.964 -0,40.377Z" style="fill:#fef6f8;fill-rule:nonzero;"/><path d="M5161.26,590.326c-0.521,37.548 0.884,75.292 -4.846,112.534c-3.888,25.262 17.858,48.124 42.469,46.859c17.309,-0.884 34.675,-0.512 52.021,-1.005c21.225,-0.604 42.506,-1.469 63.49,1.87c22.08,3.497 44.226,2.26 66.363,2.902c15.598,0.456 27.801,-5.748 38.014,-17.282c17.56,-19.82 17.439,-26.396 -1.954,-45.398c-2.055,-2.019 -4.157,-4.028 -6.138,-6.121c-6.288,-6.659 -13.989,-9.729 -23.179,-9.961c-39.483,-0.949 -78.966,-2.046 -118.44,-3.135c-7.673,-0.232 -15.393,-0.176 -23.039,-0.976c-6.399,-0.661 -10.213,-4.883 -11.394,-11.255c-0.521,-2.846 -1.209,-5.692 -1.265,-8.557c-0.688,-38.515 -1.488,-77.041 -1.72,-115.585c-0.084,-13.923 4.762,-18.285 19.588,-19.234c21.132,-1.349 42.292,-2.707 63.452,-3.218c20.332,-0.493 31.103,-13.059 39.427,-29.169c2.298,-4.455 1.665,-9.338 0.261,-14.1c-6.864,-22.918 -29.429,-38.395 -52.784,-35.847c-6.678,0.726 -13.291,2.735 -19.988,3.023c-13.403,0.568 -26.983,1.86 -40.051,-2.939c-6.743,-2.465 -12.779,-6.539 -12.919,-14.045c-0.493,-26.871 -0.549,-53.751 -0.056,-80.622c0.14,-8.38 6.027,-13.263 15.561,-13.905c11.515,-0.772 23.113,-0.856 34.656,-0.632c27.941,0.576 55.946,0.576 83.766,2.567c22.974,1.637 38.441,-9.487 52.179,-25.392c3.246,-3.786 4.911,-8.325 4.381,-13.347c-2.177,-20.937 -17.421,-44.274 -38.553,-45.753c-6.697,-0.455 -13.468,-0.055 -20.221,0c-22.164,0.205 -44.255,0.465 -66.419,-1.544c-30.666,-2.762 -63.034,3.209 -93.783,1.07c-7.004,-0.493 -13.729,-0.409 -19.263,4.037c-18.639,15.021 -33.168,32.396 -31.707,58.383c0.493,8.678 1.041,17.309 1.497,25.987c1.377,25.95 3.869,51.947 3.814,77.906c-0.112,47.269 2.902,94.388 6.78,141.507c0,13.478 0.168,26.964 0,40.377Z" style="fill:#fef6f8;fill-rule:nonzero;"/><path d="M5522.57,602.185c-0.251,18.202 -0.716,36.413 -0.716,54.606c-0.167,18.733 0.037,37.512 1.265,56.207c1.758,26.852 28.285,40.599 50.942,26.276c15.533,-9.822 27.773,-22.658 25.736,-43.446c-0.372,-3.739 -0.12,-7.497 -0.037,-11.254c0.437,-18.733 0.661,-37.484 1.498,-56.207c0.66,-14.779 6.343,-19.923 21.448,-19.29c8.39,0.372 16.686,2.037 25.011,3.329c17.718,2.763 35.437,3.907 53.044,-0.372c65.498,-15.97 117.213,-52.672 158.5,-105.158c5.311,-6.753 9.05,-14.147 11.887,-22.165c11.292,-31.986 8.018,-64.698 3.711,-97.15c-2.585,-19.495 -9.106,-38.023 -19.932,-55.072c-26.62,-42.013 -64.122,-70.902 -109.753,-88.221c-28.796,-10.928 -59.378,-14.602 -91.021,-10.594c-33.707,4.279 -65.759,14.166 -98.182,23.114c-8.39,2.306 -15.105,7.05 -20.984,13.412c-11.431,12.417 -16.825,26.564 -15.505,43.631c1.712,22.416 3.377,44.906 3.693,67.359c0.577,42.153 0.725,84.361 0.493,126.542c-0.149,31.475 -0.521,62.978 -1.098,94.453Zm78.26,-232.054c-0.028,-7.497 -0.837,-14.984 -0.605,-22.453c0.512,-16.221 5.051,-21.876 20.872,-24.955c30.405,-5.915 60.885,-9.654 91.886,-2.958c9.338,2.01 17.523,4.977 25.875,9.516c15.105,8.203 27.374,19.69 39.512,31.233c12.435,11.859 20.797,26.731 23.169,43.957c1.785,12.9 2.762,26.08 2.483,39.111c-0.316,14.361 -5.116,28.061 -15.663,38.116c-22.481,21.448 -46.738,40.432 -77.785,48.291c-15.533,3.935 -31.159,5.981 -47.231,3.339c-8.269,-1.348 -16.78,-1.348 -25.132,-2.418c-6.464,-0.8 -12.919,-1.953 -19.207,-3.553c-10.11,-2.586 -16.053,-9.31 -17.263,-19.737c-0.744,-6.492 -1.181,-13.031 -1.199,-19.588c-0.066,-10.566 -0.093,-21.132 -0.093,-31.698c-0,-11.887 0.093,-23.774 0.204,-35.661c0.149,-16.835 0.288,-33.679 0.177,-50.542Z" style="fill:#fef6f8;fill-rule:nonzero;"/></g><g id="sheep"><g id="feet"><path d="M469.967,1233.43l-0,205.5c-0,13.529 -16.342,21.792 -24.513,24.513c-8.175,2.725 -16.346,-15.104 -24.516,-15.104c-8.171,-0 -16.346,16.675 -24.517,15.104c-8.171,-1.567 -24.517,-10.984 -24.517,-24.513l0,-205.5c0,-13.529 10.988,-24.512 24.517,-24.512l49.033,-0c13.529,-0 24.513,10.983 24.513,24.512Z" style="fill:#a56a43;"/><path d="M984.438,1233.43l-0,205.5c-0,13.529 -16.342,21.792 -24.517,24.513c-8.171,2.725 -16.342,-15.104 -24.513,-15.104c-8.175,-0 -16.346,16.675 -24.516,15.104c-8.171,-1.567 -24.517,-10.984 -24.517,-24.513l0,-205.5c0,-13.529 10.983,-24.512 24.517,-24.512l49.029,-0c13.533,-0 24.517,10.983 24.517,24.512Z" style="fill:#a56a43;"/></g><path id="body" d="M560.479,134.208c300.221,-64.958 596.7,126.05 661.654,426.271c64.959,300.221 -126.045,596.7 -426.266,661.654c-300.225,64.959 -596.7,-126.045 -661.659,-426.266c-64.958,-300.225 126.05,-596.7 426.271,-661.659Z" style="fill:#f9eab0;"/><path d="M668.208,77.979c-24.662,-47.337 -78.758,-74.379 -133.429,-62.55c-53.462,11.567 -91.062,56.754 -95.412,108.6c-40.7,-32.521 -99.459,-36.225 -144.613,-5.233c-46.146,31.671 -63.591,89.629 -46.025,140.067c-50.833,-16.255 -108.271,2.616 -138.775,49.483c-30.5,46.871 -24.496,107.033 10.946,146.925c-53.233,4.367 -99.158,43.779 -109.437,98.783l-0,0.004c-10.284,55.046 18.358,108.417 66.483,131.684c-47.438,24.466 -74.696,78.462 -63.083,133.183c11.616,54.717 58.45,92.983 111.729,96.075c-34.529,40.8 -39.034,101.204 -7.284,147.333c31.734,46.1 89.713,63.471 140.125,45.838c-16.187,50.854 2.763,108.271 49.671,138.708c46.909,30.442 107.063,24.359 146.909,-11.137c4.437,53.229 43.908,99.1 98.929,109.304c55.062,10.212 108.396,-18.504 131.596,-66.654c24.541,47.408 78.566,74.587 133.266,62.9c54.7,-11.684 92.904,-58.567 95.929,-111.855c40.846,34.476 101.259,38.9 147.342,7.088c46.058,-31.796 63.35,-89.8 45.654,-140.187c50.871,16.12 108.263,-2.905 138.642,-49.85c30.375,-46.95 24.212,-107.096 -11.333,-146.896c53.22,-4.509 99.041,-44.046 109.17,-99.079c10.138,-55.075 -18.645,-108.371 -66.833,-131.505c47.375,-24.604 74.488,-78.666 62.729,-133.35c-11.758,-54.683 -58.691,-92.825 -111.983,-95.783c34.421,-40.892 38.762,-101.308 6.887,-147.35l0,-0.004c-31.85,-46.008 -89.866,-63.221 -140.241,-45.463c16.05,-50.891 -3.05,-108.258 -50.038,-138.575c-46.987,-30.316 -107.125,-24.07 -146.883,11.53c-4.579,-53.221 -44.175,-98.984 -99.221,-109.042c-55.087,-10.063 -108.346,18.792 -131.417,67.008Zm-107.729,56.229c300.221,-64.958 596.7,126.05 661.654,426.271c64.959,300.221 -126.045,596.7 -426.266,661.654c-300.225,64.959 -596.7,-126.045 -661.659,-426.266c-64.958,-300.225 126.05,-596.7 426.271,-661.659Z" style="fill:#f9eab0;"/><path d="M680.017,107.946c313.7,-0 568.383,254.683 568.383,568.383c0,313.696 -254.683,568.379 -568.383,568.379c-313.7,0 -568.384,-254.683 -568.384,-568.379c0,-313.7 254.684,-568.383 568.384,-568.383Zm-0,284.192c156.85,-0 284.191,127.341 284.191,284.191c0,156.846 -127.341,284.188 -284.191,284.188c-156.85,-0 -284.192,-127.342 -284.192,-284.188c0,-156.85 127.342,-284.191 284.192,-284.191Z" style="fill:#f9eab0;"/><g id="face"><path d="M923.425,807.254c0,123.092 -122.683,196.946 -245.296,196.946c-122.612,0 -245.225,-73.854 -245.225,-196.946c-0.271,-44.825 5.154,-89.512 16.142,-132.983c8.816,-39.479 26.65,-76.304 52.287,-107.554c58.05,12.883 117.388,19.254 176.796,18.908c59.475,0.346 118.817,-6.025 176.867,-18.908c25.566,31.25 43.471,68.075 52.221,107.554c10.983,43.471 16.412,88.158 16.208,132.983Z" style="fill:#cbb292;"/><path d="M501.333,566.717c-25.637,31.25 -43.471,68.075 -52.287,107.554c-66.938,29.096 -138.754,11.317 -138.754,-64.029c-0,-64.009 61.983,-86.388 105.454,-94.254c-3.525,12.345 2.983,25.295 14.921,29.775c23.058,8.612 46.658,15.591 70.666,20.954Z" style="fill:#fb7b76;"/><path d="M1046.04,610.242c-0,75.346 -71.888,93.125 -138.821,64.029c-8.75,-39.479 -26.654,-76.304 -52.221,-107.554c24.008,-5.363 47.608,-12.342 70.6,-20.954c12,-4.48 18.512,-17.43 14.983,-29.775c27.467,3.995 53.509,14.845 75.754,31.529c19.192,15.05 30.18,38.316 29.705,62.725Z" style="fill:#fb7b76;"/><path d="M578.1,744.183c-20.208,0.209 -40.15,-4.408 -58.117,-13.491c-11.054,-6.646 -15.058,-20.746 -9.291,-32.221c5.833,-11.529 19.462,-16.613 31.329,-11.65c24.279,10.575 51.812,10.575 76.025,-0c11.866,-4.963 25.566,0.121 31.329,11.65c5.763,11.475 1.763,25.575 -9.221,32.221c-19.462,8.958 -40.691,13.562 -62.054,13.491Z" style="fill:#5f5346;"/><path d="M774.296,744.183c-20.209,0.209 -40.084,-4.408 -58.121,-13.491c-11.054,-6.646 -15.054,-20.746 -9.225,-32.221c5.767,-11.529 19.396,-16.613 31.267,-11.65c24.275,10.575 51.812,10.575 76.02,-0c7.867,-4.754 17.767,-4.688 25.567,0.192c7.867,4.895 12.275,13.7 11.529,22.933c-0.746,9.15 -6.508,17.154 -14.987,20.746c-19.463,8.958 -40.621,13.562 -62.05,13.491Z" style="fill:#5f5346;"/><path d="M749,796.129c-6.104,-12.066 -20.754,-16.875 -32.825,-10.783l-38.046,18.925l-37.975,-18.925c-11.871,-4.946 -25.566,0.071 -31.333,11.596c-5.833,11.529 -1.763,25.575 9.225,32.225l35.604,17.966l0,9.359c0,13.558 10.983,24.616 24.479,24.616c13.563,0 24.55,-11.058 24.55,-24.616l0,-9.359l35.538,-17.966c12.07,-6.184 16.883,-20.888 10.783,-33.038Z" style="fill:#5f5346;"/><g id="hat"><path d="M1017.39,548.725c-22.242,-16.688 -48.284,-27.538 -75.755,-31.529l0,-2.242c-9.083,-27.671 -23.191,-53.367 -41.704,-75.812c0,-0 -73.583,49.233 -220.742,49.233c-147.166,-0 -221.52,-49.233 -221.52,-49.233c-0,-0 0.775,-221.634 221.52,-221.634c220.742,0 392.455,197.013 441.484,295.467c31.129,62.812 -36.825,55.696 -103.284,35.75Z" style="fill:#3b97d3;"/><path d="M875.379,524.313c-13.496,-0 -24.483,-10.988 -24.483,-24.617l-0,-60.554c-9.292,-21.913 -23.667,-41.234 -41.979,-56.375c-9.563,-9.688 -9.563,-25.346 -0,-34.979c9.633,-9.638 25.229,-9.638 34.858,-0c52.017,52.412 56.154,83.208 56.154,91.354l0,60.554c0,13.629 -10.987,24.617 -24.55,24.617Z" style="fill:#2980ba;"/><path d="M926.625,546.971c-23.029,8.608 -46.667,15.587 -70.708,20.954c-58.146,12.883 -117.584,19.254 -177.15,18.904c-59.505,0.35 -118.938,-6.021 -177.084,-18.904c-24.046,-5.367 -47.683,-12.346 -70.775,-20.954c-11.958,-4.479 -18.479,-17.433 -14.946,-29.775l0,-2.242c9.034,-27.671 23.23,-53.367 41.705,-75.812c-0,-0 73.7,49.233 221.1,49.233c147.396,0 221.096,-49.233 221.096,-49.233c18.27,22.5 32.941,48.208 41.77,75.812l0,2.242c3.6,12.133 -3.325,25.017 -15.008,29.775Z" style="fill:#f0c419;"/></g></g></g></g></svg>