<?xml version="1.0" encoding="UTF-8" standalone="no"?><!DOCTYPE svg PUBLIC "-//W3C//DTD SVG 1.1//EN" "http://www.w3.org/Graphics/SVG/1.1/DTD/svg11.dtd"><svg width="100%" height="100%" viewBox="0 0 4334 1056" version="1.1" xmlns="http://www.w3.org/2000/svg" xmlns:xlink="http://www.w3.org/1999/xlink" xml:space="preserve" xmlns:serif="http://www.serif.com/" style="fill-rule:evenodd;clip-rule:evenodd;stroke-linejoin:round;stroke-miterlimit:2;"><rect id="Artboard1" x="0" y="0" width="4333.16" height="1055.18" style="fill:none;"/><clipPath id="_clip1"><rect x="0" y="0" width="4333.16" height="1055.18"/></clipPath><g clip-path="url(#_clip1)"><g id="logo-lindsay-doyle"><g id="logo-text-bottom"><path d="M203.994,822.329c2.604,2.604 4.485,5.208 5.642,7.812c0.868,2.315 1.085,4.63 0.651,6.945c-0.434,2.315 -2.387,4.485 -5.859,6.51c-2.894,1.447 -7.017,3.4 -12.37,5.86c-5.353,2.459 -11.068,4.846 -17.144,7.161c-6.076,2.315 -11.791,4.413 -17.144,6.293c-5.353,1.881 -9.476,2.966 -12.37,3.256c-1.157,0.289 -1.881,1.012 -2.17,2.17c-2.894,5.498 -5.787,10.778 -8.681,15.842c-2.893,5.064 -6.365,10.055 -10.416,14.974c-4.63,5.498 -10.417,9.983 -17.362,13.455c-8.969,4.919 -18.373,4.629 -28.211,-0.868c-4.341,-2.026 -7.813,-5.064 -10.417,-9.115c-3.183,-5.208 -3.617,-11.285 -1.302,-18.229c2.893,-8.97 8.825,-15.914 17.795,-20.833c5.208,-3.183 10.634,-5.86 16.276,-8.03c5.642,-2.17 11.357,-4.123 17.144,-5.859c3.183,-1.158 5.353,-3.328 6.511,-6.511c2.025,-4.34 3.834,-8.825 5.425,-13.455c1.591,-4.629 2.677,-9.404 3.255,-14.323c0.29,-1.446 0.434,-2.749 0.434,-3.906l0,-3.906c0,-2.026 -0.144,-3.472 -0.434,-4.341c-0.289,0 -0.506,0.073 -0.651,0.217c-0.144,0.145 -0.506,0.217 -1.085,0.217c-4.919,1.737 -9.404,3.907 -13.455,6.511c-4.051,2.604 -7.957,5.498 -11.719,8.681c-8.101,6.655 -15.408,13.888 -21.918,21.701c-6.51,7.812 -12.515,16.204 -18.012,25.174c-5.787,9.548 -11.43,19.242 -16.927,29.08c-5.498,9.838 -10.417,20.11 -14.757,30.816c-0.868,2.025 -1.664,4.051 -2.388,6.076c-0.723,2.026 -1.374,4.196 -1.953,6.511c-0.868,3.182 -2.893,4.774 -6.076,4.774c-7.523,0.868 -13.889,-1.302 -19.097,-6.511c-2.026,-1.736 -2.605,-3.906 -1.736,-6.51c4.919,-14.468 9.621,-28.791 14.105,-42.969c4.485,-14.178 9.043,-28.356 13.672,-42.535c0.868,-2.025 3.039,-8.536 6.511,-19.531c3.472,-10.995 7.812,-24.161 13.021,-39.497c5.208,-15.335 10.778,-31.684 16.71,-49.045c5.932,-17.361 11.646,-33.42 17.144,-48.177c5.498,-14.757 10.272,-27.055 14.323,-36.893c4.051,-9.838 6.944,-14.901 8.681,-15.191c2.314,-0.289 4.774,-0.217 7.378,0.217c2.604,0.434 4.847,1.23 6.727,2.387c1.881,1.158 3.4,2.605 4.558,4.341c1.157,1.736 1.447,3.617 0.868,5.642l-12.587,37.11c-3.472,10.272 -7.306,21.629 -11.502,34.071c-4.195,12.442 -8.391,24.667 -12.587,36.675c-4.195,12.008 -8.029,23.221 -11.501,33.638c-3.473,10.416 -6.221,18.518 -8.247,24.305c0.579,-0.578 1.013,-1.157 1.302,-1.736c4.051,-4.051 8.102,-7.885 12.153,-11.502c4.051,-3.617 8.536,-7.016 13.455,-10.199c2.604,-1.736 5.353,-3.4 8.246,-4.992c2.894,-1.591 5.932,-2.966 9.115,-4.123c8.102,-3.183 16.059,-1.881 23.872,3.906c8.391,6.366 13.31,15.191 14.757,26.476c0.578,4.051 0.94,8.174 1.085,12.37c0.144,4.196 -0.073,8.319 -0.651,12.37l-0,0.434c0.578,-0.29 1.012,-0.434 1.302,-0.434c0.289,-0 0.723,-0.145 1.302,-0.434c2.893,-0.868 7.017,-2.17 12.37,-3.907c5.353,-1.736 10.633,-3.327 15.842,-4.774c6.076,-1.736 12.442,-3.617 19.097,-5.642Zm-109.809,69.444l6.944,-7.812l-0.434,-0.434c-2.893,2.025 -5.208,4.774 -6.944,8.246l0.434,0Z" style="fill:#fef6f8;fill-rule:nonzero;"/><path d="M368.49,822.329c3.183,2.025 5.498,4.485 6.944,7.378c1.447,2.315 1.953,5.136 1.519,8.464c-0.434,3.327 -2.821,6.872 -7.161,10.634c-2.894,2.314 -7.234,6.076 -13.021,11.284c-5.787,5.209 -12.153,11.068 -19.097,17.578c-6.945,6.511 -14.179,13.455 -21.702,20.834c-7.523,7.378 -14.54,14.54 -21.05,21.484c-6.511,6.945 -12.081,13.383 -16.71,19.315c-4.63,5.931 -7.668,10.778 -9.115,14.54c-2.025,5.497 -3.761,10.199 -5.208,14.106c-1.447,3.906 -2.821,7.595 -4.123,11.067c-1.303,3.473 -2.749,7.162 -4.341,11.068c-1.591,3.906 -3.4,8.608 -5.425,14.106c-1.447,4.051 -3.111,8.102 -4.991,12.153c-1.881,4.051 -3.69,8.102 -5.426,12.153c-2.604,5.497 -6.366,10.706 -11.285,15.625c-3.182,3.472 -6.799,6.148 -10.85,8.029c-4.051,1.881 -8.247,3.255 -12.587,4.123c-7.234,1.447 -13.6,1.592 -19.097,0.434c-9.549,-2.025 -15.336,-7.812 -17.362,-17.361c-1.157,-4.34 -1.591,-8.68 -1.302,-13.021c0.29,-4.34 1.013,-8.825 2.17,-13.454c1.447,-4.919 3.545,-9.404 6.294,-13.455c2.749,-4.051 6.149,-7.958 10.2,-11.719c4.629,-4.63 9.331,-9.187 14.105,-13.672c4.775,-4.485 9.621,-9.042 14.54,-13.672l30.817,-29.514c0.289,-0.579 0.578,-1.013 0.868,-1.302c0.289,-0.289 0.578,-0.723 0.868,-1.302c2.025,-5.787 4.051,-11.502 6.076,-17.144c2.026,-5.643 4.196,-11.357 6.51,-17.144l0,-0.868c-1.446,0.868 -2.748,1.663 -3.906,2.387c-1.157,0.723 -2.459,1.374 -3.906,1.953c-14.468,6.655 -27.778,7.089 -39.931,1.302c-2.893,-1.447 -5.497,-3.038 -7.812,-4.774c-2.315,-1.737 -4.485,-3.762 -6.511,-6.077c-4.919,-6.944 -6.221,-15.191 -3.906,-24.74c2.315,-11.863 6.076,-23.22 11.285,-34.071c5.208,-10.851 11.14,-21.484 17.795,-31.901c2.604,-4.34 5.353,-8.536 8.247,-12.587c2.893,-4.051 5.931,-7.957 9.114,-11.719c1.158,-1.157 2.17,-2.17 3.038,-3.038c0.868,-0.868 1.881,-1.736 3.039,-2.604c2.025,-1.447 4.195,-1.591 6.51,-0.434c1.447,0.579 2.677,1.157 3.689,1.736c1.013,0.579 1.953,1.302 2.821,2.17c4.051,3.183 6.656,6.8 7.813,10.851c0.579,2.315 0.506,4.196 -0.217,5.642c-0.723,1.447 -1.953,2.894 -3.689,4.341c-1.736,1.157 -2.894,2.17 -3.473,3.038c-4.919,5.498 -9.114,11.285 -12.586,17.361c-3.473,6.076 -6.945,12.298 -10.417,18.663c-3.472,6.655 -6.583,13.383 -9.332,20.183c-2.749,6.799 -4.846,13.816 -6.293,21.05c-0.289,2.026 -0.506,3.906 -0.651,5.642c-0.145,1.737 -0.217,3.473 -0.217,5.209c-0,1.447 0.868,2.025 2.604,1.736c3.183,-0.868 6.004,-2.026 8.464,-3.472c2.459,-1.447 4.991,-3.039 7.595,-4.775c6.655,-4.919 12.876,-10.344 18.663,-16.276c5.787,-5.931 11.285,-12.225 16.493,-18.88c6.656,-8.391 12.66,-17.144 18.013,-26.259c5.353,-9.114 10.489,-18.301 15.408,-27.561c0.578,-1.736 1.302,-3.4 2.17,-4.991c0.868,-1.591 1.736,-3.11 2.604,-4.557c0.868,-2.315 2.604,-3.472 5.208,-3.472c1.158,0.289 2.315,0.506 3.473,0.651c1.157,0.144 2.17,0.506 3.038,1.085c2.604,1.446 4.919,3.038 6.944,4.774c2.026,1.736 3.617,4.051 4.775,6.944c1.157,2.605 1.157,5.064 -0,7.379c-5.209,9.838 -10.055,19.676 -14.54,29.514c-4.485,9.838 -8.753,19.821 -12.804,29.948l-8.247,18.663l-2.821,7.813c-0.723,2.025 -1.302,3.834 -1.736,5.425c-0.434,1.591 -0.651,2.387 -0.651,2.387l73.785,-66.406Zm-144.098,166.233c0.579,-1.157 1.013,-2.315 1.302,-3.472c0.29,-1.158 0.724,-2.46 1.302,-3.907c-0.578,0.579 -0.868,0.868 -0.868,0.868c-2.025,1.447 -3.978,3.039 -5.859,4.775c-1.881,1.736 -3.834,3.472 -5.86,5.208c-1.446,1.447 -2.748,2.749 -3.906,3.906c-1.157,1.158 -2.315,2.46 -3.472,3.907c-3.762,4.34 -6.221,8.897 -7.379,13.672c-1.157,4.774 -1.446,9.621 -0.868,14.54c0,4.051 1.158,8.101 3.473,12.152c0.578,-0.578 1.157,-1.446 1.736,-2.604c1.447,-2.315 2.821,-4.629 4.123,-6.944c1.302,-2.315 2.387,-4.63 3.255,-6.945c2.315,-5.787 4.485,-11.646 6.511,-17.578c2.025,-5.932 4.195,-11.791 6.51,-17.578Z" style="fill:#fef6f8;fill-rule:nonzero;"/><path d="M482.639,985.524c2.315,-0.579 4.485,-1.013 6.511,-1.302c2.025,-0.29 4.051,-0.579 6.076,-0.868c5.498,-0.579 10.923,-1.303 16.276,-2.171c5.353,-0.868 10.779,-1.591 16.277,-2.17c5.208,-0.578 10.416,-1.157 15.625,-1.736c5.208,-0.579 10.561,-1.157 16.059,-1.736c4.34,-0.579 8.753,-0.94 13.238,-1.085c4.485,-0.145 9.042,-0.506 13.671,-1.085c5.209,-0.579 10.489,-0.94 15.843,-1.085c5.353,-0.145 10.633,-0.507 15.842,-1.085l23.437,-1.302c2.604,-0.29 4.774,0.434 6.511,2.17c2.314,2.604 4.195,5.425 5.642,8.463c1.447,3.039 1.881,6.438 1.302,10.2c-0.579,3.183 -2.315,4.774 -5.208,4.774c-7.523,0.579 -15.047,1.085 -22.57,1.519c-7.523,0.435 -15.046,0.941 -22.569,1.52c-8.681,0.578 -17.361,1.229 -26.042,1.953c-8.681,0.723 -17.361,1.519 -26.042,2.387c-13.889,1.447 -27.778,3.183 -41.667,5.208c-13.889,2.026 -27.777,4.485 -41.666,7.379c-4.919,0.868 -9.694,1.808 -14.323,2.821c-4.63,1.013 -9.404,2.098 -14.323,3.255c-0.868,0.289 -1.664,0.579 -2.388,0.868c-0.723,0.29 -1.519,0.724 -2.387,1.302c-2.314,0.579 -4.195,0.29 -5.642,-0.868c-2.026,-1.157 -3.328,-2.315 -3.906,-3.472c-1.736,-2.315 -3.256,-4.63 -4.558,-6.944c-1.302,-2.315 -1.808,-5.064 -1.519,-8.247c0,-2.894 1.302,-4.774 3.907,-5.642c3.761,-1.158 7.45,-2.171 11.067,-3.039c3.617,-0.868 7.306,-1.736 11.068,-2.604c1.447,-0.578 3.617,-1.157 6.51,-1.736c1.447,-5.787 2.966,-11.429 4.558,-16.927c1.591,-5.498 3.255,-11.14 4.991,-16.927c2.604,-9.259 5.136,-18.374 7.596,-27.344c2.459,-8.97 4.991,-17.94 7.595,-26.91c7.523,-27.199 15.625,-53.819 24.306,-79.861c8.68,-26.042 18.518,-51.939 29.514,-77.691c5.787,-13.021 11.719,-25.753 17.795,-38.195c6.076,-12.442 12.731,-24.74 19.965,-36.892c2.604,-4.051 5.281,-8.102 8.03,-12.153c2.749,-4.051 5.715,-7.957 8.897,-11.719l3.473,-3.472c2.025,-2.026 4.34,-2.604 6.944,-1.736c2.315,0.578 4.413,1.663 6.294,3.255c1.88,1.591 3.544,3.255 4.991,4.991c0.579,1.158 1.157,2.243 1.736,3.255c0.579,1.013 1.157,2.243 1.736,3.69c0,1.446 -0.072,2.676 -0.217,3.689c-0.145,1.013 -0.796,1.953 -1.953,2.821l-7.813,8.681c-4.34,5.787 -8.318,11.863 -11.935,18.229c-3.617,6.366 -7.162,12.876 -10.634,19.531c-10.127,19.676 -19.242,39.569 -27.344,59.679c-8.102,20.11 -15.77,40.582 -23.003,61.415c-5.498,16.493 -10.634,32.914 -15.408,49.263c-4.775,16.348 -9.477,32.769 -14.106,49.262c-2.315,9.259 -4.847,18.374 -7.596,27.344c-2.749,8.97 -5.425,18.084 -8.029,27.344c-0,0.578 -0.145,1.157 -0.435,1.736Z" style="fill:#fef6f8;fill-rule:nonzero;"/><path d="M676.651,755.054c-0.579,-1.157 -1.158,-2.025 -1.737,-2.604c-0.868,-1.736 -0.868,-3.472 0,-5.208c2.315,-3.183 4.413,-6.438 6.294,-9.766c1.881,-3.328 3.978,-6.583 6.293,-9.766c0.579,-0.578 1.23,-1.012 1.953,-1.302c0.724,-0.289 1.375,-0.723 1.954,-1.302l-0,0.434c1.446,-0.578 2.821,-0.723 4.123,-0.434c1.302,0.29 2.676,0.724 4.123,1.302c2.315,0.868 4.413,1.809 6.293,2.821c1.881,1.013 3.545,2.532 4.992,4.558l1.302,2.604c0.579,1.447 0.434,2.894 -0.434,4.34l-11.719,18.664c-1.447,2.604 -3.761,3.906 -6.944,3.906c-0.579,-0 -2.026,-0.29 -4.341,-0.868c-2.314,-0.579 -4.485,-1.447 -6.51,-2.604c-2.026,-1.158 -3.906,-2.749 -5.642,-4.775Zm67.274,67.275c4.34,1.157 7.379,3.038 9.115,5.642c1.446,2.315 1.953,5.208 1.519,8.681c-0.434,3.472 -3.255,8.102 -8.464,13.889c-6.366,6.655 -14.467,15.263 -24.305,25.824c-9.838,10.562 -20.11,20.761 -30.817,30.599c-10.706,9.838 -20.978,18.302 -30.816,25.391c-9.838,7.089 -17.939,10.634 -24.305,10.634l-4.341,-0c-2.314,-0.289 -4.412,-0.651 -6.293,-1.085c-1.881,-0.434 -3.834,-1.23 -5.859,-2.387c-6.366,-3.473 -9.983,-8.826 -10.851,-16.059c-0.579,-4.051 -0.579,-8.03 -0,-11.936c0.579,-3.907 1.157,-7.885 1.736,-11.936c2.315,-15.046 6.076,-29.586 11.285,-43.62c5.208,-14.034 10.995,-27.995 17.361,-41.884c3.183,-7.523 6.583,-14.757 10.2,-21.701c3.617,-6.945 7.451,-13.889 11.501,-20.834c1.158,-2.025 3.183,-2.893 6.077,-2.604c2.604,0.29 5.064,1.447 7.378,3.472c1.736,1.447 3.328,2.894 4.775,4.341c1.446,1.446 2.604,3.327 3.472,5.642c0.868,2.604 0.579,5.064 -0.868,7.379c-3.183,5.787 -6.149,11.718 -8.898,17.795c-2.749,6.076 -5.57,12.153 -8.463,18.229c-3.762,8.391 -7.306,16.782 -10.634,25.174c-3.328,8.391 -6.438,17.071 -9.332,26.041c-1.736,5.787 -3.327,11.792 -4.774,18.013c-1.447,6.221 -2.459,12.369 -3.038,18.446c-0.29,1.447 -0.434,2.676 -0.434,3.689l-0,3.255l108.073,-98.09Z" style="fill:#fef6f8;fill-rule:nonzero;"/><path d="M915.801,822.329c3.761,2.025 6.655,4.195 8.68,6.51c1.736,2.026 2.677,4.413 2.821,7.162c0.145,2.749 -1.374,5.57 -4.557,8.463c-3.183,2.894 -6.366,5.787 -9.549,8.681l-15.408,13.889c-1.88,1.736 -2.965,2.749 -3.255,3.038c-4.051,4.051 -7.812,7.885 -11.285,11.502c-3.472,3.617 -6.799,7.161 -9.982,10.633c-3.472,3.473 -6.945,7.017 -10.417,10.634c-3.472,3.617 -6.944,7.306 -10.417,11.068l-10.416,10.851l-4.775,5.208c-0.868,1.157 -1.808,2.17 -2.821,3.038c-1.013,0.868 -1.953,1.881 -2.821,3.038l-1.302,1.302c-0.29,0 -0.579,0.145 -0.868,0.435c-2.894,2.893 -6.511,4.34 -10.851,4.34c-1.447,-0 -2.604,-0.145 -3.472,-0.434c-1.447,-0.29 -2.821,-0.579 -4.123,-0.868c-1.303,-0.29 -2.677,-0.724 -4.124,-1.302c-3.761,-2.026 -5.497,-4.919 -5.208,-8.681l-0,-3.038l0.434,-8.681c1.736,-10.995 4.34,-21.557 7.812,-31.684c3.473,-10.127 7.09,-19.676 10.851,-28.646c4.051,-9.548 8.391,-18.88 13.021,-27.995c4.63,-9.114 9.259,-18.012 13.889,-26.692c0.579,-0.869 1.085,-1.809 1.519,-2.822l2.821,-5.859l0,-0.868c0,-0 0.145,-0.145 0.434,-0.434c-0.578,0.289 -0.94,0.506 -1.085,0.651c-0.144,0.145 -0.506,0.362 -1.085,0.651c-0.868,0.868 -2.17,1.881 -3.906,3.038c-4.919,4.051 -9.549,8.102 -13.889,12.153c-4.34,4.051 -8.247,8.102 -11.719,12.153c-16.782,17.65 -34.143,39.062 -52.083,64.236c-2.315,3.183 -4.558,6.149 -6.728,8.898c-2.17,2.749 -4.412,5.57 -6.727,8.463l-0.868,1.736l-5.209,5.209c-4.051,3.183 -8.536,4.195 -13.455,3.038c-4.34,-0.868 -8.101,-2.46 -11.284,-4.774c-3.473,-2.894 -4.775,-6.511 -3.907,-10.851c0.579,-3.183 1.23,-6.149 1.954,-8.898c0.723,-2.749 1.519,-5.57 2.387,-8.463l3.472,-9.766c0.868,-2.749 1.736,-5.425 2.604,-8.029c1.736,-5.498 3.545,-10.996 5.426,-16.494c1.88,-5.497 3.689,-11.14 5.425,-16.927l9.115,-33.42l3.472,-13.455c-0,-0.579 0.072,-1.157 0.217,-1.736c0.144,-0.579 0.217,-1.157 0.217,-1.736c-0,-0.289 0.072,-0.579 0.217,-0.868c0.144,-0.29 0.217,-0.579 0.217,-0.868c0.289,-2.604 2.025,-3.762 5.208,-3.472c1.447,-0 3.617,0.723 6.511,2.17c1.446,0.578 2.821,1.446 4.123,2.604c1.302,1.157 2.532,2.604 3.689,4.34c0.868,2.315 1.158,4.485 0.868,6.511c-2.025,11.574 -4.557,23.22 -7.595,34.939c-3.039,11.719 -6.583,23.944 -10.634,36.675c-0,0.29 -0.145,0.434 -0.434,0.434c0.289,0 0.434,-0.144 0.434,-0.434c15.046,-21.122 31.539,-40.943 49.479,-59.462c4.63,-4.629 8.826,-8.68 12.587,-12.152c3.762,-3.473 7.668,-6.656 11.719,-9.549c4.34,-2.894 8.536,-5.064 12.587,-6.51c3.183,-1.158 6.655,-1.303 10.416,-0.435c10.707,3.473 17.506,9.983 20.4,19.532c0.579,1.736 0.723,3.472 0.434,5.208c-0.29,1.736 -0.724,3.472 -1.302,5.208c-0.579,2.605 -1.447,5.137 -2.604,7.596c-1.158,2.46 -2.46,4.847 -3.907,7.161l0,0.435c-0.868,1.736 -1.736,3.472 -2.604,5.208c-0.868,1.736 -1.736,3.617 -2.604,5.642c-4.34,7.813 -8.536,16.204 -12.587,25.174c-4.34,9.259 -8.102,18.012 -11.285,26.259c-3.183,8.246 -5.931,16.42 -8.246,24.522l-0,0.868l2.17,-2.604c1.157,-1.157 2.17,-2.17 3.038,-3.038c0.868,-0.868 1.736,-1.881 2.604,-3.038l9.766,-10.417c2.459,-2.604 5.064,-5.425 7.813,-8.463c2.748,-3.039 5.28,-5.715 7.595,-8.03c10.706,-11.574 21.123,-21.846 31.25,-30.816c10.127,-8.97 17.361,-14.902 21.702,-17.795Z" style="fill:#fef6f8;fill-rule:nonzero;"/><path d="M1044.27,801.495c-3.183,8.392 -6.221,16.71 -9.114,24.957c-2.894,8.247 -5.498,16.565 -7.813,24.957c-1.447,5.787 -2.749,11.501 -3.906,17.144c-1.158,5.642 -1.736,11.357 -1.736,17.144c-0,2.315 0.072,4.63 0.217,6.944c0.144,2.315 0.361,4.63 0.651,6.945c-0,-0 0.144,0.289 0.434,0.868c0.289,-0.289 1.519,-1.591 3.689,-3.906c2.17,-2.315 4.919,-5.353 8.247,-9.115l23.654,-26.91l33.854,-38.194c3.183,2.025 5.788,4.051 7.813,6.076c1.736,1.736 3.038,3.762 3.906,6.077c0.868,2.314 0.579,4.629 -0.868,6.944c-0.868,0.868 -2.532,2.966 -4.991,6.293c-2.46,3.328 -5.498,7.162 -9.115,11.502c-3.617,4.341 -7.451,8.97 -11.502,13.889c-4.05,4.919 -7.812,9.621 -11.284,14.106c-3.473,4.485 -6.583,8.391 -9.332,11.719c-2.749,3.327 -4.557,5.425 -5.425,6.293c-2.026,2.315 -4.051,4.413 -6.077,6.294c-2.025,1.881 -4.195,3.689 -6.51,5.425c-6.655,4.919 -14.323,6.221 -23.004,3.906c-5.787,-1.446 -10.272,-4.051 -13.455,-7.812c-3.182,-3.762 -5.497,-8.391 -6.944,-13.889c-1.736,-8.102 -2.17,-16.204 -1.302,-24.306c0.289,-1.446 0.506,-2.676 0.651,-3.689c0.145,-1.013 0.217,-2.242 0.217,-3.689l-13.889,15.625c-3.762,4.051 -7.596,7.885 -11.502,11.502c-3.906,3.617 -8.029,7.016 -12.37,10.199c-2.893,2.026 -5.714,3.834 -8.463,5.426c-2.749,1.591 -5.715,2.966 -8.898,4.123c-7.523,2.315 -15.335,1.881 -23.437,-1.302c-6.945,-2.894 -12.298,-6.945 -16.059,-12.153c-2.026,-3.183 -3.328,-6.438 -3.907,-9.766c-0.578,-3.327 -0.723,-6.727 -0.434,-10.199c0.579,-5.787 1.592,-11.43 3.038,-16.927c1.447,-5.498 3.183,-11.141 5.209,-16.928c7.812,-21.122 19.097,-40.075 33.854,-56.857c2.315,-2.315 4.557,-4.558 6.728,-6.728c2.17,-2.17 4.702,-4.123 7.595,-5.859c6.366,-4.341 13.455,-5.209 21.268,-2.604c4.34,1.736 8.318,3.978 11.935,6.727c3.617,2.749 7.017,5.859 10.2,9.332c4.051,4.051 7.089,8.536 9.115,13.455c0.289,-0 0.434,0.289 0.434,0.868l5.208,-7.813c2.604,-4.34 5.281,-9.042 8.03,-14.106c2.748,-5.064 5.28,-9.91 7.595,-14.54c0.868,-1.736 1.953,-3.978 3.255,-6.727c1.302,-2.749 2.677,-5.787 4.124,-9.115l7.812,-18.88c2.604,-6.366 4.847,-11.936 6.728,-16.71c1.88,-4.775 3.689,-9.187 5.425,-13.238c1.736,-4.051 3.472,-8.247 5.208,-12.587c1.736,-4.34 3.762,-9.549 6.077,-15.625c2.025,-5.208 3.761,-9.621 5.208,-13.238l6.727,-17.361c1.013,-2.46 2.098,-5.136 3.256,-8.03c1.157,-2.314 2.387,-3.544 3.689,-3.689c1.302,-0.145 2.676,0.072 4.123,0.651c3.183,0.868 5.715,2.026 7.596,3.472c1.88,1.447 3.834,3.328 5.859,5.643c2.026,2.604 2.604,5.208 1.736,7.812c-6.076,16.204 -11.863,31.395 -17.361,45.573c-5.498,14.179 -11.574,29.659 -18.229,46.441c-3.472,8.97 -7.306,18.374 -11.502,28.212c-4.196,9.838 -8.174,19.821 -11.936,29.948Zm-54.687,28.212l6.51,-9.548c-1.736,-1.737 -3.038,-2.894 -3.906,-3.473c-3.183,-2.604 -4.919,-5.787 -5.209,-9.548c-0.868,-4.919 -3.183,-9.26 -6.944,-13.021c-1.158,-0.579 -2.026,-0.724 -2.604,-0.434c-1.447,0.579 -2.677,1.157 -3.69,1.736c-1.012,0.579 -1.953,1.157 -2.821,1.736c-1.736,1.447 -3.472,2.966 -5.208,4.557c-1.736,1.592 -3.328,3.256 -4.774,4.992c-16.783,18.518 -28.502,40.075 -35.157,64.67c-0.868,3.183 -1.591,6.51 -2.17,9.983c-0.579,3.472 -0.868,7.089 -0.868,10.85c0.289,1.158 0.506,2.243 0.651,3.256c0.145,1.012 0.217,2.242 0.217,3.689l8.247,-4.774c4.629,-3.183 8.825,-6.583 12.587,-10.2c3.761,-3.617 7.523,-7.451 11.284,-11.502c6.366,-6.655 12.298,-13.599 17.795,-20.833c5.498,-7.234 10.851,-14.613 16.06,-22.136Z" style="fill:#fef6f8;fill-rule:nonzero;"/><path d="M1220.92,822.329c3.472,3.183 6.077,6.366 7.813,9.548c1.446,2.894 2.025,5.932 1.736,9.115c-0.29,3.183 -2.46,6.366 -6.511,9.549c-4.34,3.183 -10.489,7.161 -18.446,11.935c-7.957,4.775 -15.842,9.477 -23.655,14.106c-9.259,5.209 -18.952,10.851 -29.079,16.928c1.736,8.68 2.459,16.927 2.17,24.739c-0.868,8.391 -3.328,16.927 -7.379,25.608c-4.34,8.681 -10.127,16.638 -17.361,23.872c-9.259,9.259 -20.978,14.612 -35.156,16.059c-9.838,1.446 -18.664,0.289 -26.476,-3.473c-4.051,-1.736 -7.451,-3.978 -10.2,-6.727c-2.749,-2.749 -4.702,-6.438 -5.859,-11.068c-1.736,-6.944 -0.724,-14.178 3.038,-21.701c2.025,-3.762 4.268,-7.162 6.727,-10.2c2.46,-3.038 5.281,-6.004 8.464,-8.898c3.762,-4.051 7.74,-7.74 11.936,-11.067c4.195,-3.328 8.463,-6.583 12.804,-9.766c4.34,-3.183 8.825,-6.221 13.455,-9.115c4.629,-2.893 9.259,-5.931 13.889,-9.114c0.578,-0.579 0.94,-0.868 1.085,-0.868c0.144,-0 0.072,-0.434 -0.217,-1.302c-1.158,-4.63 -2.822,-8.898 -4.992,-12.804c-2.17,-3.906 -4.412,-7.74 -6.727,-11.502c-2.315,-3.472 -4.919,-6.583 -7.813,-9.332c-2.893,-2.748 -5.497,-5.859 -7.812,-9.331c-2.026,-3.183 -3.979,-6.366 -5.86,-9.549c-1.88,-3.183 -3.255,-6.8 -4.123,-10.851c-0.868,-3.182 -1.013,-6.727 -0.434,-10.633c0.579,-3.907 1.591,-7.451 3.038,-10.634c1.736,-4.051 3.834,-7.885 6.294,-11.502c2.459,-3.617 5.136,-7.017 8.029,-10.199c6.366,-6.945 13.021,-13.311 19.966,-19.098c6.944,-5.787 14.467,-10.995 22.569,-15.625c5.498,-3.472 12.008,-6.076 19.531,-7.812c8.97,-2.026 17.217,0.578 24.74,7.812c2.894,2.315 4.774,5.787 5.642,10.417c0.579,4.051 -0.289,7.885 -2.604,11.502c-2.315,3.617 -4.485,7.45 -6.51,11.501c-5.498,8.392 -11.213,16.204 -17.144,23.438c-5.932,7.234 -12.515,13.889 -19.749,19.965c-2.893,2.315 -5.642,4.413 -8.246,6.294c-2.604,1.881 -5.353,3.689 -8.247,5.425c-4.629,2.894 -9.404,4.34 -14.323,4.34c-1.157,0 -2.025,-0.144 -2.604,-0.434c4.63,6.077 9.259,12.37 13.889,18.881c4.63,6.51 8.825,13.093 12.587,19.748c0.289,-0 1.591,-0.796 3.906,-2.387c2.315,-1.592 5.281,-3.545 8.898,-5.86c3.617,-2.314 7.74,-4.919 12.37,-7.812c4.629,-2.894 9.404,-5.787 14.323,-8.681c11.284,-6.944 24.16,-14.757 38.628,-23.437Zm-108.073,-11.285c9.838,-6.655 18.591,-14.178 26.259,-22.57c7.667,-8.391 14.829,-17.505 21.484,-27.343l-0.434,-0c-0.579,0.289 -1.013,0.578 -1.302,0.868c-0.289,0.289 -0.723,0.578 -1.302,0.868c-6.655,4.919 -13.166,10.127 -19.531,15.625c-6.366,5.498 -12.298,11.863 -17.796,19.097c-1.446,2.026 -2.893,4.196 -4.34,6.511c-1.447,2.314 -2.459,4.629 -3.038,6.944Zm13.455,108.507l1.302,-12.153c-0,-0.578 -0.434,-0.578 -1.302,0c-4.919,3.183 -9.694,6.439 -14.323,9.766c-4.63,3.328 -9.115,6.872 -13.455,10.634c-3.183,2.604 -6.077,5.353 -8.681,8.246c-2.604,2.894 -4.629,6.077 -6.076,9.549c-2.894,4.051 -4.051,8.681 -3.472,13.889c0.289,1.447 0.651,2.966 1.085,4.557c0.434,1.592 1.374,3.111 2.821,4.558c1.447,1.446 3.038,2.025 4.774,1.736c2.315,-0.579 4.341,-1.302 6.077,-2.17c1.736,-0.869 3.472,-2.026 5.208,-3.473c3.762,-3.472 7.523,-7.523 11.285,-12.152c6.655,-9.549 11.574,-20.545 14.757,-32.987Z" style="fill:#fef6f8;fill-rule:nonzero;"/><path d="M1382.82,822.329c3.183,2.025 5.642,4.051 7.378,6.076c1.447,2.026 2.532,4.196 3.256,6.511c0.723,2.314 0.217,4.919 -1.519,7.812c-0.579,0.868 -2.532,3.111 -5.86,6.728c-3.327,3.616 -7.306,8.029 -11.936,13.237c-4.629,5.209 -9.621,10.779 -14.974,16.711c-5.353,5.931 -10.416,11.501 -15.191,16.71c-4.774,5.208 -8.97,9.693 -12.586,13.455c-3.617,3.761 -5.86,5.931 -6.728,6.51c-7.812,4.919 -16.348,6.076 -25.608,3.472c-4.051,-0.868 -7.812,-2.604 -11.284,-5.208c-5.209,-4.919 -8.102,-11.14 -8.681,-18.663l0,-11.285l-0.868,0.868c-4.051,4.051 -8.247,7.885 -12.587,11.502c-4.34,3.617 -8.97,7.017 -13.889,10.199c-2.315,1.447 -4.774,2.749 -7.378,3.907c-2.605,1.157 -5.209,1.88 -7.813,2.17c-11.285,1.447 -20.833,-1.736 -28.646,-9.549c-4.051,-4.051 -6.076,-9.259 -6.076,-15.625c-0.29,-4.919 -0.073,-9.621 0.651,-14.106c0.723,-4.485 1.808,-8.897 3.255,-13.238c5.498,-19.386 13.744,-37.905 24.74,-55.555c1.736,-2.894 3.617,-5.57 5.642,-8.03c2.026,-2.459 4.34,-4.847 6.945,-7.161c6.365,-4.63 13.02,-5.064 19.965,-1.303c3.762,2.026 7.161,4.485 10.2,7.379c3.038,2.893 5.859,5.932 8.463,9.115c2.026,2.604 3.834,5.28 5.426,8.029c1.591,2.749 2.965,5.715 4.123,8.898c0.289,-0 0.434,0.289 0.434,0.868c0.868,-1.447 1.736,-2.677 2.604,-3.689c0.868,-1.013 1.591,-2.098 2.17,-3.256l24.306,-36.458c1.447,-2.026 3.472,-2.749 6.076,-2.17c2.604,0.578 4.847,1.519 6.728,2.821c1.88,1.302 3.834,2.821 5.859,4.557c1.736,1.447 3.183,3.762 4.34,6.945c0.29,2.315 -0.144,4.051 -1.302,5.208c-5.208,8.97 -9.982,18.012 -14.323,27.127c-4.34,9.114 -8.391,18.301 -12.153,27.561c-2.314,6.076 -4.267,12.225 -5.859,18.446c-1.591,6.221 -2.676,12.659 -3.255,19.314c-0.289,2.026 -0.434,3.979 -0.434,5.86l-0,5.859l76.389,-78.559Zm-95.92,7.378c-0.869,-0.578 -1.809,-1.012 -2.822,-1.302c-1.012,-0.289 -1.953,-0.723 -2.821,-1.302c-4.919,-3.183 -8.68,-7.523 -11.285,-13.021l-3.906,-6.51c-0.289,-0 -0.506,0.072 -0.651,0.217c-0.145,0.144 -0.362,0.217 -0.651,0.217c-0.289,0.289 -1.013,0.723 -2.17,1.302c-2.315,2.025 -4.34,4.195 -6.077,6.51c-1.736,2.315 -3.327,4.63 -4.774,6.945c-4.051,7.523 -7.74,15.046 -11.068,22.569c-3.327,7.523 -6.148,15.336 -8.463,23.438c-2.026,7.234 -3.328,14.757 -3.906,22.569c-0,0.579 0.072,1.158 0.217,1.737c0.144,0.578 0.217,1.302 0.217,2.17c0.868,-0.579 1.808,-1.158 2.821,-1.736c1.013,-0.579 1.808,-1.158 2.387,-1.737c4.051,-3.182 7.74,-6.438 11.068,-9.765c3.327,-3.328 6.582,-6.728 9.765,-10.2c5.209,-5.787 10.128,-11.791 14.757,-18.012c4.63,-6.221 9.115,-12.515 13.455,-18.88l3.907,-5.209Z" style="fill:#fef6f8;fill-rule:nonzero;"/><path d="M1542.97,822.329c3.183,2.025 5.497,4.485 6.944,7.378c1.447,2.315 1.953,5.136 1.519,8.464c-0.434,3.327 -2.821,6.872 -7.161,10.634c-2.894,2.314 -7.234,6.076 -13.021,11.284c-5.787,5.209 -12.153,11.068 -19.097,17.578c-6.945,6.511 -14.179,13.455 -21.702,20.834c-7.523,7.378 -14.54,14.54 -21.05,21.484c-6.511,6.945 -12.081,13.383 -16.71,19.315c-4.63,5.931 -7.668,10.778 -9.115,14.54c-2.025,5.497 -3.762,10.199 -5.208,14.106c-1.447,3.906 -2.821,7.595 -4.124,11.067c-1.302,3.473 -2.748,7.162 -4.34,11.068c-1.591,3.906 -3.4,8.608 -5.425,14.106c-1.447,4.051 -3.111,8.102 -4.992,12.153c-1.88,4.051 -3.689,8.102 -5.425,12.153c-2.604,5.497 -6.366,10.706 -11.285,15.625c-3.183,3.472 -6.799,6.148 -10.85,8.029c-4.051,1.881 -8.247,3.255 -12.587,4.123c-7.234,1.447 -13.6,1.592 -19.098,0.434c-9.548,-2.025 -15.335,-7.812 -17.361,-17.361c-1.157,-4.34 -1.591,-8.68 -1.302,-13.021c0.29,-4.34 1.013,-8.825 2.17,-13.454c1.447,-4.919 3.545,-9.404 6.294,-13.455c2.749,-4.051 6.149,-7.958 10.199,-11.719c4.63,-4.63 9.332,-9.187 14.106,-13.672c4.775,-4.485 9.621,-9.042 14.54,-13.672l30.816,-29.514c0.29,-0.579 0.579,-1.013 0.869,-1.302c0.289,-0.289 0.578,-0.723 0.868,-1.302c2.025,-5.787 4.051,-11.502 6.076,-17.144c2.025,-5.643 4.196,-11.357 6.51,-17.144l0,-0.868c-1.446,0.868 -2.748,1.663 -3.906,2.387c-1.157,0.723 -2.459,1.374 -3.906,1.953c-14.468,6.655 -27.778,7.089 -39.931,1.302c-2.893,-1.447 -5.497,-3.038 -7.812,-4.774c-2.315,-1.737 -4.485,-3.762 -6.511,-6.077c-4.919,-6.944 -6.221,-15.191 -3.906,-24.74c2.315,-11.863 6.076,-23.22 11.285,-34.071c5.208,-10.851 11.14,-21.484 17.795,-31.901c2.604,-4.34 5.353,-8.536 8.246,-12.587c2.894,-4.051 5.932,-7.957 9.115,-11.719c1.158,-1.157 2.17,-2.17 3.038,-3.038c0.868,-0.868 1.881,-1.736 3.039,-2.604c2.025,-1.447 4.195,-1.591 6.51,-0.434c1.447,0.579 2.676,1.157 3.689,1.736c1.013,0.579 1.953,1.302 2.821,2.17c4.051,3.183 6.656,6.8 7.813,10.851c0.579,2.315 0.506,4.196 -0.217,5.642c-0.723,1.447 -1.953,2.894 -3.689,4.341c-1.736,1.157 -2.894,2.17 -3.473,3.038c-4.919,5.498 -9.114,11.285 -12.586,17.361c-3.473,6.076 -6.945,12.298 -10.417,18.663c-3.472,6.655 -6.583,13.383 -9.332,20.183c-2.749,6.799 -4.846,13.816 -6.293,21.05c-0.29,2.026 -0.507,3.906 -0.651,5.642c-0.145,1.737 -0.217,3.473 -0.217,5.209c-0,1.447 0.868,2.025 2.604,1.736c3.183,-0.868 6.004,-2.026 8.464,-3.472c2.459,-1.447 4.991,-3.039 7.595,-4.775c6.655,-4.919 12.876,-10.344 18.663,-16.276c5.787,-5.931 11.285,-12.225 16.493,-18.88c6.655,-8.391 12.66,-17.144 18.013,-26.259c5.353,-9.114 10.489,-18.301 15.408,-27.561c0.578,-1.736 1.302,-3.4 2.17,-4.991c0.868,-1.591 1.736,-3.11 2.604,-4.557c0.868,-2.315 2.604,-3.472 5.208,-3.472c1.158,0.289 2.315,0.506 3.473,0.651c1.157,0.144 2.17,0.506 3.038,1.085c2.604,1.446 4.919,3.038 6.944,4.774c2.026,1.736 3.617,4.051 4.775,6.944c1.157,2.605 1.157,5.064 -0,7.379c-5.209,9.838 -10.055,19.676 -14.54,29.514c-4.485,9.838 -8.753,19.821 -12.804,29.948l-8.247,18.663l-2.821,7.813c-0.723,2.025 -1.302,3.834 -1.736,5.425c-0.434,1.591 -0.651,2.387 -0.651,2.387l73.785,-66.406Zm-144.098,166.233c0.579,-1.157 1.013,-2.315 1.302,-3.472c0.289,-1.158 0.724,-2.46 1.302,-3.907c-0.578,0.579 -0.868,0.868 -0.868,0.868c-2.025,1.447 -3.978,3.039 -5.859,4.775c-1.881,1.736 -3.834,3.472 -5.86,5.208c-1.446,1.447 -2.748,2.749 -3.906,3.906c-1.157,1.158 -2.315,2.46 -3.472,3.907c-3.762,4.34 -6.221,8.897 -7.379,13.672c-1.157,4.774 -1.446,9.621 -0.868,14.54c0,4.051 1.158,8.101 3.473,12.152c0.578,-0.578 1.157,-1.446 1.736,-2.604c1.446,-2.315 2.821,-4.629 4.123,-6.944c1.302,-2.315 2.387,-4.63 3.255,-6.945c2.315,-5.787 4.485,-11.646 6.511,-17.578c2.025,-5.932 4.195,-11.791 6.51,-17.578Z" style="fill:#fef6f8;fill-rule:nonzero;"/><path d="M1612.42,980.749c1.447,-0.578 3.039,-1.446 4.775,-2.604c12.442,-6.655 24.739,-13.672 36.892,-21.05c12.153,-7.379 24.016,-15.119 35.591,-23.221c10.127,-7.234 19.965,-14.684 29.514,-22.352c9.548,-7.668 18.663,-15.698 27.343,-24.089c16.494,-16.204 31.323,-33.275 44.488,-51.215c13.166,-17.94 24.523,-37.327 34.072,-58.16c7.234,-15.625 12.008,-31.829 14.323,-48.611c1.157,-6.077 1.446,-12.081 0.868,-18.013c-0.579,-5.931 -1.592,-11.791 -3.038,-17.578c-2.026,-6.366 -6.366,-10.995 -13.021,-13.889c-4.051,-1.736 -8.175,-2.893 -12.37,-3.472c-4.196,-0.579 -8.464,-0.868 -12.804,-0.868c-10.995,0.289 -21.484,1.953 -31.467,4.991c-9.983,3.038 -20.038,7.017 -30.165,11.936c-23.148,11.574 -44.416,25.174 -63.802,40.799c-2.605,1.736 -5.064,4.051 -7.379,6.944c-1.157,1.736 -3.183,2.315 -6.076,1.736c-2.315,-0.289 -4.196,-1.012 -5.643,-2.17c-1.447,-1.157 -2.893,-2.459 -4.34,-3.906c-2.604,-2.604 -4.051,-5.064 -4.34,-7.379c-0.868,-2.893 -0.434,-5.063 1.302,-6.51c1.447,-1.447 2.749,-2.749 3.906,-3.906c1.157,-1.158 2.459,-2.315 3.906,-3.472c11.574,-9.26 23.51,-17.868 35.808,-25.825c12.297,-7.957 25.246,-15.119 38.845,-21.485c6.945,-3.472 14.179,-6.293 21.702,-8.463c7.523,-2.17 15.046,-3.979 22.569,-5.426c6.655,-1.157 13.31,-1.663 19.966,-1.519c6.655,0.145 13.165,1.085 19.531,2.821c7.234,2.026 13.455,5.137 18.663,9.332c5.209,4.196 9.693,9.187 13.455,14.974c3.472,5.208 6.149,10.779 8.03,16.71c1.88,5.932 3.11,12.225 3.689,18.881c1.736,11.863 1.591,23.437 -0.434,34.722c-1.447,6.944 -3.183,13.889 -5.209,20.833c-2.025,6.945 -4.34,13.745 -6.944,20.4c-6.655,15.914 -14.395,31.033 -23.221,45.356c-8.825,14.323 -18.735,28.284 -29.731,41.883c-6.655,8.102 -13.671,15.843 -21.05,23.221c-7.378,7.379 -15.119,14.395 -23.221,21.05c-10.706,9.26 -21.773,17.94 -33.203,26.042c-11.429,8.102 -23.22,15.915 -35.373,23.438c-12.732,7.812 -25.608,15.335 -38.629,22.569c-13.021,7.234 -26.041,14.179 -39.062,20.834l-6.077,3.038c-2.893,2.025 -6.076,2.315 -9.548,0.868c-2.894,-1.447 -5.426,-3.038 -7.596,-4.774c-2.17,-1.736 -3.689,-4.196 -4.557,-7.379c-0,-0.579 -0.073,-1.013 -0.217,-1.302c-0.145,-0.289 -0.217,-0.723 -0.217,-1.302c-0.579,-1.447 -0,-2.46 1.736,-3.038c1.447,-0.579 2.459,-1.375 3.038,-2.387c0.579,-1.013 1.157,-2.243 1.736,-3.69c5.498,-14.757 10.996,-29.586 16.493,-44.488c5.498,-14.901 11.14,-29.731 16.927,-44.488c6.077,-15.625 12.37,-31.322 18.881,-47.092c6.51,-15.77 13.093,-31.467 19.748,-47.092c5.498,-13.6 11.357,-26.91 17.578,-39.931c6.221,-13.021 12.804,-26.041 19.749,-39.062c0.868,-2.026 1.808,-3.979 2.821,-5.86c1.012,-1.88 1.953,-3.978 2.821,-6.293c0.868,-1.736 2.17,-2.604 3.906,-2.604c0.579,0.289 1.302,0.434 2.17,0.434c0.868,-0 1.592,0.144 2.17,0.434c6.077,2.893 10.128,7.234 12.153,13.021c0.868,1.446 0.724,3.472 -0.434,6.076c-16.493,33.854 -31.684,68.143 -45.573,102.865c-8.391,19.965 -16.638,39.931 -24.739,59.896c-8.102,19.965 -16.06,40.075 -23.872,60.33c-1.157,2.894 -2.243,5.787 -3.255,8.681c-1.013,2.893 -2.243,5.931 -3.69,9.114c0,0.579 -0.289,1.158 -0.868,1.736Z" style="fill:#fef6f8;fill-rule:nonzero;"/><path d="M1990.89,822.329c2.893,2.604 5.208,5.063 6.944,7.378c1.447,2.315 2.387,4.558 2.821,6.728c0.435,2.17 -0.506,4.412 -2.821,6.727c-2.604,2.315 -6.799,4.991 -12.587,8.03c-5.787,3.038 -11.935,6.004 -18.446,8.897c-6.51,2.894 -12.804,5.209 -18.88,6.945c-6.076,1.736 -10.706,2.459 -13.889,2.17c-9.838,13.889 -21.701,25.752 -35.59,35.59c-3.473,2.315 -7.09,4.413 -10.851,6.294c-3.762,1.881 -7.668,3.255 -11.719,4.123c-4.63,1.157 -9.115,1.591 -13.455,1.302c-4.34,-0.289 -8.68,-1.157 -13.021,-2.604l-8.68,-3.038c-10.417,-4.63 -16.638,-12.587 -18.664,-23.872c-1.157,-4.919 -1.591,-9.621 -1.302,-14.106c0.29,-4.485 1.013,-9.042 2.171,-13.672c4.629,-18.518 13.454,-35.59 26.475,-51.215c3.183,-3.762 6.583,-7.162 10.2,-10.2c3.617,-3.038 7.74,-5.57 12.37,-7.595c2.315,-1.158 4.702,-2.098 7.161,-2.822c2.46,-0.723 5.136,-0.94 8.03,-0.651c4.919,0 9.259,1.447 13.021,4.341c4.34,2.893 7.957,6.51 10.85,10.85c0.579,0.579 1.303,0.868 2.171,0.868c4.051,-0.289 7.812,0.29 11.284,1.737c3.473,1.446 6.8,3.327 9.983,5.642c8.97,6.944 13.021,16.348 12.153,28.212c-0,1.447 -0.145,2.966 -0.434,4.557c-0.29,1.592 -0.724,3.111 -1.302,4.557c6.366,-2.893 12.442,-5.931 18.229,-9.114c4.919,-2.604 9.983,-5.353 15.191,-8.247c5.208,-2.893 9.404,-5.497 12.587,-7.812Zm-85.504,45.139c0,-0 0.145,-0.29 0.434,-0.868c-3.472,-0.868 -6.8,-2.098 -9.983,-3.69c-3.182,-1.591 -6.221,-3.399 -9.114,-5.425c-4.34,-3.472 -7.668,-7.234 -9.983,-11.285c-1.736,-3.183 -2.17,-6.076 -1.302,-8.68c0.579,-2.315 1.302,-4.341 2.17,-6.077c2.604,-4.919 5.643,-9.404 9.115,-13.455c3.472,-4.05 7.668,-7.667 12.587,-10.85l0.434,-0.434c-0.579,-0.29 -1.302,-0.434 -2.17,-0.434c-2.894,0.578 -5.209,1.157 -6.945,1.736c-4.919,1.736 -9.332,4.123 -13.238,7.161c-3.906,3.038 -7.451,6.583 -10.634,10.634c-3.472,4.34 -6.51,8.898 -9.114,13.672c-2.604,4.774 -5.064,9.621 -7.379,14.54c-2.314,5.498 -4.051,10.995 -5.208,16.493c-1.157,5.498 -1.447,11.14 -0.868,16.927c-0,4.051 0.868,7.813 2.604,11.285c0.868,1.447 1.736,2.315 2.604,2.604c3.183,1.447 6.511,1.736 9.983,0.868c2.894,-0.579 5.642,-1.519 8.247,-2.821c2.604,-1.302 5.063,-2.677 7.378,-4.123c5.787,-3.762 11.212,-7.958 16.276,-12.587c5.064,-4.63 9.766,-9.694 14.106,-15.191Zm19.531,-38.629c0.29,-1.447 0.362,-2.966 0.217,-4.557c-0.144,-1.592 -0.361,-3.255 -0.651,-4.991l-5.208,2.604c-5.498,3.183 -10.561,7.812 -15.191,13.889c-1.447,1.736 -2.749,3.472 -3.906,5.208c-1.158,1.736 -2.026,3.762 -2.604,6.076c-0.868,2.315 -0.145,3.762 2.17,4.341c0.289,0.289 0.723,0.434 1.302,0.434c2.315,0.578 4.557,1.012 6.727,1.302c2.17,0.289 4.413,0.289 6.728,-0c0.289,-0 0.578,-0.145 0.868,-0.434c2.315,-4.051 4.268,-7.957 5.859,-11.719c1.592,-3.762 2.821,-7.813 3.689,-12.153Z" style="fill:#fef6f8;fill-rule:nonzero;"/><path d="M2151.05,822.329c3.182,2.025 5.497,4.485 6.944,7.378c1.447,2.315 1.953,5.136 1.519,8.464c-0.434,3.327 -2.821,6.872 -7.161,10.634c-2.894,2.314 -7.234,6.076 -13.021,11.284c-5.787,5.209 -12.153,11.068 -19.097,17.578c-6.945,6.511 -14.179,13.455 -21.702,20.834c-7.523,7.378 -14.54,14.54 -21.05,21.484c-6.511,6.945 -12.081,13.383 -16.71,19.315c-4.63,5.931 -7.668,10.778 -9.115,14.54c-2.026,5.497 -3.762,10.199 -5.208,14.106c-1.447,3.906 -2.822,7.595 -4.124,11.067c-1.302,3.473 -2.749,7.162 -4.34,11.068c-1.591,3.906 -3.4,8.608 -5.425,14.106c-1.447,4.051 -3.111,8.102 -4.992,12.153c-1.88,4.051 -3.689,8.102 -5.425,12.153c-2.604,5.497 -6.366,10.706 -11.285,15.625c-3.183,3.472 -6.8,6.148 -10.851,8.029c-4.05,1.881 -8.246,3.255 -12.586,4.123c-7.234,1.447 -13.6,1.592 -19.098,0.434c-9.548,-2.025 -15.335,-7.812 -17.361,-17.361c-1.157,-4.34 -1.591,-8.68 -1.302,-13.021c0.289,-4.34 1.013,-8.825 2.17,-13.454c1.447,-4.919 3.545,-9.404 6.294,-13.455c2.748,-4.051 6.148,-7.958 10.199,-11.719c4.63,-4.63 9.332,-9.187 14.106,-13.672c4.775,-4.485 9.621,-9.042 14.54,-13.672l30.816,-29.514c0.29,-0.579 0.579,-1.013 0.868,-1.302c0.29,-0.289 0.579,-0.723 0.868,-1.302c2.026,-5.787 4.051,-11.502 6.077,-17.144c2.025,-5.643 4.195,-11.357 6.51,-17.144l0,-0.868c-1.446,0.868 -2.749,1.663 -3.906,2.387c-1.157,0.723 -2.459,1.374 -3.906,1.953c-14.468,6.655 -27.778,7.089 -39.931,1.302c-2.893,-1.447 -5.498,-3.038 -7.812,-4.774c-2.315,-1.737 -4.485,-3.762 -6.511,-6.077c-4.919,-6.944 -6.221,-15.191 -3.906,-24.74c2.315,-11.863 6.076,-23.22 11.285,-34.071c5.208,-10.851 11.14,-21.484 17.795,-31.901c2.604,-4.34 5.353,-8.536 8.246,-12.587c2.894,-4.051 5.932,-7.957 9.115,-11.719c1.157,-1.157 2.17,-2.17 3.038,-3.038c0.868,-0.868 1.881,-1.736 3.038,-2.604c2.026,-1.447 4.196,-1.591 6.511,-0.434c1.447,0.579 2.676,1.157 3.689,1.736c1.013,0.579 1.953,1.302 2.821,2.17c4.051,3.183 6.655,6.8 7.813,10.851c0.578,2.315 0.506,4.196 -0.217,5.642c-0.724,1.447 -1.953,2.894 -3.689,4.341c-1.737,1.157 -2.894,2.17 -3.473,3.038c-4.919,5.498 -9.114,11.285 -12.587,17.361c-3.472,6.076 -6.944,12.298 -10.416,18.663c-3.472,6.655 -6.583,13.383 -9.332,20.183c-2.749,6.799 -4.847,13.816 -6.293,21.05c-0.29,2.026 -0.507,3.906 -0.651,5.642c-0.145,1.737 -0.217,3.473 -0.217,5.209c-0,1.447 0.868,2.025 2.604,1.736c3.183,-0.868 6.004,-2.026 8.463,-3.472c2.46,-1.447 4.992,-3.039 7.596,-4.775c6.655,-4.919 12.876,-10.344 18.663,-16.276c5.787,-5.931 11.285,-12.225 16.493,-18.88c6.655,-8.391 12.659,-17.144 18.012,-26.259c5.353,-9.114 10.489,-18.301 15.408,-27.561c0.579,-1.736 1.303,-3.4 2.171,-4.991c0.868,-1.591 1.736,-3.11 2.604,-4.557c0.868,-2.315 2.604,-3.472 5.208,-3.472c1.158,0.289 2.315,0.506 3.472,0.651c1.158,0.144 2.171,0.506 3.039,1.085c2.604,1.446 4.919,3.038 6.944,4.774c2.026,1.736 3.617,4.051 4.774,6.944c1.158,2.605 1.158,5.064 0,7.379c-5.208,9.838 -10.055,19.676 -14.54,29.514c-4.485,9.838 -8.753,19.821 -12.803,29.948l-8.247,18.663l-2.821,7.813c-0.724,2.025 -1.302,3.834 -1.736,5.425c-0.434,1.591 -0.651,2.387 -0.651,2.387l73.785,-66.406Zm-144.098,166.233c0.579,-1.157 1.013,-2.315 1.302,-3.472c0.289,-1.158 0.723,-2.46 1.302,-3.907c-0.579,0.579 -0.868,0.868 -0.868,0.868c-2.025,1.447 -3.979,3.039 -5.859,4.775c-1.881,1.736 -3.834,3.472 -5.86,5.208c-1.447,1.447 -2.749,2.749 -3.906,3.906c-1.157,1.158 -2.315,2.46 -3.472,3.907c-3.762,4.34 -6.221,8.897 -7.379,13.672c-1.157,4.774 -1.447,9.621 -0.868,14.54c0,4.051 1.158,8.101 3.472,12.152c0.579,-0.578 1.158,-1.446 1.737,-2.604c1.446,-2.315 2.821,-4.629 4.123,-6.944c1.302,-2.315 2.387,-4.63 3.255,-6.945c2.315,-5.787 4.485,-11.646 6.51,-17.578c2.026,-5.932 4.196,-11.791 6.511,-17.578Z" style="fill:#fef6f8;fill-rule:nonzero;"/><path d="M2289.94,822.329c4.63,1.736 8.246,4.051 10.851,6.944c2.314,2.315 3.472,5.426 3.472,9.332c-0,3.906 -2.315,8.753 -6.945,14.54c-3.761,4.34 -9.187,10.344 -16.276,18.012c-7.089,7.668 -15.191,15.842 -24.305,24.523c-9.115,8.68 -18.808,17.506 -29.08,26.475c-10.272,8.97 -20.255,17.072 -29.948,24.306c-9.694,7.234 -18.808,13.093 -27.344,17.578c-8.536,4.485 -15.553,6.583 -21.051,6.294c-0.289,-0 -1.085,-0.145 -2.387,-0.434l-9.982,-1.953c-1.881,-0.434 -3.4,-0.941 -4.558,-1.52c-6.655,-3.472 -10.561,-8.825 -11.718,-16.059c-0.868,-8.391 -0.724,-16.348 0.434,-23.871c1.446,-8.97 3.327,-17.651 5.642,-26.042c2.315,-8.391 4.774,-16.927 7.378,-25.608c2.894,-9.838 5.932,-19.531 9.115,-29.08c3.183,-9.548 6.511,-19.097 9.983,-28.646c4.051,-10.127 8.246,-20.11 12.587,-29.948c4.34,-9.838 8.97,-19.676 13.889,-29.514c5.787,-12.442 11.791,-24.739 18.012,-36.892c6.221,-12.153 12.514,-24.306 18.88,-36.459c3.183,-5.787 6.366,-11.501 9.549,-17.144c3.183,-5.642 6.51,-11.357 9.982,-17.144l1.736,-3.038c0.868,-1.157 1.881,-1.736 3.039,-1.736c0.868,0.289 1.663,0.434 2.387,0.434c0.723,-0 1.374,0.145 1.953,0.434c6.366,3.183 10.561,7.812 12.587,13.889c0.868,2.315 0.578,4.919 -0.868,7.812c-1.736,2.894 -3.545,5.715 -5.426,8.464c-1.88,2.749 -3.544,5.715 -4.991,8.898l-15.625,29.948c-6.655,12.442 -12.876,24.956 -18.663,37.543c-5.787,12.587 -11.719,25.246 -17.795,37.978c-13.021,28.356 -23.872,57.726 -32.553,88.108c-2.025,7.233 -4.123,14.25 -6.293,21.05c-2.17,6.8 -3.834,13.817 -4.991,21.05c-1.447,8.392 -2.098,15.987 -1.954,22.787c0.145,6.8 0.362,10.2 0.651,10.2c20.545,-17.072 39.786,-33.71 57.726,-49.914c7.813,-6.944 15.698,-14.106 23.655,-21.484c7.957,-7.379 15.625,-14.613 23.003,-21.702c7.379,-7.089 14.179,-13.961 20.4,-20.616c6.221,-6.655 11.502,-12.587 15.842,-17.795Z" style="fill:#fef6f8;fill-rule:nonzero;"/><path d="M2422.32,822.329c3.183,2.315 5.787,4.919 7.812,7.812c1.736,2.315 2.822,4.992 3.256,8.03c0.434,3.038 -0.507,6.149 -2.822,9.331c-2.314,2.894 -5.353,6.222 -9.114,9.983c-3.762,3.762 -7.234,7.234 -10.417,10.417c-4.051,3.761 -8.102,7.668 -12.153,11.719l-15.625,13.889c-10.995,9.259 -22.714,16.637 -35.156,22.135c-3.183,1.447 -6.294,2.604 -9.332,3.472c-3.038,0.868 -6.149,1.158 -9.331,0.868c-3.762,-0.289 -7.307,-1.012 -10.634,-2.17c-3.328,-1.157 -6.583,-2.604 -9.766,-4.34c-9.548,-5.498 -16.493,-13.31 -20.833,-23.438c-2.315,-5.208 -4.123,-10.489 -5.426,-15.842c-1.302,-5.353 -1.808,-10.923 -1.519,-16.71c0,-16.204 4.775,-30.816 14.323,-43.837c4.919,-6.366 10.417,-11.863 16.493,-16.493c6.077,-4.63 12.587,-8.681 19.532,-12.153c8.97,-4.629 17.94,-7.812 26.91,-9.548c12.731,-2.605 23.148,1.591 31.25,12.586c4.629,5.498 5.353,11.864 2.17,19.098c-1.447,2.604 -2.966,4.991 -4.558,7.161c-1.591,2.17 -3.399,4.413 -5.425,6.728c-3.761,4.051 -7.595,7.957 -11.502,11.718c-3.906,3.762 -8.174,7.234 -12.804,10.417c-3.472,3.183 -7.523,5.643 -12.152,7.379c-2.026,0.868 -4.992,1.519 -8.898,1.953c-3.906,0.434 -7.595,-0.507 -11.068,-2.821c-4.919,-3.473 -7.595,-6.439 -8.029,-8.898c-0.434,-2.46 -1.23,-4.413 -2.387,-5.859c-4.919,7.812 -7.958,16.493 -9.115,26.041c-0.579,4.919 -0.434,9.621 0.434,14.106c0.868,4.485 2.17,9.043 3.906,13.672c1.158,2.604 2.315,5.064 3.473,7.379c1.157,2.315 2.893,4.485 5.208,6.51c0.579,0.868 1.591,1.013 3.038,0.434c3.762,-1.157 7.234,-2.604 10.417,-4.34c3.183,-1.736 6.366,-3.617 9.548,-5.642c4.919,-3.473 9.694,-7.09 14.323,-10.851c4.63,-3.762 9.115,-7.668 13.455,-11.719c1.447,-1.447 3.473,-3.328 6.077,-5.642c2.604,-2.315 4.629,-4.051 6.076,-5.209l40.365,-37.326Zm-94.619,-2.604c-2.314,2.025 -4.34,4.051 -6.076,6.076c-1.736,2.025 -3.472,4.196 -5.208,6.51l7.378,0c3.472,-0.868 6.221,-1.953 8.247,-3.255c2.025,-1.302 4.051,-2.676 6.076,-4.123c4.919,-4.051 9.259,-7.885 13.021,-11.502c3.762,-3.617 7.668,-7.885 11.719,-12.804l1.302,-1.302c-0,-0.289 -0.145,-0.434 -0.434,-0.434c-0.868,0.579 -1.809,0.941 -2.821,1.085c-1.013,0.145 -1.953,0.507 -2.821,1.085c-5.788,2.604 -11.141,5.353 -16.06,8.247c-4.919,2.893 -9.693,6.366 -14.323,10.417Z" style="fill:#fef6f8;fill-rule:nonzero;"/></g><g id="logo-text-top"><path d="M269.883,520.589c17.086,-2.65 34.312,-4.976 50.301,-12.761c24.276,-11.794 39.641,-27.987 59.22,-47.259c22.936,-22.601 42.525,-48.496 59.006,-76.353c15.598,-26.34 26.192,-55.732 23.495,-88.304c-1.749,-21.3 -2.437,-42.869 -6.204,-63.797c-13.263,-73.488 -45.027,-135.117 -104.033,-178.321c-17.458,-12.789 -31.308,-19.904 -50.691,-28.377c-28.564,-12.492 -57.686,-17.579 -88.1,-8.79c-4.353,1.265 -9.153,0.865 -13.487,2.13c-27.141,7.98 -48.645,13.496 -73.655,28.22c-11.376,6.659 -20.184,16.574 -30.415,24.61c-31.038,24.407 -51.054,57.844 -65.871,94.993c-7.124,17.83 -13.979,36.125 -15.737,55.741c-2.753,31.01 -4.678,61.788 0.26,93.058c11.887,75.237 51.231,129.648 109.809,169.652c23.923,16.342 44.45,27.68 72.94,31.819c15.272,2.214 30.117,7.757 45.882,6.027c9.106,-0.716 18.24,-0.855 27.28,-2.288Zm-117.696,-109.027c-35.27,-25.309 -59.769,-58.355 -68.028,-104.759c-8.446,-47.324 0.251,-90.853 19.597,-132.81c7.329,-15.877 18.072,-36.405 34.609,-43.223c13.524,-5.571 20.593,-11.533 33.308,-19.067c17.839,-10.538 37.223,-15.3 56.69,-20.472c13.784,-3.674 27.048,-3.302 40.311,1.405c9.506,3.358 19.16,6.529 28.266,10.882c27.215,12.985 42.543,40.088 58.886,67.629c21.169,35.716 31.912,73.832 32.879,115.668c0.893,37.93 -12.752,70.112 -33.586,99.55c-3.823,5.432 -8.446,10.222 -12.557,15.421c-18.611,23.579 -36.097,36.47 -65.015,37.967c-9.989,0.512 -20.006,1.089 -30.005,1.637c-36.525,1.544 -64.847,-7.933 -95.355,-29.828Z" style="fill:#fef6f8;fill-rule:nonzero;"/><path d="M795.949,91.464c15.198,3.469 26.108,-2.558 37.167,-11.924c13.003,-10.994 15.245,-24.63 8.269,-39.456c-6.009,-12.714 -15.914,-22.536 -30.471,-25.261c-9.561,-1.786 -19.383,-2.67 -29.084,-2.846c-55.63,-1.033 -112.283,4.306 -167.643,-2.93c-16.482,-2.158 -28.899,5.004 -37.065,18.379c-7.618,12.463 -13.013,21.969 -11.98,37.613c1.516,23.383 3.702,52.18 4.139,75.609c0.967,49.798 -0.177,99.708 2.548,149.385c2.53,45.911 2.846,91.737 1.926,137.629c-0.4,19.532 -1.033,39.055 -1.786,58.55c-0.623,16.91 8.622,27.336 22.323,34.861c9.989,5.488 19.671,2.604 29.689,2.381c8.52,-0.195 15.216,0.549 20.49,-8.296c4.52,-7.553 4.604,-16.891 4.576,-25.699c-0.288,-59.788 -2.232,-119.622 -1.953,-179.298c0.056,-13.012 7.413,-19.793 20.035,-20.676c5.803,-0.428 11.691,0.232 17.56,0.52c19.523,0.912 39.046,1.712 58.551,2.893c20.211,1.237 35.688,-7.348 48.775,-22.025c5.804,-6.483 7.385,-13.468 5.636,-21.625c-3.906,-18.314 -18.658,-31.466 -39.595,-33.391c-25.271,-2.297 -50.654,-3.441 -75.99,-5.116c-6.799,-0.455 -13.691,-0.372 -20.416,-1.432c-10.454,-1.637 -15.709,-6.753 -16.054,-17.626c-0.799,-25.392 -2.064,-56.113 -1.804,-81.496c0.167,-16.965 5.451,-21.941 23.513,-22.313c23.43,-0.493 46.859,-0.121 71.907,-0.121c17.663,5.831 37.558,-0.679 56.737,3.711Z" style="fill:#fef6f8;fill-rule:nonzero;"/><path d="M1163.98,91.464c15.198,3.469 26.108,-2.558 37.167,-11.924c13.003,-10.994 15.245,-24.63 8.269,-39.456c-6.008,-12.714 -15.914,-22.536 -30.47,-25.261c-9.562,-1.786 -19.384,-2.67 -29.085,-2.846c-55.63,-1.033 -112.283,4.306 -167.643,-2.93c-16.482,-2.158 -28.899,5.004 -37.065,18.379c-7.618,12.463 -13.012,21.969 -11.98,37.613c1.516,23.383 3.702,52.18 4.139,75.609c0.967,49.798 -0.177,99.708 2.549,149.385c2.529,45.911 2.846,91.737 1.925,137.629c-0.4,19.532 -1.033,39.055 -1.786,58.55c-0.623,16.91 8.622,27.336 22.323,34.861c9.989,5.488 19.672,2.604 29.689,2.381c8.52,-0.195 15.216,0.549 20.49,-8.296c4.521,-7.553 4.604,-16.891 4.576,-25.699c-0.288,-59.788 -2.232,-119.622 -1.953,-179.298c0.056,-13.012 7.413,-19.793 20.035,-20.676c5.804,-0.428 11.691,0.232 17.56,0.52c19.523,0.912 39.046,1.712 58.551,2.893c20.211,1.237 35.688,-7.348 48.775,-22.025c5.804,-6.483 7.385,-13.468 5.636,-21.625c-3.906,-18.314 -18.658,-31.466 -39.595,-33.391c-25.271,-2.297 -50.653,-3.441 -75.99,-5.116c-6.799,-0.455 -13.691,-0.372 -20.416,-1.432c-10.454,-1.637 -15.709,-6.753 -16.053,-17.626c-0.8,-25.392 -2.065,-56.113 -1.805,-81.496c0.168,-16.965 5.451,-21.941 23.513,-22.313c23.43,-0.493 46.859,-0.121 71.907,-0.121c17.663,5.831 37.558,-0.679 56.737,3.711Z" style="fill:#fef6f8;fill-rule:nonzero;"/><path d="M1636.81,306.199c-0,-11.999 0.139,-24.034 -0.028,-36.042c-0.726,-49.873 0.083,-99.792 -5.088,-149.516c-0.856,-8.212 -0.177,-16.63 0.233,-24.927c0.316,-6.166 3.729,-10.315 9.97,-11.514c3.609,-0.698 7.348,-1.405 10.994,-1.321c22.137,0.539 43.939,-4.967 66.326,-2.465c20.044,2.232 32.015,-11.524 42.162,-26.48c1.423,-2.074 1.656,-5.311 1.582,-7.981c-0.521,-18.816 -14.157,-32.656 -33.326,-33.697c-6.446,-0.335 -12.938,-0.103 -19.402,0.093c-29.578,0.92 -59.128,0.613 -88.677,-1.172c-28.536,-1.73 -57.965,1.609 -86.575,1.144c-24.918,-0.428 -49.91,2.102 -74.344,-5.228c-5.339,-1.609 -10.966,-1.432 -16.36,0.521c-13.841,4.995 -28.778,28.89 -25.383,43.213c1.981,8.446 6.39,15.487 13.979,19.793c5.562,3.153 11.543,6.939 17.654,7.636c19.179,2.177 38.172,6.66 57.871,3.507c11.766,-1.898 23.941,-2.074 35.893,-1.702c11.329,0.372 15.701,5.794 17.598,17.374c11.403,69.628 8.957,139.898 8.994,210.019c0.019,57.314 -0.902,114.609 -1.395,171.903c0,1.833 0.214,3.693 0.214,5.535c0.028,9.124 4.046,15.849 12.064,20.304c4.818,2.697 9.366,5.99 14.323,8.352c8.213,3.879 14.408,2.902 20.128,-3.32c12.631,-13.822 23.634,-28.21 21.718,-48.859c-0.837,-9.096 1.06,-18.435 0.939,-27.643c-0.576,-42.506 -1.404,-84.975 -2.148,-127.472c0.056,0 0.084,-0.027 0.084,-0.055Z" style="fill:#fef6f8;fill-rule:nonzero;"/><path d="M2044.43,520.589c17.087,-2.65 34.312,-4.976 50.301,-12.761c24.276,-11.794 39.641,-27.987 59.22,-47.259c22.937,-22.601 42.525,-48.496 59.006,-76.353c15.598,-26.34 26.192,-55.732 23.495,-88.304c-1.749,-21.3 -2.437,-42.869 -6.204,-63.797c-13.263,-73.488 -45.027,-135.117 -104.033,-178.321c-17.458,-12.789 -31.307,-19.904 -50.691,-28.377c-28.564,-12.492 -57.685,-17.579 -88.1,-8.79c-4.353,1.265 -9.152,0.865 -13.487,2.13c-27.14,7.98 -48.645,13.496 -73.655,28.22c-11.375,6.659 -20.184,16.574 -30.415,24.61c-31.038,24.407 -51.054,57.844 -65.87,94.993c-7.125,17.83 -13.98,36.125 -15.738,55.741c-2.753,31.01 -4.678,61.788 0.261,93.058c11.886,75.237 51.23,129.648 109.809,169.652c23.922,16.342 44.45,27.68 72.939,31.819c15.272,2.214 30.117,7.757 45.882,6.027c9.106,-0.716 18.24,-0.855 27.28,-2.288Zm-117.696,-109.027c-35.27,-25.309 -59.769,-58.355 -68.028,-104.759c-8.446,-47.324 0.251,-90.853 19.597,-132.81c7.329,-15.877 18.072,-36.405 34.61,-43.223c13.523,-5.571 20.592,-11.533 33.307,-19.067c17.839,-10.538 37.223,-15.3 56.69,-20.472c13.785,-3.674 27.048,-3.302 40.311,1.405c9.506,3.358 19.161,6.529 28.266,10.882c27.215,12.985 42.544,40.088 58.886,67.629c21.169,35.716 31.912,73.832 32.879,115.668c0.893,37.93 -12.752,70.112 -33.586,99.55c-3.823,5.432 -8.446,10.222 -12.557,15.421c-18.611,23.579 -36.097,36.47 -65.014,37.967c-9.99,0.512 -20.007,1.089 -30.006,1.637c-36.525,1.544 -64.847,-7.933 -95.355,-29.828Z" style="fill:#fef6f8;fill-rule:nonzero;"/><path d="M2661.47,440.553c-8.501,5.572 -17.607,9.543 -27.392,11.608c-10.649,2.242 -21.448,3.814 -32.274,5.051c-18.965,2.148 -35.875,-3.73 -51.147,-14.612c-5.916,-4.195 -11.143,-9.33 -16.947,-13.701c-9.785,-7.385 -18.202,-7.776 -27.299,-1.06c-19.699,14.584 -27.401,41.864 -7.329,61.136c29.522,28.312 62.829,45.882 105.447,37.781c19.672,-3.73 39.223,-7.404 56.253,-19.067c3.665,-2.493 8.241,-3.786 12.519,-5.255c18.584,-6.288 33.456,-18.091 46.515,-32.154c18.175,-19.616 32.489,-41.325 35.205,-69.005c1.897,-19.3 -0.344,-38.144 -5.683,-56.57c-18.779,-64.866 -58.467,-109.464 -125.026,-127.555c-14.872,-4.028 -29.866,-7.636 -44.682,-11.859c-41.93,-11.971 -55.881,-51.547 -32.424,-87.672c18.1,-27.885 43.79,-40.981 75.525,-40.516c26.824,0.409 52.672,6.557 65.154,35.26c4.232,9.711 12.631,15.254 20.76,20.993c4.781,3.386 10.278,3.618 15.598,1.432c4.167,-1.72 8.241,-3.897 12.008,-6.371c20.9,-13.7 23.941,-22.769 14.64,-45.622c-2.725,-6.669 -6.343,-13.068 -10.222,-19.16c-39.539,-62.169 -140.791,-86.603 -208.075,-27.857c-16.621,14.501 -29.633,31.736 -43.018,48.905c-35.688,45.827 -23.457,99.959 -0.734,135.22c19.541,30.35 47.631,52.151 84.472,59.881c12.427,2.604 24.89,5.134 37.27,7.999c19.96,4.631 38.107,13.551 50.654,29.726c16.453,21.16 26.647,45.343 25.587,73.432c3.618,22.332 -7.171,37.753 -25.355,49.612Z" style="fill:#fef6f8;fill-rule:nonzero;"/><path d="M2849.66,381.807c0.121,28.936 -3.302,67.964 -2.892,96.909c0.279,20.732 11.366,38.59 32.34,43.65c7.515,1.832 15.328,2.093 23.048,2.093c15.654,0.037 31.242,-0.968 46.756,-2.902c4.874,-0.596 8.26,0.409 12.864,1.097c6.018,0.893 12.882,-0.177 18.974,-0.325c12.947,-0.279 25.96,-0.335 38.879,1.069c19.728,2.13 39.539,-1.581 59.294,0.149c17.952,1.581 29.783,-6.408 38.777,-20.025c8.585,-13.031 9.385,-28.285 2.576,-41.455c-12.919,-25.011 -37.995,-23.523 -62.392,-22.983c-3.906,0.093 -8.426,-0.4 -11.97,0.986c-3.535,1.348 -5.553,2.92 -9.72,2.464c-3.497,-0.4 -6.892,-1.599 -10.389,-2.213c-4.074,-0.716 -8.185,0.204 -12.287,0.204c-5.255,0 -10.51,0.233 -15.765,0.345c-10.911,0.232 -21.802,0.288 -32.675,-0c-6.725,-0.168 -13.533,-0.289 -20.128,-1.433c-8.315,-1.442 -14.333,-11.459 -15.886,-19.876c-1.405,-7.544 -2.158,-15.273 -2.502,-22.937c-1.721,-38.534 -4.306,-77.078 -4.502,-115.641c-0.232,-45.37 -5.86,-90.509 -3.999,-135.945c1.153,-27.931 0.614,-55.965 0.837,-83.924c0.111,-13.737 -1.498,-27.317 -9.413,-38.804c-9.134,-13.291 -27.196,-23.225 -44.487,-7.636c-10.222,9.217 -17.514,20.016 -19.384,34.46c-2.957,23.086 -2.613,46.227 -2.204,69.34c0.856,49.222 2.297,98.425 3.497,148.325c-2.269,37.902 2.577,76.381 2.753,115.008Z" style="fill:#fef6f8;fill-rule:nonzero;"/><path d="M3210.97,361.159c-0.521,37.549 0.884,75.292 -4.846,112.534c-3.888,25.262 17.858,48.124 42.469,46.859c17.31,-0.883 34.675,-0.511 52.021,-1.004c21.225,-0.605 42.506,-1.47 63.49,1.869c22.081,3.497 44.226,2.26 66.363,2.902c15.598,0.456 27.801,-5.748 38.014,-17.281c17.56,-19.821 17.439,-26.397 -1.953,-45.399c-2.056,-2.018 -4.158,-4.027 -6.139,-6.12c-6.288,-6.66 -13.989,-9.729 -23.179,-9.962c-39.483,-0.948 -78.966,-2.046 -118.44,-3.134c-7.673,-0.233 -15.393,-0.177 -23.039,-0.977c-6.399,-0.66 -10.212,-4.883 -11.394,-11.254c-0.521,-2.846 -1.209,-5.692 -1.265,-8.557c-0.688,-38.516 -1.488,-77.041 -1.72,-115.585c-0.084,-13.924 4.762,-18.286 19.588,-19.235c21.132,-1.349 42.292,-2.706 63.452,-3.218c20.332,-0.493 31.103,-13.059 39.427,-29.168c2.298,-4.456 1.665,-9.339 0.261,-14.101c-6.864,-22.918 -29.429,-38.395 -52.784,-35.846c-6.678,0.725 -13.291,2.734 -19.988,3.023c-13.403,0.567 -26.983,1.86 -40.051,-2.94c-6.743,-2.464 -12.779,-6.538 -12.919,-14.044c-0.493,-26.871 -0.549,-53.751 -0.056,-80.622c0.14,-8.381 6.027,-13.264 15.561,-13.906c11.515,-0.772 23.113,-0.855 34.656,-0.632c27.941,0.577 55.946,0.577 83.766,2.567c22.974,1.637 38.441,-9.487 52.179,-25.392c3.246,-3.786 4.911,-8.324 4.381,-13.347c-2.176,-20.937 -17.421,-44.273 -38.553,-45.752c-6.697,-0.456 -13.468,-0.056 -20.221,-0c-22.164,0.204 -44.254,0.465 -66.419,-1.544c-30.666,-2.763 -63.034,3.209 -93.783,1.069c-7.004,-0.493 -13.729,-0.409 -19.263,4.037c-18.639,15.021 -33.168,32.396 -31.707,58.383c0.493,8.678 1.041,17.31 1.497,25.987c1.377,25.951 3.869,51.947 3.814,77.907c-0.112,47.268 2.902,94.387 6.78,141.507c0,13.477 0.168,26.964 0,40.376Z" style="fill:#fef6f8;fill-rule:nonzero;"/><path d="M3581.18,361.159c-0.521,37.549 0.883,75.292 -4.846,112.534c-3.888,25.262 17.858,48.124 42.469,46.859c17.309,-0.883 34.674,-0.511 52.021,-1.004c21.225,-0.605 42.506,-1.47 63.489,1.869c22.081,3.497 44.227,2.26 66.364,2.902c15.598,0.456 27.801,-5.748 38.013,-17.281c17.561,-19.821 17.44,-26.397 -1.953,-45.399c-2.056,-2.018 -4.158,-4.027 -6.139,-6.12c-6.287,-6.66 -13.989,-9.729 -23.178,-9.962c-39.483,-0.948 -78.967,-2.046 -118.44,-3.134c-7.674,-0.233 -15.394,-0.177 -23.039,-0.977c-6.399,-0.66 -10.213,-4.883 -11.394,-11.254c-0.521,-2.846 -1.209,-5.692 -1.265,-8.557c-0.688,-38.516 -1.488,-77.041 -1.721,-115.585c-0.084,-13.924 4.762,-18.286 19.588,-19.235c21.132,-1.349 42.292,-2.706 63.453,-3.218c20.332,-0.493 31.102,-13.059 39.427,-29.168c2.297,-4.456 1.665,-9.339 0.26,-14.101c-6.864,-22.918 -29.428,-38.395 -52.783,-35.846c-6.679,0.725 -13.292,2.734 -19.989,3.023c-13.402,0.567 -26.982,1.86 -40.05,-2.94c-6.743,-2.464 -12.78,-6.538 -12.919,-14.044c-0.493,-26.871 -0.549,-53.751 -0.056,-80.622c0.139,-8.381 6.027,-13.264 15.561,-13.906c11.514,-0.772 23.113,-0.855 34.656,-0.632c27.94,0.577 55.946,0.577 83.765,2.567c22.974,1.637 38.442,-9.487 52.18,-25.392c3.246,-3.786 4.911,-8.324 4.38,-13.347c-2.176,-20.937 -17.421,-44.273 -38.553,-45.752c-6.696,-0.456 -13.468,-0.056 -20.22,-0c-22.165,0.204 -44.255,0.465 -66.42,-1.544c-30.665,-2.763 -63.033,3.209 -93.783,1.069c-7.003,-0.493 -13.728,-0.409 -19.262,4.037c-18.64,15.021 -33.168,32.396 -31.708,58.383c0.493,8.678 1.042,17.31 1.498,25.987c1.376,25.951 3.869,51.947 3.813,77.907c-0.111,47.268 2.902,94.387 6.781,141.507c-0,13.477 0.167,26.964 -0,40.376Z" style="fill:#fef6f8;fill-rule:nonzero;"/><path d="M3942.49,373.018c-0.251,18.202 -0.716,36.414 -0.716,54.607c-0.168,18.732 0.037,37.511 1.265,56.206c1.758,26.853 28.284,40.6 50.942,26.276c15.533,-9.822 27.773,-22.658 25.736,-43.445c-0.372,-3.74 -0.121,-7.497 -0.037,-11.255c0.437,-18.732 0.66,-37.483 1.497,-56.206c0.661,-14.78 6.344,-19.923 21.449,-19.291c8.389,0.372 16.686,2.037 25.01,3.33c17.719,2.762 35.438,3.906 53.045,-0.372c65.498,-15.97 117.212,-52.672 158.5,-105.159c5.311,-6.752 9.05,-14.147 11.887,-22.164c11.291,-31.987 8.017,-64.699 3.711,-97.15c-2.586,-19.495 -9.106,-38.023 -19.932,-55.072c-26.62,-42.013 -64.122,-70.903 -109.754,-88.221c-28.796,-10.929 -59.378,-14.603 -91.02,-10.594c-33.708,4.278 -65.759,14.165 -98.183,23.113c-8.389,2.307 -15.105,7.05 -20.983,13.412c-11.431,12.417 -16.826,26.564 -15.505,43.632c1.711,22.415 3.376,44.906 3.692,67.358c0.577,42.153 0.726,84.362 0.493,126.542c-0.148,31.475 -0.521,62.978 -1.097,94.453Zm78.259,-232.054c-0.027,-7.496 -0.837,-14.984 -0.604,-22.453c0.511,-16.221 5.05,-21.876 20.872,-24.954c30.405,-5.916 60.885,-9.655 91.885,-2.958c9.339,2.009 17.524,4.976 25.876,9.515c15.105,8.203 27.373,19.69 39.511,31.233c12.436,11.859 20.797,26.731 23.169,43.957c1.786,12.901 2.763,26.08 2.484,39.111c-0.317,14.361 -5.116,28.062 -15.664,38.116c-22.48,21.449 -46.738,40.432 -77.785,48.292c-15.533,3.934 -31.158,5.98 -47.231,3.339c-8.268,-1.349 -16.779,-1.349 -25.131,-2.419c-6.465,-0.799 -12.92,-1.953 -19.207,-3.553c-10.111,-2.585 -16.054,-9.31 -17.263,-19.737c-0.744,-6.492 -1.181,-13.03 -1.2,-19.588c-0.065,-10.566 -0.093,-21.132 -0.093,-31.698c0,-11.887 0.093,-23.774 0.205,-35.66c0.149,-16.835 0.288,-33.68 0.176,-50.543Z" style="fill:#fef6f8;fill-rule:nonzero;"/></g></g></g></svg>